<svg width="240" height="240" viewBox="0 0 240 240" fill="none" xmlns="http://www.w3.org/2000/svg">
<g clip-path="url(#clip0)">
<path opacity="0.1" d="M238.173 199.044C237.023 203.688 235.405 207.753 233.431 210.959C233.151 211.429 232.864 211.883 232.573 212.327C232.182 212.903 231.78 213.468 231.369 214.024C228.176 218.268 224.436 221.169 220.784 223.284C219.789 223.86 218.791 224.401 217.789 224.907C216.943 225.336 216.097 225.736 215.251 226.108C214.929 226.254 214.607 226.392 214.286 226.539C213.964 226.686 213.595 226.828 213.255 226.971L212.766 227.165C203.319 230.813 193.749 231.508 184.108 230.593L183.651 230.545L182.919 230.468C180.961 230.255 179.002 229.983 177.041 229.652L176.298 229.527L175.971 229.471C174.871 229.278 173.771 229.066 172.672 228.836C171.223 228.548 169.772 228.23 168.32 227.882L168.132 227.839L167.979 227.8C162.794 226.578 157.596 225.11 152.393 223.604L151.657 223.388L150.335 223.004L149.222 222.68L148.892 222.585C147.135 222.07 145.379 221.56 143.622 221.057L143.338 220.974C140.039 220.029 136.721 219.118 133.414 218.289L132.984 218.181C131.63 217.845 130.276 217.524 128.924 217.219L127.893 216.99L126.522 216.701C122.722 215.911 118.925 215.28 115.135 214.887C113.313 214.697 111.486 214.554 109.655 214.456C108.143 214.384 106.631 214.342 105.119 214.33C103.068 214.31 101.014 214.335 98.9546 214.404H98.4887C95.5878 214.503 92.6808 214.676 89.7717 214.883L89.248 214.918H89.0748C82.8896 215.375 76.7044 215.984 70.5357 216.42L69.0286 216.524H68.8101C66.6658 216.667 64.5237 216.778 62.3836 216.856H61.8167H61.7981H61.1095L60.1528 216.882C59.1591 216.902 58.1674 216.914 57.1778 216.916H55.9634C52.3306 216.895 48.7123 216.726 45.1166 216.334L44.7167 216.286C37.7295 215.496 30.8206 213.864 24.0354 210.898C23.3331 210.59 22.6321 210.268 21.9325 209.931C17.2439 207.73 12.6403 204.799 8.1601 201.163C6.04888 199.437 3.9253 197.442 2.31921 194.066C-1.75477 185.432 -0.224965 168.522 5.07575 163.605C9.22189 159.758 14.0793 162.888 18.5389 161.153C18.8129 161.043 19.0835 160.899 19.3491 160.721C19.916 160.338 20.4676 159.862 20.9985 159.296C21.1799 159.106 21.3614 158.903 21.5449 158.692C21.9572 158.221 22.3696 157.699 22.7654 157.129C23.4125 156.228 24.0322 155.243 24.621 154.18C24.8821 153.714 25.1364 153.231 25.3838 152.73C26.24 151.046 26.996 149.151 27.6352 147.087C27.868 146.307 28.0746 145.493 28.2537 144.653C28.3506 144.221 28.4372 143.755 28.5094 143.306C28.6171 142.656 28.6992 141.989 28.7547 141.311C29.0145 138.108 28.5939 134.982 27.1301 132.34C26.999 132.106 26.8613 131.888 26.7177 131.688C26.4342 131.277 26.1349 130.914 25.823 130.605C25.6972 130.48 25.5673 130.359 25.4353 130.242C23.5509 128.58 21.1201 127.941 19.0708 126.789C18.4462 126.457 17.8365 126.014 17.2482 125.463C16.875 125.101 16.5039 124.721 16.139 124.323L16.0421 124.211C12.926 120.847 10.1856 116.139 8.00134 110.397C7.45837 108.945 6.95848 107.426 6.50453 105.846C6.36639 105.371 6.23238 104.884 6.10455 104.396C2.48209 90.7106 2.10891 73.1746 5.87776 59.7182C6.33561 58.0857 6.84532 56.5194 7.40344 55.0299C7.58487 54.5377 7.77249 54.0542 7.96629 53.5793C11.5537 44.7163 16.708 38.7113 21.9118 34.2647C28.897 28.2984 36.21 24.5296 43.6631 22.0473C45.1751 21.5436 46.687 21.0918 48.1989 20.6917C54.5284 18.9994 60.9322 18.1015 67.2906 17.4194C73.238 16.7891 79.2115 16.3818 85.2111 16.1976C87.244 16.1401 89.2789 16.1156 91.3159 16.1242C95.9053 16.1242 100.495 16.3099 105.084 16.6811C106.596 16.802 108.108 16.9459 109.62 17.1129C113.497 17.5331 117.367 18.1087 121.23 18.8397C123.085 19.1908 124.937 19.5779 126.784 20.001C140.853 23.2215 154.718 28.6827 168.105 37.1744C169.624 38.1357 171.136 39.143 172.641 40.1963C178.27 44.0774 183.802 48.5542 189.215 53.6095C189.726 54.0902 190.236 54.5737 190.745 55.0601C194.125 58.3065 197.457 61.8048 200.74 65.5549C205.074 70.4381 209.248 75.9185 213.234 81.9599C214.79 84.3487 216.302 86.8411 217.77 89.4371C220.365 94.0199 222.785 99.0199 225.009 104.391C225.207 104.872 225.403 105.356 225.596 105.842C226.603 108.372 227.558 110.992 228.462 113.703C232.874 126.983 235.835 142.17 238.02 157.686C239.948 171.224 241.231 186.425 238.173 199.044Z" fill="#6C63FF"/>
<path opacity="0.1" d="M235.4 152.73H217.787V105.816H225.621C225.428 105.33 225.232 104.846 225.034 104.366H217.795V89.4112C216.33 86.8209 214.818 84.3285 213.259 81.934V104.383H172.653V55.0298H190.758C190.248 54.5434 189.738 54.0599 189.228 53.5793H172.653V40.1661C171.142 39.1214 169.63 38.114 168.118 37.1441V53.5491H110.167L110.028 53.2728L126.792 19.9535C124.945 19.5275 123.094 19.1404 121.238 18.7922L109.628 41.8627V17.0826C108.116 16.9157 106.605 16.7718 105.093 16.6509V43.4557L91.3244 16.094C89.2887 16.094 87.2538 16.1185 85.2196 16.1674L103.891 53.2728L103.752 53.5491H48.2033V20.709C46.6913 21.109 45.1794 21.5609 43.6674 22.0645V53.5793H7.96652C7.77271 54.0542 7.5851 54.5377 7.40366 55.0298H43.6633V104.366H6.09653C6.22435 104.853 6.35837 105.341 6.4965 105.816H43.6633V152.73H25.382C25.1346 153.231 24.8803 153.714 24.6191 154.18H43.6633V202.187C45.1753 202.638 46.6872 203.11 48.1991 203.603V154.18H105.088V214.331C106.6 214.331 108.112 214.372 109.624 214.456V154.18H168.114V227.817L168.301 227.86C169.753 228.2 171.203 228.518 172.653 228.814V154.18H213.247V226.949C213.593 226.816 213.94 226.673 214.278 226.518C214.616 226.362 214.921 226.246 215.243 226.086C216.089 225.709 216.935 225.309 217.781 224.886V154.18H235.536C235.491 153.697 235.446 153.213 235.4 152.73ZM105.088 152.73H48.2033V105.816H105.088V152.73ZM105.088 104.379H48.2033V55.0298H104.282L105.082 56.3509L105.088 104.379ZM168.114 152.73H109.628V105.816H168.114V152.73ZM168.114 104.379H109.628V55.0298H168.114V104.379ZM213.247 152.73H172.653V105.816H213.247V152.73Z" fill="#6C63FF"/>
<path d="M61.2726 218.967C61.2726 219.015 61.2561 219.062 61.2499 219.11C61.2499 219.062 61.2644 219.015 61.2747 218.967H61.2726Z" fill="#EAECF0"/>
<path d="M62.3488 216.899H61.7818H61.7633H61.0747L60.118 216.925L60.0129 214.65L59.916 212.492L59.4665 202.644L59.4521 202.342V202.208L59.3263 199.437L61.252 197.926L61.487 201.945L61.5035 202.243V202.277L61.9798 210.437L62.1262 212.941L62.2107 214.396L62.2828 215.643V215.686L62.3488 216.899Z" fill="#EAECF0"/>
<path d="M69.2617 218.963L69.2844 219.105H69.1319L69.1093 218.963H69.2617Z" fill="#3A3768"/>
<path d="M99.1239 162.085C99.1239 162.172 99.1239 162.219 99.1239 162.219V162.271C99.1239 162.271 97.3261 172.559 96.7406 181.34C96.7007 181.915 96.6677 182.491 96.6416 183.066C96.6127 183.675 96.5901 184.271 96.5777 184.849C96.5612 185.527 96.5571 186.183 96.5653 186.809C96.5653 186.952 96.5653 187.099 96.5653 187.241C96.5653 187.53 96.5797 187.828 96.588 188.135C96.5962 188.441 96.6086 188.748 96.621 189.067C96.6333 189.387 96.6457 189.667 96.6602 189.974C97.1034 199.471 98.7879 213.377 98.7879 213.377C98.7879 213.377 98.8435 213.752 98.9157 214.391H98.4497C95.5489 214.49 92.6418 214.663 89.7327 214.87L89.209 214.905H89.0359C82.8507 215.363 76.6655 215.971 70.4968 216.407L68.9896 216.511H68.7711C66.6269 216.655 64.4848 216.766 62.3447 216.843H61.7777C61.9232 216.414 62.0905 216.019 62.2766 215.665C62.4332 215.361 62.6022 215.086 62.7818 214.844C63.7616 213.565 64.8287 212.606 65.9465 212C66.1822 211.865 66.426 211.802 66.6702 211.814L68.1134 211.874H68.3361L70.5504 211.965L89.543 212.755H89.5905L89.7245 212.699C89.945 212.584 90.1597 212.425 90.3657 212.224C90.7224 211.909 91.0343 211.406 91.2713 210.765C91.5082 210.124 91.6621 209.365 91.7182 208.563C91.7182 208.429 91.7347 208.287 91.7388 208.131C91.745 207.922 91.745 207.711 91.7388 207.501C91.7388 207.354 91.7388 207.199 91.7223 207.039C91.7058 206.879 91.7017 206.72 91.6873 206.556C91.2296 201.198 90.4502 184.707 90.4502 184.707V184.759C90.4502 184.759 90.4502 184.055 90.4688 182.872C90.4688 182.781 90.4688 182.682 90.4688 182.583V182.328C90.4688 182.065 90.4832 181.78 90.4914 181.465C90.4914 181.279 90.5038 181.089 90.51 180.891C90.5203 180.601 90.5327 180.303 90.5451 179.993C90.5441 179.974 90.5441 179.955 90.5451 179.936C90.5533 179.741 90.5615 179.542 90.5698 179.341C90.5698 179.341 90.5698 179.298 90.5698 179.276C90.877 172.908 91.8439 162.828 94.8994 159.094C96.3323 157.337 97.2807 156.983 97.9054 157.328C98.8167 157.829 99.0456 159.815 99.0951 161.105C99.0951 161.192 99.0951 161.274 99.0951 161.356C99.1114 161.598 99.121 161.841 99.1239 162.085Z" fill="#3A3768"/>
<path opacity="0.1" d="M61.2726 218.967C61.2726 219.015 61.2561 219.062 61.2499 219.11C61.2499 219.062 61.2644 219.015 61.2747 218.967H61.2726Z" fill="black"/>
<path opacity="0.1" d="M69.2617 218.963L69.2844 219.105H69.1319L69.1093 218.963H69.2617Z" fill="black"/>
<path opacity="0.1" d="M99.1239 162.085C99.1239 162.172 99.1239 162.219 99.1239 162.219C99.1239 162.219 97.6415 170.702 96.9344 178.835C96.8849 179.411 96.8395 179.968 96.7983 180.506C96.7777 180.783 96.7591 181.059 96.7406 181.335C96.7007 181.911 96.6677 182.486 96.6416 183.062C96.6127 183.671 96.5901 184.266 96.5777 184.845C96.5612 185.523 96.5571 186.179 96.5653 186.805C96.5653 186.947 96.5653 187.094 96.5653 187.237C96.5653 187.526 96.5798 187.824 96.588 188.13C96.5962 188.437 96.6086 188.748 96.621 189.063C96.6334 189.378 96.6457 189.663 96.6602 189.969C96.6746 190.276 96.689 190.569 96.7055 190.872C96.7715 192.093 96.854 193.375 96.9488 194.679C97.5941 203.473 98.7879 213.325 98.7879 213.325C98.7879 213.325 98.8477 213.722 98.9198 214.387H98.4539C95.553 214.486 92.646 214.659 89.7369 214.866L89.2132 214.9H89.04C82.8548 215.358 76.6696 215.967 70.5009 216.403L68.9938 216.506H68.7752C66.631 216.65 64.4889 216.761 62.3488 216.839H61.7818H61.7633C61.9131 216.393 62.086 215.983 62.2787 215.617C62.4349 215.308 62.6047 215.03 62.7859 214.788C63.7666 213.512 64.8335 212.553 65.9507 211.943C66.1866 211.812 66.4302 211.751 66.6743 211.762L68.1175 211.822H68.3402L70.5607 211.913L89.5678 212.699H89.6008C89.6008 212.699 89.6564 212.699 89.7492 212.634C89.9718 212.518 90.188 212.355 90.3946 212.146C90.7434 211.832 91.0487 211.339 91.2819 210.712C91.5152 210.084 91.6688 209.344 91.7285 208.559C91.7285 208.425 91.745 208.282 91.7491 208.127C91.7553 207.917 91.7553 207.707 91.7491 207.497C91.7491 207.35 91.7491 207.194 91.7326 207.035C91.7161 206.875 91.712 206.685 91.6976 206.504C91.2399 201.146 90.4605 184.655 90.4605 184.655C90.4605 184.655 90.4605 183.951 90.4791 182.768C90.4791 182.678 90.4791 182.578 90.4791 182.479V182.224C90.4791 181.961 90.4935 181.676 90.5018 181.361C90.5018 181.175 90.5141 180.985 90.5203 180.787C90.5306 180.498 90.543 180.2 90.5554 179.889C90.5544 179.87 90.5544 179.851 90.5554 179.833C90.5636 179.637 90.5719 179.438 90.5801 179.237C90.5801 179.237 90.5801 179.194 90.5801 179.172C90.6172 178.378 90.6667 177.523 90.7285 176.629C91.1574 170.378 92.2295 162.215 94.9015 158.929C96.2973 157.203 97.2313 156.84 97.858 157.138C98.8229 157.6 99.0518 159.681 99.0951 160.993C99.0951 161.079 99.0951 161.161 99.0951 161.243C99.1137 161.522 99.1233 161.804 99.1239 162.085Z" fill="black"/>
<path d="M61.2726 218.967C61.2726 219.015 61.2561 219.062 61.2499 219.11C61.2499 219.062 61.2644 219.015 61.2747 218.967H61.2726Z" fill="#3A3768"/>
<path d="M69.2617 218.963L69.2844 219.105H69.1319L69.1093 218.963H69.2617Z" fill="#3A3768"/>
<path d="M98.5961 161.718C98.5961 161.718 95.9056 177.113 96.0354 186.326C96.1653 195.538 98.2662 212.85 98.2662 212.85C98.2662 212.85 98.357 213.458 98.4539 214.43C95.553 214.529 92.646 214.702 89.7369 214.909L89.2132 214.944H89.04C82.8548 215.401 76.6696 216.01 70.5009 216.446L68.9938 216.55H68.7752C66.631 216.693 64.4889 216.804 62.3488 216.882H61.7818H61.7633H61.0746C61.3584 215.885 61.7451 215.034 62.2065 214.391L62.2622 214.309C63.2438 213.054 64.31 212.115 65.4249 211.524C65.6609 211.393 65.9045 211.332 66.1486 211.343L68.0536 211.421H68.2763L70.571 211.516L89.075 212.289C89.3397 212.184 89.5968 212.009 89.8399 211.766C89.9208 211.688 89.9993 211.6 90.075 211.503C90.3071 211.223 90.516 210.866 90.6935 210.445C91.0832 209.517 91.3429 208.135 91.1698 206.128C90.71 200.771 89.9327 184.279 89.9327 184.279C89.9327 184.279 89.8008 164.213 94.3943 158.58C96.2499 156.304 97.2931 156.382 97.8766 157.284C97.894 157.308 97.9106 157.334 97.9261 157.362C98.7301 158.718 98.5961 161.718 98.5961 161.718Z" fill="#3A3768"/>
<path d="M24.5593 199.493L24.4851 201.103L24.0356 210.985C23.3333 210.677 22.6323 210.354 21.9327 210.018L22.4584 201.034L22.6357 197.982L24.5593 199.493Z" fill="#EAECF0"/>
<path d="M11.3643 196.298L22.5924 146.259L67.8207 153.645L71.9895 196.298H11.3643Z" fill="#EFC6CD"/>
<path d="M11.3643 200.663V196.298H71.9895V202.679L11.3643 200.663Z" fill="#D48A9B"/>
<path d="M28.4601 188.989L55.5843 190.146C55.6443 190.149 55.7039 190.122 55.7578 190.067C55.8118 190.011 55.8586 189.93 55.8944 189.829C55.9302 189.727 55.9538 189.61 55.9634 189.486C55.9729 189.361 55.968 189.234 55.9492 189.115L51.7206 165.233L33.4516 164.503L28.0478 187.668C28.0176 187.812 28.0049 187.969 28.0111 188.125C28.0172 188.281 28.0418 188.432 28.0828 188.563C28.1238 188.694 28.1797 188.802 28.2456 188.877C28.3115 188.951 28.3853 188.99 28.4601 188.989Z" fill="#DFE6F5"/>
<path opacity="0.15" d="M28.4601 188.989L55.5843 190.146C55.6443 190.149 55.7039 190.122 55.7578 190.067C55.8118 190.011 55.8586 189.93 55.8944 189.829C55.9302 189.727 55.9538 189.61 55.9634 189.486C55.9729 189.361 55.968 189.234 55.9492 189.115L51.7206 165.233L33.4516 164.503L28.0478 187.668C28.0176 187.812 28.0049 187.969 28.0111 188.125C28.0172 188.281 28.0418 188.432 28.0828 188.563C28.1238 188.694 28.1797 188.802 28.2456 188.877C28.3115 188.951 28.3853 188.99 28.4601 188.989Z" fill="black"/>
<path d="M28.2416 187.992L55.6461 189.201L51.9206 165.573C51.8605 165.19 51.7451 164.856 51.5903 164.616C51.4356 164.377 51.2492 164.243 51.0567 164.235L33.4454 163.536L28.2416 187.992Z" fill="#DFE6F5"/>
<path d="M30.5054 182.643L33.7897 167.512C33.8595 167.193 33.9716 166.922 34.1127 166.732C34.2538 166.543 34.4179 166.441 34.5855 166.441H42.7479C42.9792 166.441 43.2011 166.634 43.3646 166.976C43.5282 167.318 43.62 167.783 43.62 168.267V184.616C43.6199 184.864 43.5958 185.108 43.5492 185.336C43.5026 185.563 43.4344 185.768 43.3489 185.939C43.2633 186.11 43.1621 186.242 43.0514 186.329C42.9406 186.415 42.8227 186.454 42.7046 186.442L31.2558 185.221C31.1139 185.206 30.9759 185.118 30.8538 184.966C30.7317 184.814 30.6291 184.601 30.5552 184.347C30.4812 184.093 30.438 183.805 30.4293 183.508C30.4206 183.211 30.4467 182.914 30.5054 182.643Z" fill="#4C4C56"/>
<path d="M46.6034 180.726L46.7436 172.092C46.7474 171.747 46.8154 171.418 46.9333 171.176C47.0511 170.934 47.2094 170.798 47.3745 170.797H49.7867C49.9349 170.799 50.0781 170.909 50.1912 171.11C50.3043 171.31 50.38 171.588 50.4052 171.894L51.1144 180.48C51.13 180.67 51.1257 180.864 51.1018 181.049C51.078 181.235 51.0352 181.407 50.9763 181.555C50.9175 181.702 50.8441 181.821 50.7611 181.903C50.6782 181.985 50.5877 182.029 50.4959 182.03L47.2322 182.091C47.1478 182.09 47.0642 182.054 46.9866 181.985C46.9089 181.916 46.8387 181.814 46.78 181.687C46.7214 181.56 46.6755 181.409 46.6452 181.244C46.6148 181.079 46.6006 180.903 46.6034 180.726Z" fill="#D1D9EC"/>
<path d="M14.6465 124.57L23.7408 122.981C23.8737 122.944 24.0087 122.999 24.1254 123.137C24.2422 123.275 24.3344 123.488 24.3882 123.745L32.9877 164.503L28.188 187.064C28.3385 186.356 28.4498 191.865 27.3633 187.09L13.6961 127.389C13.5126 126.59 14.2198 124.682 14.6465 124.57Z" fill="#4C4C56"/>
<path opacity="0.15" d="M14.6465 124.57L23.7408 122.981C23.8737 122.944 24.0087 122.999 24.1254 123.137C24.2422 123.275 24.3344 123.488 24.3882 123.745L32.9877 164.503L28.188 187.064C28.3385 186.356 28.4498 191.865 27.3633 187.09L13.6961 127.389C13.5126 126.59 14.2198 124.682 14.6465 124.57Z" fill="black"/>
<path d="M14.6465 124.57L24.2026 122.014C24.3355 121.977 24.4705 122.032 24.5873 122.17C24.704 122.308 24.7962 122.521 24.85 122.778L33.4516 163.536L28.2478 187.992L14.1579 126.422C14.1147 126.235 14.0936 126.03 14.0962 125.822C14.0988 125.615 14.1252 125.412 14.1731 125.231C14.221 125.049 14.289 124.895 14.3714 124.78C14.4537 124.664 14.5481 124.593 14.6465 124.57Z" fill="#4C4C56"/>
<path d="M17.032 127.436L23.9408 125.183C24.0789 125.137 24.2204 125.191 24.3421 125.335C24.4638 125.479 24.5585 125.706 24.6109 125.977L31.8476 163.044C31.8772 163.195 31.8914 163.358 31.8893 163.521C31.8872 163.685 31.8687 163.846 31.8352 163.994L28.522 178.49C28.477 178.692 28.4055 178.862 28.3158 178.982C28.2262 179.101 28.1221 179.165 28.0158 179.165C27.9096 179.165 27.8055 179.101 27.7159 178.982C27.6262 178.862 27.5547 178.692 27.5097 178.49L16.5639 129.275C16.5222 129.093 16.5016 128.892 16.5038 128.689C16.5059 128.486 16.5308 128.288 16.5763 128.109C16.6218 127.93 16.6868 127.776 16.7659 127.659C16.8451 127.542 16.9362 127.466 17.032 127.436Z" fill="#6C63FF"/>
<path d="M90.7492 210.955C90.7492 210.955 90.6069 211.447 90.3987 212.25L90.3801 212.323C90.1946 213.014 89.9678 213.921 89.7369 214.913L89.2132 214.948H89.04C82.8548 215.406 76.6696 216.014 70.5009 216.45L68.9938 216.554H68.7752C66.631 216.698 64.4889 216.809 62.3488 216.886H61.7818H61.7633H61.0747L60.118 216.912C59.1243 216.932 58.1326 216.944 57.1429 216.947H55.9636C52.3309 216.925 48.7125 216.757 45.1169 216.364L44.7169 216.317C45.4241 213.096 46.6879 207.816 47.7146 206.128C48.5084 204.833 54.2091 203.396 59.4521 202.342L60.0046 202.23H60.017L61.4808 201.945C63.4869 201.561 65.3074 201.25 66.6063 201.038L66.7259 201.017L66.0496 196.268L65.0703 189.361L65.3486 183.558L65.3713 183.092H65.3404C65.0612 183.154 64.779 183.081 64.5157 182.876L54.7245 182.168H54.5472L50.7866 181.888C48.7702 181.737 47.3373 181.624 47.2817 181.603C47.2225 181.582 47.1645 181.549 47.1085 181.504C47.0207 181.434 46.9397 181.331 46.8693 181.201C46.7871 181.054 46.7174 180.879 46.6632 180.683H46.6219H46.5312L45.9993 180.757L45.7292 180.796C45.7189 180.735 45.7106 180.675 45.7003 180.619C45.6756 180.45 45.6508 180.29 45.6282 180.126H45.4859L43.6303 180.044H43.5974C43.5974 180.044 38.81 180.808 36.3091 178.9C35.3917 178.201 34.7814 177.143 34.8288 175.559C34.8392 175.199 34.8754 174.843 34.936 174.506C34.1319 171.358 38.0595 165.617 41.0532 167.201C41.8621 167.685 42.7144 167.759 43.5396 167.417C43.9875 167.214 44.4094 166.812 44.7767 166.238C44.8138 166.182 44.8468 166.126 44.8777 166.07C44.8282 166.005 44.7767 165.949 44.7293 165.897C44.524 165.671 44.3037 165.511 44.0757 165.422L44.888 164.926H44.9004C44.9004 164.926 47.7868 164.373 49.665 164.153H49.6774C50.2361 164.093 50.7083 164.054 50.9887 164.071C52.2257 164.145 54.6359 162.292 54.739 161.723C54.842 161.153 55.943 161.723 55.943 161.723L56.9058 160.937C57.8687 160.156 58.4192 159.089 58.4192 158.303C58.4192 157.518 59.2789 156.667 59.2789 156.667C59.6665 155.303 60.4273 153.84 61.2252 152.545C61.9159 151.426 62.6333 150.429 63.1653 149.734C63.3715 146.937 63.6467 144.165 63.9899 141.428C64.3549 138.877 65.4868 136.986 65.8929 136.373L66.0414 136.165C65.9275 135.09 65.7759 134.034 65.5878 133.005C65.574 132.919 65.5576 132.833 65.5383 132.746C65.4971 132.543 65.4538 132.345 65.4105 132.159L65.3466 131.9C65.2414 131.943 65.1404 131.982 65.0291 132.012C64.6877 132.117 64.3432 132.171 63.9982 132.172C62.4523 132.184 60.947 131.135 59.7127 129.186C58.4784 127.237 57.583 124.495 57.1636 121.379C57.1636 121.379 57.1636 121.379 57.1636 121.354C56.9982 120.088 56.9149 118.781 56.9161 117.468C56.9152 116.209 56.9942 114.954 57.1512 113.738C57.1821 113.479 57.2192 113.224 57.2584 112.97C57.2623 112.94 57.2671 112.911 57.2728 112.883C57.2914 112.767 57.3099 112.646 57.3306 112.529C57.0254 112.627 56.7176 112.683 56.409 112.698H56.2028C55.6141 112.744 55.0271 112.54 54.4771 112.098C54.3439 111.979 54.2162 111.834 54.0957 111.666C54.0894 111.66 54.0838 111.651 54.0792 111.64C53.9226 111.448 53.7796 111.212 53.6545 110.936C53.8839 110.568 54.0762 110.109 54.2203 109.584C54.3643 109.059 54.4572 108.48 54.4936 107.88C54.5493 106.947 54.4751 105.907 54.741 105.147C54.8772 104.804 55.0404 104.512 55.2235 104.284C56.3203 102.717 57.1904 100.567 58.1821 98.7147C59.1737 96.8627 60.3737 95.261 61.7076 95.1747C63.4972 95.0581 65.0724 97.6657 66.8454 98.1578C67.3897 98.3089 67.9485 98.2571 68.4804 98.542C69.0765 98.9323 69.6374 99.5275 70.1401 100.303C70.5942 100.844 70.9956 101.559 71.3235 102.41C71.5513 103.148 71.7146 103.966 71.806 104.823C72.0356 106.631 72.1738 108.485 72.2183 110.354C72.2657 112.309 72.2183 114.278 72.3173 116.221C72.3874 117.908 72.6597 119.531 73.109 120.939H73.1358C73.2141 121.169 73.2995 121.388 73.3914 121.595C73.2162 121.712 73.041 121.815 72.8616 121.906C72.5634 122.066 72.2613 122.191 71.9565 122.282C71.8168 122.33 71.6754 122.354 71.5338 122.355C71.4355 122.36 71.3373 122.342 71.2411 122.299L71.4225 122.554L71.9256 123.262L72.1152 123.525L72.4967 124.056C72.5833 123.525 72.7028 123.383 72.841 123.417C73.1214 122.865 73.5399 124.06 73.5399 124.06C73.7852 125.045 74.445 126.025 75.0285 126.75C75.3714 127.173 75.7245 127.559 76.0861 127.907C83.7908 137.521 83.3022 151.906 83.7558 153.045C84.2094 154.185 84.2382 158.312 84.2382 158.312C84.2382 158.312 85.3742 172.338 85.8876 173.551C86.401 174.765 85.9206 175.188 86.368 176.543C86.8154 177.899 86.7123 181.525 86.7123 181.525C86.7123 181.525 87.0216 190.069 88.1225 191.921C89.1101 193.583 90.4296 207.566 90.6914 210.424L90.7492 210.955Z" fill="url(#paint0_linear)"/>
<path d="M45.5911 165.953C45.5911 165.953 44.521 169.48 41.4903 167.857C38.4595 166.234 34.4495 172.373 35.5937 175.403C36.738 178.434 44.1169 174.54 44.1169 174.54L46.9477 173.34L46.7621 168.405L45.5911 165.953Z" fill="#D38884"/>
<path opacity="0.1" d="M45.5911 165.953C45.5911 165.953 44.521 169.48 41.4903 167.857C38.4595 166.234 34.4495 172.373 35.5937 175.403C36.738 178.434 44.1169 174.54 44.1169 174.54L46.9477 173.34L46.7621 168.405L45.5911 165.953Z" fill="black"/>
<path d="M46.5766 165.763L45.2632 165.621L44.455 166.113C44.455 166.113 47.0157 166.89 46.3106 174.156L49.0712 173.806L46.5766 165.763Z" fill="#A36468"/>
<path opacity="0.1" d="M46.5766 165.763L45.2632 165.621L44.455 166.113C44.455 166.113 47.0157 166.89 46.3106 174.156L49.0712 173.806L46.5766 165.763Z" fill="black"/>
<path d="M63.9611 149.514C63.9611 149.514 60.3572 153.831 59.3449 157.418C59.3449 157.418 58.5037 158.282 58.5037 159.041C58.5037 159.801 57.9635 160.872 57.0213 161.632L56.077 162.409C56.077 162.409 54.9987 161.843 54.8977 162.409C54.7967 162.974 52.4401 164.805 51.2258 164.736C50.0114 164.667 45.2632 165.599 45.2632 165.599C46.1328 166.426 46.8428 167.845 47.2772 169.626C47.7116 171.407 47.8448 173.444 47.6549 175.403L58.8748 174.419L63.1178 172.442L65.6125 167.222L63.9611 149.514Z" fill="#444053"/>
<path opacity="0.1" d="M63.9611 149.514C63.9611 149.514 60.3572 153.831 59.3449 157.418C59.3449 157.418 58.5037 158.282 58.5037 159.041C58.5037 159.801 57.9635 160.872 57.0213 161.632L56.077 162.409C56.077 162.409 54.9987 161.843 54.8977 162.409C54.7967 162.974 52.4401 164.805 51.2258 164.736C50.0114 164.667 45.2632 165.599 45.2632 165.599C46.1328 166.426 46.8428 167.845 47.2772 169.626C47.7116 171.407 47.8448 173.444 47.6549 175.403L58.8748 174.419L63.1178 172.442L65.6125 167.222L63.9611 149.514Z" fill="black"/>
<path d="M47.4281 180.726L45.8405 180.661L43.985 180.579C43.985 180.579 35.2226 181.991 35.3937 176.124C35.5649 170.257 42.3047 168.198 43.2427 169.882C43.954 171.155 45.5993 172.183 46.3498 172.602C46.5889 172.735 46.7353 172.809 46.7353 172.809L47.4281 180.726Z" fill="#D38884"/>
<path opacity="0.1" d="M47.4281 180.726L45.8405 180.662C45.2076 176.107 45.9416 173.599 46.358 172.615C46.5972 172.748 46.7436 172.822 46.7436 172.822L47.4281 180.726Z" fill="black"/>
<path d="M48.4981 180.977L46.8487 181.218L46.0653 181.331C44.987 174.699 46.7291 172.088 46.7291 172.088H47.2446L48.0878 172.299L48.4981 180.977Z" fill="#A36468"/>
<path d="M68.4763 136.96L66.5218 144.73C66.5218 144.73 66.2228 136.86 65.3528 133.152C65.1301 132.202 64.8703 131.529 64.5672 131.326C63.7425 130.782 68.4845 119.898 68.4845 119.898C68.6433 119.968 69.5504 121.194 70.6617 122.778C71.8843 124.505 73.3564 126.612 74.346 127.958C76.2243 130.467 68.4763 136.96 68.4763 136.96Z" fill="#D38884"/>
<path d="M65.9692 137.106C65.9692 137.106 64.3982 139.218 63.9611 142.321C63.524 145.425 63.1179 150.999 63.1179 150.999C63.1179 150.999 63.8271 164.33 64.1961 164.965C64.5652 165.599 65.9692 178.93 65.9692 178.93L67.33 177.027L65.5445 160.237C65.5445 160.237 66.7321 138.665 65.9692 137.106Z" fill="#444053"/>
<path opacity="0.1" d="M65.9692 137.106C65.9692 137.106 64.3982 139.218 63.9611 142.321C63.524 145.425 63.1179 150.999 63.1179 150.999C63.1179 150.999 63.8271 164.33 64.1961 164.965C64.5652 165.599 65.9692 178.93 65.9692 178.93L67.33 177.027L65.5445 160.237C65.5445 160.237 66.7321 138.665 65.9692 137.106Z" fill="black"/>
<path d="M72.8059 166.847H64.9528L66.2249 140.906H72.8059V166.847Z" fill="#A36468"/>
<path d="M54.6111 218.967H54.7059L54.5287 219.11L54.6111 218.967Z" fill="#67647E"/>
<path d="M69.3855 207.151L67.8495 208.386L67.6433 208.546L62.1138 212.997L60.0046 214.693L57.1347 217.003H55.9636C52.3308 216.981 48.7125 216.813 45.1169 216.42C45.8137 213.221 47.0322 208.101 48.026 206.448C48.8012 205.152 54.3472 203.754 59.4665 202.7C60.1056 202.571 60.7365 202.446 61.3509 202.329L61.4973 202.299C63.5302 201.91 65.3692 201.595 66.6516 201.379L66.8578 201.345L68.4701 201.086L68.6391 200.732L68.8453 202.579L69.0164 204.056L69.3855 207.151Z" fill="#67647E"/>
<path opacity="0.1" d="M54.6111 218.967H54.7059L54.5287 219.11L54.6111 218.967Z" fill="black"/>
<path opacity="0.1" d="M69.3855 207.151L67.8495 208.386L67.6433 208.546L62.1138 212.997L60.0046 214.693L57.1347 217.003H55.9636C52.3308 216.981 48.7125 216.813 45.1169 216.42C45.8137 213.221 47.0322 208.101 48.026 206.448C48.8012 205.152 54.3472 203.754 59.4665 202.7C60.1056 202.571 60.7365 202.446 61.3509 202.329L61.4973 202.299C63.5302 201.91 65.3692 201.595 66.6516 201.379L66.8578 201.345L68.4701 201.086L68.6391 200.732L68.8453 202.579L69.0164 204.056L69.3855 207.151Z" fill="black"/>
<path d="M54.6111 218.967H54.7059L54.5287 219.11L54.6111 218.967Z" fill="#67647E"/>
<path d="M61.2726 218.967C61.2726 219.015 61.2561 219.062 61.2499 219.11C61.2499 219.062 61.2644 219.015 61.2747 218.967H61.2726Z" fill="#67647E"/>
<path d="M69.2844 219.105H69.1319L69.1093 218.963H69.2617L69.2844 219.105Z" fill="#67647E"/>
<path d="M70.6988 202.64L70.571 211.524V212.004V212.051L70.5071 216.45L68.9999 216.554H68.7814C66.6372 216.698 64.4951 216.809 62.355 216.886H61.788H61.7695H61.0808L60.1242 216.912C59.1304 216.932 58.1387 216.944 57.1491 216.947H55.9636C57.0357 215.557 58.4233 214.024 59.916 212.491C60.586 211.801 61.2808 211.114 61.9777 210.437C63.8332 208.632 65.7115 206.927 67.2433 205.567L67.4392 205.394C68.033 204.867 68.5711 204.397 69.0309 204C70.0246 203.136 70.6555 202.618 70.6988 202.584V202.64Z" fill="#67647E"/>
<path opacity="0.1" d="M56.9285 166.126C57.3141 167.809 57.712 169.528 58.3491 170.84C58.4501 171.047 58.6253 171.237 58.716 171.008C58.7446 170.913 58.7583 170.801 58.7552 170.689C58.7355 169.895 58.6067 169.131 58.3841 168.487C58.1779 167.822 57.9347 167.218 57.7512 166.527C57.5677 165.837 57.3574 164.507 56.945 164.326C56.4152 164.092 56.811 165.616 56.9285 166.126Z" fill="black"/>
<path opacity="0.1" d="M70.6534 122.765C70.6246 122.981 70.5937 123.197 70.5607 123.404C70.1802 125.845 69.498 128.031 68.5832 129.741C67.6685 131.451 66.5539 132.623 65.3528 133.139C65.1301 132.189 64.8703 131.516 64.5672 131.313C63.7426 130.769 68.4845 119.885 68.4845 119.885C68.635 119.955 69.5422 121.202 70.6534 122.765Z" fill="black"/>
<path d="M70.9009 118.617C70.9009 121.491 70.4939 124.3 69.7313 126.69C68.9688 129.079 67.8849 130.942 66.6168 132.042C65.3488 133.142 63.9534 133.429 62.6072 132.869C61.261 132.308 60.0245 130.924 59.0539 128.892C58.0834 126.859 57.4224 124.27 57.1546 121.451C56.8869 118.633 57.0243 115.711 57.5496 113.056C58.0748 110.4 58.9643 108.131 60.1056 106.534C61.2468 104.937 62.5885 104.085 63.9611 104.085C64.873 104.081 65.7763 104.454 66.6191 105.183C67.4619 105.912 68.2277 106.982 68.8725 108.332C69.5173 109.683 70.0284 111.286 70.3765 113.051C70.7246 114.816 70.9028 116.707 70.9009 118.617Z" fill="#D38884"/>
<path d="M66.6228 140.202C66.6228 140.202 65.1796 143.871 65.4105 146.272H67.1609L68.4413 143.25L66.6228 140.202Z" fill="#67647E"/>
<path opacity="0.1" d="M71.7565 124.708L66.2517 140.556C66.2517 140.556 67.666 144.791 68.3402 145.002C69.0144 145.214 72.8595 126.258 72.8595 126.258L71.7565 124.708Z" fill="black"/>
<path d="M71.8266 124.423L66.3197 140.292C66.3197 140.292 67.7341 144.523 68.4083 144.735C69.0825 144.946 72.9276 125.994 72.9276 125.994L71.8266 124.423Z" fill="#A36468"/>
<path d="M65.6126 144.722C65.6126 144.722 65.3425 153.606 65.0724 155.372C64.8023 157.138 65.0724 173.357 65.0724 173.357L67.6001 171.173L67.1609 146.272L65.6126 144.722Z" fill="#67647E"/>
<path opacity="0.1" d="M69.2617 218.963L69.2844 219.105H69.1319L69.1093 218.963H69.2617Z" fill="black"/>
<path opacity="0.1" d="M89.9698 211.313C89.9698 211.313 89.9224 211.477 89.8441 211.745C89.7657 212.012 89.6812 212.345 89.5719 212.768C89.5664 212.784 89.5615 212.802 89.5575 212.82C89.4049 213.411 89.2235 214.137 89.04 214.927C82.8548 215.384 76.6696 215.993 70.5009 216.429L68.9938 216.532H68.7752L68.1279 211.956V211.909L68.0598 211.425L67.6475 208.55L67.2351 205.628L66.8083 202.511L66.6517 201.38L66.6104 201.095L65.9383 196.303L65.027 189.797L65.3218 183.589L65.3425 183.118L65.6084 177.558L65.6455 175.909L65.6661 175.045V174.799L65.7115 172.796L65.8476 166.838L65.9177 163.791L65.93 163.329L66.0703 157.211L66.4682 154.712L66.6743 153.468L67.132 150.58L67.231 149.868C67.3753 148.784 67.666 146.643 67.9382 144.584L67.9629 144.407L67.9815 144.273L68.1753 142.81L68.4165 140.932C68.5072 140.211 68.567 139.697 68.5814 139.52C68.6041 139.213 68.9938 137.858 69.5051 136.066C70.536 132.496 72.0864 127.242 72.2637 125.481C72.2645 125.466 72.2645 125.452 72.2637 125.438C72.2743 125.33 72.2888 125.225 72.307 125.122C72.3915 124.596 72.5132 124.453 72.641 124.488C72.6992 124.507 72.7548 124.553 72.8039 124.622C72.9281 124.797 73.037 125.016 73.1255 125.269C73.3667 126.241 74.012 127.212 74.5831 127.933L74.6945 128.067L74.7605 128.149C75.2346 128.714 75.6181 129.077 75.6181 129.077C83.1641 138.6 82.694 152.851 83.1311 153.978C83.5682 155.105 83.6032 159.202 83.6032 159.202C83.6032 159.202 84.7145 173.098 85.2196 174.311C85.7247 175.524 85.2547 175.935 85.6918 177.277C86.1288 178.62 86.0278 182.168 86.0278 182.168C86.0278 182.168 86.3309 190.63 87.4092 192.465C88.4875 194.299 89.9698 211.313 89.9698 211.313Z" fill="black"/>
<path d="M90.1719 211.175L90.0812 211.503C90.009 211.771 89.8936 212.194 89.7554 212.725L89.741 212.785C89.5843 213.394 89.3988 214.132 89.2153 214.944H89.0421C82.8569 215.401 76.6717 216.01 70.503 216.446L68.9959 216.55L68.3505 211.956V211.909L68.2825 211.425L67.8557 208.403L67.4434 205.468L67.031 202.536L66.8682 201.362L66.163 196.32L65.2311 189.676L65.4889 184.275L65.5239 183.554L65.8084 177.42L65.9177 172.636L66.0517 166.856L66.0868 165.34L66.1259 163.588L66.1424 162.849L66.2764 157.073L66.6744 154.578L66.8455 153.503L67.2455 150.977L67.33 150.442C67.33 150.442 67.7155 147.606 68.0887 144.795C68.1031 144.692 68.1176 144.588 68.1299 144.484C68.1629 144.243 68.1938 144.001 68.2268 143.764C68.2598 143.522 68.2907 143.284 68.3196 143.047C68.4248 142.261 68.5258 141.527 68.5959 140.923C68.6969 140.133 68.7649 139.559 68.7794 139.373C68.8021 139.067 69.1917 137.672 69.7216 135.859C70.6968 132.483 72.1194 127.656 72.4204 125.653C72.4367 125.55 72.4504 125.445 72.4616 125.338C72.48 125.02 72.5423 124.72 72.641 124.475C72.9173 123.918 73.3276 125.114 73.3276 125.114C73.5688 126.085 74.2141 127.061 74.7852 127.777C75.1189 128.197 75.463 128.579 75.8161 128.921C83.362 138.445 82.8919 152.696 83.329 153.827C83.7661 154.958 83.8012 159.046 83.8012 159.046C83.8012 159.046 84.9124 172.943 85.4176 174.156C85.9227 175.369 85.4526 175.779 85.8897 177.117C86.3268 178.456 86.2258 182.056 86.2258 182.056C86.2258 182.056 86.5288 190.522 87.6071 192.357C88.6854 194.191 90.1719 211.175 90.1719 211.175Z" fill="#444053"/>
<path opacity="0.1" d="M74.7852 128.053C74.045 130.307 72.8389 134.27 72.5173 137.119C72.5173 137.119 71.3379 139.662 70.8988 139.52C70.4596 139.377 71.3111 141.423 71.3111 141.423L66.6784 154.867L67.3361 150.735C67.3361 150.735 68.7175 140.577 68.7793 139.662C68.8412 138.747 72.1956 128.261 72.4616 125.623C72.6678 123.512 73.3275 125.411 73.3275 125.411C73.5667 126.361 74.212 127.341 74.7852 128.053Z" fill="black"/>
<path d="M74.7852 127.773C74.045 130.022 72.8389 133.99 72.5173 136.817C72.5173 136.817 71.3379 139.356 70.8988 139.218C70.4596 139.079 71.3111 141.121 71.3111 141.121L66.6784 154.565L67.3361 150.433C67.3361 150.433 68.7175 140.275 68.7793 139.356C68.8412 138.436 72.1956 127.959 72.4616 125.321C72.6678 123.205 73.3275 125.109 73.3275 125.109C73.5667 126.081 74.212 127.052 74.7852 127.773Z" fill="#444053"/>
<path opacity="0.1" d="M81.0075 155.627C81.0426 158.709 78.886 162.918 78.785 163.164C78.6839 163.411 72.0802 174.821 72.0802 174.821L67.3382 182.436C66.8037 183.359 66.1646 183.977 65.4827 184.232L65.8064 177.419L66.1259 163.605C66.8661 161.878 67.5836 160.065 67.6001 159.486C67.6331 158.29 68.8371 157.017 68.8371 157.017C68.8371 157.017 69.6803 155.536 69.5443 154.69C69.4082 153.844 69.9917 149.79 69.9917 149.79C70.2947 138.289 75.9542 137.163 75.9542 137.163C75.9542 137.163 78.6839 139.42 80.6034 141.816C82.5229 144.212 80.9745 152.549 81.0075 155.627Z" fill="black"/>
<path opacity="0.1" d="M48.4981 180.977L46.8487 181.218C46.1519 178.736 47.1106 172.088 47.1106 172.088H47.2446L48.0878 172.299L48.4981 180.977Z" fill="black"/>
<path d="M75.9542 136.463C75.9542 136.463 70.2947 137.594 69.9916 149.091C69.9916 149.091 69.4185 153.114 69.5525 153.96C69.6865 154.806 68.8453 156.287 68.8453 156.287C68.8453 156.287 67.633 157.556 67.6083 158.757C67.5835 159.957 64.5157 166.501 64.5157 166.501C64.5157 166.501 63.2374 169.549 60.2726 169.869C57.3079 170.188 55.9265 172.088 55.9265 172.088C55.9265 172.088 54.4833 169.972 53.4318 170.607C52.3803 171.242 47.2672 172.088 47.2672 172.088C47.2672 172.088 45.9086 181.516 47.6033 182.108C47.8095 182.177 64.4889 183.377 64.4889 183.377C64.4889 183.377 65.629 184.504 67.3464 181.754C69.0639 179.004 72.0884 174.134 72.0884 174.134C72.0884 174.134 78.686 162.707 78.7932 162.478C78.9004 162.249 81.0611 158.018 81.0157 154.94C80.9704 151.862 82.5332 143.535 80.6034 141.126C78.6736 138.717 75.9542 136.463 75.9542 136.463Z" fill="#444053"/>
<path opacity="0.1" d="M70.9009 118.617C70.9016 120.146 70.7868 121.665 70.5607 123.119C70.4668 122.887 70.3813 122.64 70.3051 122.381C69.9834 121.345 69.6611 120.309 69.3381 119.273C69.0871 118.34 68.7533 117.517 68.3547 116.846C67.9423 116.233 67.3568 115.983 66.9114 116.527C66.5197 117.011 66.328 117.999 66.2929 118.949C66.2809 119.902 66.2926 120.856 66.328 121.807C66.3445 122.171 66.3 122.536 66.2022 122.839C66.0558 123.113 65.8668 123.267 65.6703 123.27L65.0518 123.447C64.9959 123.488 64.9367 123.506 64.8775 123.498C64.8184 123.491 64.7607 123.458 64.7076 123.403C64.6546 123.348 64.6073 123.271 64.5687 123.177C64.5301 123.083 64.5008 122.974 64.4827 122.856C63.9693 120.909 63.6147 118.491 62.6519 117.554C62.0581 116.976 61.2747 117.015 60.8932 115.901C60.6335 115.141 60.6685 114.109 60.7448 113.186C60.8287 112.144 60.9493 111.116 61.1056 110.112C61.2149 109.404 61.4581 107.992 60.918 107.85C60.551 107.75 60.0438 108.566 59.8582 109.145C59.6727 109.723 59.6273 110.496 59.4954 111.157C59.2425 112.293 58.7875 113.178 58.2274 113.622C57.9471 113.863 57.6534 114.03 57.3532 114.118C57.8603 110.821 58.9133 108.011 60.3223 106.196C61.7313 104.38 63.4037 103.679 65.038 104.217C66.6722 104.756 68.1608 106.499 69.2355 109.133C70.3101 111.767 70.9 115.118 70.8988 118.582L70.9009 118.617Z" fill="black"/>
<path d="M59.8603 108.778C59.6727 109.378 59.6294 110.125 59.4974 110.785C59.2449 111.921 58.7907 112.805 58.2315 113.25C57.6759 113.686 57.0868 113.905 56.4935 113.898C55.5327 113.958 54.4606 113.652 53.8421 112.111C54.0676 111.745 54.2565 111.29 54.398 110.771C54.5395 110.253 54.6309 109.681 54.6668 109.089C54.7204 108.165 54.6482 107.133 54.9101 106.377C55.0435 106.047 55.2024 105.765 55.3802 105.544C56.4564 103.99 57.3058 101.857 58.279 100.027C59.2521 98.1966 60.4252 96.6036 61.7324 96.5172C63.4828 96.405 65.0311 98.9866 66.763 99.4744C67.2949 99.6255 67.8433 99.5737 68.3629 99.8543C68.9476 100.235 69.4975 100.818 69.9896 101.581C70.4349 102.121 70.8284 102.83 71.1503 103.671C71.3726 104.405 71.5323 105.214 71.6225 106.062C71.8504 107.854 71.9886 109.69 72.0348 111.541C72.0822 113.475 72.0348 115.426 72.1338 117.351C72.2327 119.277 72.5255 121.237 73.1543 122.662C72.6957 122.965 72.2262 123.192 71.7503 123.339C71.4527 123.487 71.1405 123.436 70.8576 123.193C70.6285 122.888 70.441 122.464 70.3133 121.962L69.3463 118.854C69.0953 117.921 68.7615 117.098 68.3629 116.428C67.9505 115.815 67.365 115.564 66.9197 116.108C66.5279 116.592 66.3383 117.58 66.3012 118.53C66.2892 119.483 66.3009 120.437 66.3362 121.388C66.3527 121.752 66.3083 122.117 66.2104 122.42C66.0635 122.695 65.8736 122.848 65.6764 122.851L65.0579 123.028C65.0021 123.07 64.9428 123.087 64.8837 123.079C64.8246 123.072 64.7668 123.039 64.7138 122.984C64.6607 122.929 64.6135 122.852 64.5749 122.758C64.5363 122.664 64.507 122.555 64.4889 122.437C63.9755 120.486 63.6209 118.072 62.6581 117.136C62.0643 116.557 61.2808 116.596 60.8994 115.482C60.6396 114.722 60.6747 113.691 60.751 112.767C60.8349 111.725 60.9555 110.698 61.1118 109.693C61.221 108.985 61.4643 107.573 60.9242 107.427C60.553 107.344 60.0459 108.16 59.8603 108.778Z" fill="#444053"/>
<path opacity="0.1" d="M75.5584 142.913C76.08 142.762 76.6284 142.663 77.1171 143.081C75.845 141.989 73.775 142.408 72.6163 143.91C72.7214 144.415 75.1543 143.03 75.5584 142.913Z" fill="black"/>
<path opacity="0.1" d="M76.1666 146.453C77.4345 146.63 78.7437 147.001 79.9457 146.138C78.9396 145.412 77.8324 145.87 76.7727 145.65C75.9274 145.473 75.0676 144.86 74.243 145.309C73.8986 145.494 72.6307 146.716 72.7173 147.61C73.8 146.606 74.9884 146.208 76.1666 146.453Z" fill="black"/>
<path opacity="0.1" d="M72.808 152.255C73.0734 152.197 73.3417 152.256 73.5956 152.428C74.5467 152.897 75.5215 153.121 76.4985 153.097C77.2448 153.097 78.0489 152.86 78.5932 151.802L72.808 152.255Z" fill="black"/>
<path opacity="0.1" d="M68.7237 165.764C69.6104 166.616 70.5853 166.987 71.5586 166.843C72.5278 166.693 73.4854 166.308 74.412 165.694C74.8243 165.44 75.2738 165.12 75.515 164.369L68.7237 165.764Z" fill="black"/>
<path opacity="0.1" d="M77.851 167.663C79.7801 169.973 81.9284 171.366 84.1434 171.742C83.0259 170.804 81.9002 169.916 80.7663 169.079C79.6064 168.228 78.4175 167.561 77.2098 167.084C77.4394 167.188 77.6572 167.385 77.851 167.663Z" fill="black"/>
<path opacity="0.1" d="M80.9662 165.189C81.3537 165.324 81.7472 165.369 82.1394 165.323C82.3455 165.323 82.5909 165.263 82.7125 164.891C81.828 164.969 80.9559 164.494 80.0921 164.084C79.8467 163.963 79.4055 163.678 79.1993 163.985C79.5911 164.572 80.4714 164.982 80.9662 165.189Z" fill="black"/>
<path opacity="0.1" d="M86.2835 203.754C86.7474 205.42 87.2174 207.104 87.8586 208.503C88.2292 209.265 88.6239 209.975 89.04 210.627C88.2751 206.543 87.4978 202.424 86.2732 198.854C85.9639 197.956 85.5021 196.669 84.9392 196.505C84.7784 197.503 85.1846 199.268 85.3804 200.205C85.6493 201.423 85.9508 202.607 86.2835 203.754Z" fill="black"/>
<path opacity="0.1" d="M63.7425 173.215C63.7075 173.905 63.6807 174.669 63.8724 175.235C63.9673 175.514 64.106 175.714 64.2642 175.8C64.1652 175.749 64.058 173.72 64.0333 173.443C63.9879 172.878 64.0333 171.82 63.8415 171.401C63.792 171.997 63.7735 172.61 63.7425 173.215Z" fill="black"/>
<path opacity="0.1" d="M64.8146 172.42C64.8827 173.028 65.0093 173.601 65.1865 174.104C65.3637 174.606 65.588 175.028 65.8455 175.343C65.4847 174.41 65.3672 173.184 65.0538 172.161C64.9528 171.833 64.8353 171.363 64.6414 171.298C64.6903 171.678 64.7481 172.052 64.8146 172.42Z" fill="black"/>
<path opacity="0.1" d="M63.9075 159.987C63.6032 160.366 63.265 160.609 62.9138 160.702C62.5626 160.795 62.206 160.735 61.8664 160.527C61.7118 160.432 61.351 160.095 61.4376 159.62C61.5241 159.145 61.9427 159.473 62.1138 159.517L63.0106 159.754C63.1756 159.797 63.7735 160.151 63.9075 159.987Z" fill="black"/>
<path opacity="0.1" d="M60.8726 163.061C61.2953 162.948 61.6746 163.561 62.0705 163.894C62.5085 164.2 62.9703 164.328 63.4312 164.274C63.6621 164.274 63.924 164.235 64.0662 163.842C62.9921 163.328 61.988 162.763 60.8726 163.061Z" fill="black"/>
<path d="M65.9692 137.102H66.0372L66.5424 140.905L65.9692 142.183V137.102Z" fill="#A36468"/>
<g opacity="0.1">
<path opacity="0.1" d="M54.7984 106.947C54.7358 107.564 54.7047 108.194 54.7056 108.824C54.7313 108.626 54.7499 108.424 54.7613 108.22C54.786 107.806 54.7839 107.37 54.7984 106.947Z" fill="black"/>
<path opacity="0.1" d="M60.9489 107.44C60.9989 107.446 61.0478 107.474 61.0924 107.521C61.137 107.569 61.1765 107.635 61.2082 107.716C61.24 107.797 61.2634 107.891 61.2769 107.992C61.2905 108.093 61.2939 108.199 61.287 108.303C61.3839 107.586 61.4375 106.706 61.0169 106.576C60.6499 106.481 60.1428 107.297 59.9572 107.893C59.7716 108.489 59.7263 109.244 59.5943 109.905C59.3423 111.041 58.888 111.926 58.3284 112.37C57.7728 112.805 57.1837 113.025 56.5904 113.017C55.7162 113.073 54.7493 112.819 54.1163 111.61C54.0405 111.779 53.9585 111.935 53.871 112.076C54.4895 113.617 55.5616 113.924 56.5244 113.863C57.1171 113.871 57.7054 113.651 58.2604 113.216C58.8201 112.771 59.275 111.887 59.5284 110.751C59.6603 110.09 59.7015 109.343 59.8892 108.743C60.0768 108.143 60.5819 107.345 60.9489 107.44Z" fill="black"/>
<path opacity="0.1" d="M71.839 122.489C71.5414 122.637 71.2291 122.586 70.9462 122.342C70.7177 122.036 70.5303 121.613 70.4019 121.112C70.0803 120.076 69.758 119.04 69.435 118.004C69.1853 117.071 68.8521 116.247 68.4536 115.578C68.0413 114.96 67.4537 114.714 67.0104 115.258C66.6166 115.742 66.4269 116.73 66.3816 117.68C66.3816 117.719 66.3816 117.758 66.3816 117.797C66.4562 117.1 66.6583 116.492 66.9444 116.104C67.3836 115.56 67.9753 115.811 68.3876 116.424C68.7857 117.095 69.1194 117.918 69.3711 118.85C69.6927 119.886 70.015 120.922 70.338 121.958C70.4651 122.461 70.6527 122.885 70.8823 123.189C71.1645 123.432 71.4761 123.483 71.773 123.335C72.2495 123.187 72.7196 122.961 73.1791 122.658C73.0884 122.452 73.0044 122.234 72.9275 122.006C72.5699 122.215 72.2063 122.376 71.839 122.489Z" fill="black"/>
<path opacity="0.1" d="M66.2949 121.569C66.1478 121.841 65.9592 121.994 65.763 122.001L65.1445 122.178C65.0886 122.219 65.0294 122.236 64.9703 122.229C64.9112 122.221 64.8534 122.189 64.8004 122.134C64.7473 122.079 64.7001 122.002 64.6615 121.908C64.6228 121.814 64.5936 121.705 64.5755 121.587C64.0621 119.635 63.7075 117.222 62.7446 116.285C62.1509 115.707 61.3695 115.746 60.988 114.632C60.7944 113.952 60.729 113.145 60.8045 112.37C60.7942 112.503 60.7798 112.633 60.7695 112.762C60.6953 113.686 60.6582 114.718 60.92 115.478C61.3014 116.592 62.0849 116.553 62.6766 117.131C63.6415 118.068 63.9961 120.481 64.5095 122.433C64.5563 122.678 64.6394 122.885 64.7466 123.024C64.8537 123.099 64.9687 123.11 65.0785 123.054L65.697 122.877C65.8935 122.874 66.0826 122.72 66.229 122.446C66.3278 122.144 66.3723 121.778 66.3547 121.414C66.3367 121.469 66.3168 121.521 66.2949 121.569Z" fill="black"/>
</g>
<path d="M151.628 223.366L150.306 222.982V182.129L150.576 182.302L151.401 182.833V184.193V185.216V186.766L151.411 188.54L151.43 192.193V192.559V193.047V194.083V194.709V196.225V197.174L151.529 215.57V216.062L151.564 222.537V222.637L151.628 223.366Z" fill="#EAECF0"/>
<path d="M152.37 223.582L151.634 223.366V222.628V222.529L151.599 216.053V215.561L151.5 197.166V196.216V194.701V194.075V193.039V192.551V192.184L151.482 188.532L151.471 186.757V185.207V184.184V182.824H152.265V184.327V185.354V186.537V188.104L152.282 192.05V192.914V193.816V194.446V195.219V196.225L152.358 215.531V216.027L152.383 222.447V222.55L152.37 223.582Z" fill="#D3DAE1"/>
<path d="M232.572 177.066V212.328C232.18 212.903 231.779 213.469 231.368 214.024L231.351 184.668V181.551L232.572 177.066Z" fill="#EAECF0"/>
<path d="M233.429 176.556V210.963C233.149 211.434 232.862 211.887 232.572 212.332V177.065L233.429 176.556Z" fill="#D3DAE1"/>
<path d="M214.284 226.526C213.777 226.742 213.268 226.958 212.758 227.144L212.74 195.236V193.855L214.21 192.56V195.487L214.284 226.526Z" fill="#EAECF0"/>
<path d="M215.253 191.549V226.086C214.931 226.233 214.61 226.371 214.288 226.518L214.22 195.491V192.564L214.317 192.469L215.253 191.549Z" fill="#D3DAE1"/>
<path d="M127.867 216.968L126.495 216.679L126.32 180.7V179.673V178.987H127.667V179.915V180.942L127.867 216.968Z" fill="#EAECF0"/>
<path d="M128.887 217.197L127.856 216.968L127.65 180.942V179.915V178.987H128.691V180.105V181.132L128.887 217.197Z" fill="#D3DAE1"/>
<path opacity="0.1" d="M214.307 192.473L215.249 191.545V195.901L214.331 196.544L214.307 192.473Z" fill="black"/>
<path opacity="0.1" d="M233.427 176.547V183.213L232.572 183.813L231.349 184.663L231.347 181.547L232.572 177.061L233.427 176.547Z" fill="black"/>
<path d="M233.427 163.734V182.19L214.331 195.517L214.208 175.779L233.427 163.734Z" fill="#D48A9B"/>
<path d="M126.067 162.452L151.162 152.454L233.427 163.734L214.208 175.779L126.067 162.452Z" fill="#EFC6CD"/>
<path opacity="0.1" d="M128.699 178.987L128.708 181.128L127.669 180.938L126.318 180.696L126.312 178.987H128.699Z" fill="black"/>
<path opacity="0.1" d="M152.213 185.359L151.42 185.212L150.306 185.013V182.129L151.407 182.829H152.203L152.213 185.359Z" fill="black"/>
<path d="M126.067 162.452V179.625L214.331 195.516L214.208 175.779L126.067 162.452Z" fill="#D48A9B"/>
<path d="M196.05 182.872H184.521V174.113L196.05 175.813V182.872Z" fill="#D48A9B"/>
<path opacity="0.1" d="M196.05 182.872H184.521V174.113L196.05 175.813V182.872Z" fill="black"/>
<path opacity="0.1" d="M169.035 172.191V186.032L213.29 193.082V178.343L196.029 176.293L194.314 179.496L187.275 178.473L184.766 174.626L169.035 172.191Z" fill="black"/>
<path d="M168.79 171.678V185.523L213.045 192.568V177.83L195.784 175.779L194.071 178.987L187.03 177.959L184.521 174.113L168.79 171.678Z" fill="white"/>
<path d="M141.49 167.961L151.958 169.502L151.836 176.465H145.002L140.431 172.705L141.49 167.961Z" fill="#D48A9B"/>
<path opacity="0.1" d="M141.49 167.961L151.958 169.502L151.836 176.465H145.002L140.431 172.705L141.49 167.961Z" fill="black"/>
<path opacity="0.1" d="M127.537 166.04V178.473L167.689 185.138V171.937L152.203 170.011L150.55 172.576L144.307 171.807L141.736 168.474L127.537 166.04Z" fill="black"/>
<path d="M127.291 165.526V177.959L167.444 184.625V171.423L151.958 169.502L150.306 172.062L144.061 171.293L141.49 167.961L127.291 165.526Z" fill="white"/>
<path opacity="0.1" d="M213.294 165.573L218.923 166.346L209.598 172.192L204.847 171.475L213.294 165.573Z" fill="black"/>
<path d="M213.294 165.064L218.923 165.832L209.598 171.678L204.847 170.961L213.294 165.064Z" fill="white"/>
<path d="M212.622 166.389C212.845 166.186 213.082 166.562 213.319 166.657C213.453 166.713 213.593 166.657 213.731 166.713C214.007 166.791 214.279 167.175 214.543 166.98L212.622 166.389Z" fill="#D3DAE1"/>
<path d="M212.332 166.739C212.552 166.541 212.789 166.916 213.026 167.011C213.162 167.063 213.302 167.011 213.438 167.063C213.712 167.141 213.986 167.529 214.25 167.335L212.332 166.739Z" fill="#D3DAE1"/>
<path d="M211.664 167.447C211.884 167.249 212.121 167.62 212.358 167.715C212.494 167.771 212.632 167.715 212.77 167.771C213.046 167.849 213.32 168.237 213.582 168.038L211.664 167.447Z" fill="#D3DAE1"/>
<path opacity="0.1" d="M175.319 159.106L187.869 160.829L185.195 168.872L171.398 165.785L175.319 159.106Z" fill="black"/>
<path d="M175.074 158.593L187.624 160.311L184.95 168.358L171.151 165.271L175.074 158.593Z" fill="#3A3768"/>
<path d="M175.627 159.184L186.572 160.587L184.24 167.14L172.206 164.624L175.627 159.184Z" fill="#D5E1F4"/>
<path d="M168.287 224.908C168.287 225.028 168.287 225.154 168.276 225.274C168.266 225.395 168.276 225.49 168.26 225.598C168.216 226.359 168.115 227.101 167.961 227.796C162.776 226.574 157.578 225.106 152.374 223.599L151.638 223.384L150.317 222.999L149.203 222.676C147.985 222.611 146.77 222.373 145.566 221.963C144.808 221.728 144.058 221.397 143.319 220.97C140.02 220.025 136.703 219.114 133.396 218.285L132.965 218.177C133.044 217.443 133.11 216.999 133.11 216.999C133.11 216.999 133.819 211.162 134.408 204.639C134.538 203.223 134.662 201.781 134.769 200.352C134.856 199.208 134.934 198.077 135 196.989C135.037 196.389 135.068 195.802 135.095 195.228C135.109 194.943 135.122 194.658 135.132 194.364C135.142 194.071 135.155 193.751 135.165 193.453C135.175 193.155 135.18 192.892 135.186 192.62V192.214C135.186 191.631 135.186 191.023 135.175 190.397C135.071 187.279 134.836 184.186 134.474 181.154C134.417 180.636 134.357 180.118 134.295 179.613C134.276 179.449 134.256 179.289 134.235 179.129C133.569 173.728 132.792 169.316 132.792 169.316C132.791 169.292 132.791 169.267 132.792 169.243C132.793 169.226 132.793 169.208 132.792 169.191C132.793 169.155 132.793 169.119 132.792 169.083C132.792 168.945 132.792 168.734 132.792 168.479C132.792 168.427 132.792 168.371 132.792 168.315C132.807 167.862 132.844 167.413 132.903 166.976C132.926 166.821 132.952 166.669 132.982 166.519C133.055 166.085 133.178 165.694 133.34 165.381C133.501 165.069 133.697 164.843 133.909 164.723C134.493 164.408 135.375 164.723 136.707 166.376C136.924 166.639 137.131 166.936 137.326 167.266C137.425 167.43 137.532 167.602 137.614 167.788C139.14 170.763 139.952 175.671 140.385 180.152C140.402 180.312 140.416 180.472 140.431 180.631C140.482 181.184 140.526 181.724 140.565 182.255C140.635 183.187 140.691 184.085 140.732 184.918C140.732 185.143 140.754 185.35 140.765 185.579C140.775 185.808 140.785 186.011 140.792 186.218C140.818 186.891 140.837 187.513 140.849 188.04C140.884 189.438 140.878 190.297 140.878 190.297V190.341C140.878 190.341 140.878 190.405 140.868 190.526C140.867 190.538 140.867 190.549 140.868 190.561C140.868 190.613 140.868 190.677 140.868 190.751C140.868 190.824 140.868 190.876 140.868 190.949C140.86 191.131 140.849 191.342 140.837 191.584C140.818 191.955 140.798 192.391 140.773 192.879C140.756 193.242 140.736 193.635 140.715 194.049C140.67 194.912 140.62 195.914 140.567 196.967C140.554 197.166 140.544 197.364 140.534 197.563C140.486 198.465 140.437 199.406 140.385 200.356C140.33 201.436 140.268 202.515 140.208 203.581C140.194 203.814 140.179 204.047 140.167 204.276C140.014 206.866 139.862 209.219 139.738 210.683C139.719 210.9 139.705 211.119 139.697 211.339C139.695 211.414 139.695 211.489 139.697 211.563C139.691 211.759 139.691 211.955 139.697 212.151C139.798 215.837 141.701 216.468 141.701 216.468L150.341 216.109L151.624 216.057L152.37 216.027L159.106 215.747L159.724 215.721L163.075 215.583C163.302 215.571 163.529 215.628 163.749 215.751C164.783 216.333 165.77 217.237 166.677 218.432C166.96 218.812 167.215 219.278 167.433 219.813C167.444 219.834 167.454 219.857 167.462 219.882C167.919 221.029 168.201 222.437 168.272 223.923C168.272 224.023 168.272 224.122 168.272 224.221C168.289 224.428 168.289 224.661 168.287 224.908Z" fill="#3A3768"/>
<path opacity="0.1" d="M168.287 224.908C168.287 225.028 168.287 225.154 168.276 225.275C168.266 225.395 168.276 225.49 168.26 225.598C168.211 226.359 168.107 227.1 167.951 227.796C162.765 226.574 157.568 225.106 152.364 223.599L151.628 223.384L150.306 222.999L149.193 222.676C147.974 222.612 146.759 222.374 145.556 221.963C144.798 221.728 144.048 221.397 143.309 220.97C140.01 220.025 136.693 219.114 133.386 218.285L132.955 218.177C133.033 217.417 133.103 216.955 133.103 216.955C133.103 216.955 133.683 212.207 134.233 206.452C134.272 206.055 134.309 205.658 134.347 205.256L134.402 204.647C134.53 203.236 134.654 201.785 134.763 200.361C134.85 199.217 134.928 198.085 134.994 196.998C135.031 196.397 135.062 195.81 135.089 195.236C135.103 194.951 135.116 194.666 135.126 194.373C135.136 194.079 135.149 193.76 135.159 193.462C135.169 193.164 135.173 192.901 135.179 192.629V192.223C135.179 191.64 135.179 191.031 135.169 190.405C135.068 187.288 134.835 184.195 134.474 181.162C134.417 180.639 134.357 180.125 134.295 179.621C134.274 179.457 134.256 179.297 134.235 179.138C133.567 173.72 132.792 169.282 132.792 169.282C132.793 169.272 132.793 169.262 132.792 169.252C132.793 169.234 132.793 169.217 132.792 169.2C132.793 169.164 132.793 169.128 132.792 169.092C132.792 168.954 132.792 168.742 132.792 168.487C132.792 168.436 132.792 168.38 132.792 168.323C132.805 167.871 132.84 167.423 132.897 166.985C132.92 166.834 132.945 166.679 132.973 166.528C133.048 166.069 133.176 165.658 133.347 165.333C133.518 165.007 133.726 164.778 133.951 164.667C134.534 164.382 135.406 164.736 136.709 166.333C136.935 166.611 137.15 166.926 137.353 167.274C137.449 167.443 137.542 167.611 137.633 167.792C139.146 170.784 139.952 175.684 140.381 180.152C140.398 180.312 140.412 180.476 140.427 180.636C140.478 181.184 140.521 181.728 140.561 182.255C140.631 183.187 140.684 184.081 140.726 184.91C140.736 185.139 140.748 185.363 140.756 185.579C140.765 185.795 140.777 186.011 140.783 186.218C140.81 186.891 140.829 187.513 140.841 188.04C140.876 189.438 140.87 190.297 140.87 190.297V190.444C140.87 190.47 140.87 190.496 140.87 190.526C140.869 190.538 140.869 190.549 140.87 190.561C140.87 190.613 140.87 190.677 140.87 190.751C140.87 190.824 140.87 190.876 140.87 190.949C140.862 191.131 140.851 191.342 140.839 191.584C140.82 191.955 140.8 192.391 140.775 192.879C140.754 193.237 140.736 193.63 140.715 194.049C140.67 194.912 140.62 195.914 140.567 196.967C140.554 197.166 140.544 197.365 140.534 197.563C140.486 198.465 140.435 199.415 140.385 200.365C140.326 201.444 140.266 202.523 140.204 203.585C140.189 203.819 140.177 204.052 140.163 204.28C140.012 206.871 139.862 209.189 139.738 210.644C139.718 210.877 139.704 211.112 139.697 211.348C139.695 211.422 139.695 211.497 139.697 211.572C139.691 211.768 139.691 211.964 139.697 212.159C139.814 215.803 141.701 216.412 141.701 216.412L150.341 216.058L151.622 216.001L152.37 215.971L159.118 215.695L159.749 215.669L163.087 215.531C163.315 215.515 163.542 215.572 163.761 215.699C164.803 216.265 165.798 217.16 166.712 218.354C167 218.74 167.258 219.214 167.479 219.762C167.489 219.783 167.499 219.806 167.507 219.831C167.964 220.983 168.243 222.398 168.307 223.889C168.307 223.988 168.307 224.087 168.307 224.187C168.289 224.428 168.289 224.662 168.287 224.908Z" fill="black"/>
<path d="M168.301 227.86L167.961 227.778C162.776 226.557 157.578 225.089 152.374 223.582L151.638 223.366L150.317 222.982L149.203 222.658C147.985 222.594 146.77 222.356 145.566 221.946C144.808 221.711 144.058 221.38 143.319 220.953C140.02 220.008 136.703 219.097 133.396 218.268C133.45 217.662 133.519 217.063 133.602 216.472C133.602 216.472 135.561 200.322 135.683 191.735C135.726 188.665 135.435 184.866 135.041 181.244C134.984 180.722 134.926 180.204 134.864 179.695L134.808 179.211C134.109 173.534 133.279 168.785 133.279 168.785C133.259 168.198 133.275 167.607 133.326 167.028C133.339 166.873 133.355 166.718 133.375 166.566C133.455 165.843 133.641 165.19 133.907 164.701C133.92 164.679 133.933 164.659 133.947 164.641C134.489 163.777 135.462 163.717 137.194 165.841C137.545 166.275 137.869 166.795 138.161 167.391C138.243 167.555 138.326 167.728 138.404 167.905C139.796 171.06 140.534 175.896 140.921 180.221L140.965 180.7C141.01 181.24 141.049 181.771 141.086 182.285C141.086 182.285 141.086 182.315 141.086 182.328C141.134 183.01 141.173 183.662 141.206 184.284C141.302 186.114 141.352 187.955 141.354 189.797C141.354 189.797 141.274 191.502 141.148 193.958C141.101 194.921 141.045 196 140.985 197.14C140.985 197.196 140.985 197.252 140.985 197.313L140.954 197.917C140.849 199.907 140.734 202.031 140.616 204C140.604 204.242 140.589 204.479 140.575 204.712C140.443 206.927 140.311 208.895 140.202 210.178C139.773 215.177 142.16 215.945 142.16 215.945L150.313 215.608L151.591 215.557L152.339 215.522H152.653H152.754L159.219 215.254H159.838L163.549 215.099C163.776 215.087 164.004 215.145 164.223 215.272C165.266 215.837 166.261 216.731 167.175 217.922C167.432 218.269 167.665 218.684 167.87 219.157C167.883 219.184 167.895 219.213 167.905 219.243C168.39 220.416 168.688 221.876 168.759 223.42C168.83 224.964 168.67 226.515 168.301 227.86Z" fill="#3A3768"/>
<path d="M197.446 149.824L199.967 161.135H199.545L196.588 149.958L197.446 149.824Z" fill="#4C4C56"/>
<path opacity="0.1" d="M197.446 149.824L199.967 161.135H199.545L196.588 149.958L197.446 149.824Z" fill="black"/>
<path d="M197.446 161.135H199.967V162.318L197.446 162.452V161.135Z" fill="#4C4C56"/>
<path opacity="0.1" d="M197.446 161.135H199.967V162.318L197.446 162.452V161.135Z" fill="black"/>
<path d="M177.833 108.204V147.701C177.833 148.478 177.98 149.224 178.243 149.773C178.505 150.323 178.861 150.632 179.233 150.632H210.674C210.859 150.632 211.042 150.555 211.213 150.405C211.383 150.255 211.538 150.035 211.668 149.759C211.797 149.482 211.899 149.154 211.967 148.794C212.036 148.434 212.069 148.049 212.066 147.662L211.709 108.13C211.702 107.367 211.552 106.64 211.292 106.106C211.032 105.571 210.682 105.272 210.317 105.272H179.233C179.049 105.272 178.867 105.348 178.697 105.495C178.527 105.643 178.373 105.859 178.243 106.131C178.113 106.403 178.01 106.726 177.939 107.082C177.869 107.437 177.833 107.819 177.833 108.204Z" fill="#4C4C56"/>
<path opacity="0.1" d="M177.833 108.204V147.701C177.833 148.478 177.98 149.224 178.243 149.773C178.505 150.323 178.861 150.632 179.233 150.632H210.674C210.859 150.632 211.042 150.555 211.213 150.405C211.383 150.255 211.538 150.035 211.668 149.759C211.797 149.482 211.899 149.154 211.967 148.794C212.036 148.434 212.069 148.049 212.066 147.662L211.709 108.13C211.702 107.367 211.552 106.64 211.292 106.106C211.032 105.571 210.682 105.272 210.317 105.272H179.233C179.049 105.272 178.867 105.348 178.697 105.495C178.527 105.643 178.373 105.859 178.243 106.131C178.113 106.403 178.01 106.726 177.939 107.082C177.869 107.437 177.833 107.819 177.833 108.204Z" fill="black"/>
<path d="M176.699 108.204V147.701C176.699 148.478 176.846 149.224 177.109 149.773C177.371 150.323 177.727 150.632 178.099 150.632H209.54C209.725 150.632 209.908 150.555 210.079 150.405C210.249 150.255 210.404 150.035 210.533 149.758C210.662 149.482 210.764 149.154 210.832 148.794C210.9 148.434 210.933 148.049 210.93 147.662L210.573 108.13C210.566 107.368 210.416 106.642 210.157 106.107C209.897 105.573 209.547 105.273 209.183 105.272H178.107C177.922 105.27 177.739 105.344 177.569 105.49C177.398 105.637 177.242 105.852 177.112 106.125C176.981 106.397 176.877 106.721 176.806 107.078C176.735 107.435 176.699 107.817 176.699 108.204Z" fill="#4C4C56"/>
<path d="M177.936 110.673V145.447C177.936 146.224 178.083 146.97 178.346 147.52C178.608 148.069 178.964 148.378 179.336 148.378H208.449C208.818 148.378 209.172 148.071 209.433 147.525C209.694 146.978 209.841 146.237 209.841 145.464V110.651C209.84 109.879 209.694 109.139 209.433 108.593C209.172 108.048 208.818 107.741 208.449 107.741H179.336C178.964 107.741 178.608 108.05 178.346 108.6C178.083 109.15 177.936 109.895 177.936 110.673Z" fill="#6C63FF"/>
<path d="M190.533 149.984L193.298 161.135H199.545L196.421 148.378L190.533 149.984Z" fill="#4C4C56"/>
<path d="M188.331 161.135L187.869 162.318H197.446V161.135H188.331Z" fill="#4C4C56"/>
<path d="M147.302 114.542C147.471 116.454 147.64 118.368 147.95 120.192C147.95 120.194 147.95 120.195 147.951 120.197C147.952 120.208 147.954 120.219 147.956 120.23C147.959 120.248 147.963 120.268 147.966 120.296C147.927 120.266 147.892 120.221 147.861 120.162C147.8 120.026 147.756 119.862 147.731 119.683C147.416 117.845 147.245 115.921 147.073 114.002C146.864 111.661 146.656 109.327 146.189 107.163C146.054 106.604 145.936 106.027 145.837 105.436C145.818 105.311 145.802 105.185 145.789 105.056L145.837 104.996L145.888 104.953L145.94 104.923L145.991 104.897C146.002 105.279 146.034 105.657 146.086 106.023C146.185 106.614 146.301 107.19 146.434 107.75C146.891 109.899 147.097 112.219 147.302 114.542Z" fill="url(#paint1_linear)"/>
<path d="M154.844 122.463C154.52 123.229 154.253 124.093 154.053 125.027C154.022 125.17 153.991 125.308 153.962 125.459C153.051 129.776 152.741 135.885 152.741 135.885C152.741 135.885 152.176 135.354 151.376 134.525C149.886 132.979 147.585 130.406 146.655 128.356C146.243 127.428 146.094 126.607 146.437 126.033C146.511 125.908 146.587 125.766 146.663 125.602C146.927 125.05 147.168 124.452 147.383 123.814C147.68 122.951 147.973 121.988 148.249 121C148.412 120.421 148.566 119.838 148.711 119.273L148.768 119.048C149.387 116.592 149.838 114.494 149.838 114.494C149.838 114.494 150.045 114.632 150.379 114.878C151.919 116.031 156.16 119.532 154.844 122.463Z" fill="#EFB7B9"/>
<path d="M183.065 222.486C183.065 222.486 183.317 226.397 183.636 230.524L182.904 230.447C180.947 230.234 178.988 229.962 177.026 229.631C175.913 224.23 174.759 217.819 174.759 217.72C174.759 217.62 174.724 215.509 174.684 213.152C174.672 212.323 174.658 211.469 174.645 210.666C174.625 209.448 174.606 208.352 174.596 207.67C174.596 207.203 174.583 206.927 174.583 206.927C174.583 206.927 173.524 207.316 172.571 207.588L172.148 207.704C171.93 207.76 171.736 207.803 171.561 207.829C171.41 207.878 171.256 207.878 171.105 207.829C170.779 207.566 171.456 200.922 171.456 200.922L173.138 192.396L173.608 190.021L173.814 189.913C173.915 189.862 174.051 189.801 174.214 189.736C175.82 189.119 180.111 188.333 180.839 197.201C181.74 208.153 181.869 210.614 181.869 210.614L183.065 222.486Z" fill="#EFB7B9"/>
<path opacity="0.05" d="M183.065 222.486C183.065 222.486 183.317 226.397 183.636 230.524L182.904 230.447C180.947 230.234 178.988 229.962 177.026 229.631C175.913 224.23 174.759 217.819 174.759 217.72C174.759 217.62 174.724 215.509 174.684 213.152C174.672 212.323 174.658 211.469 174.645 210.666C174.625 209.448 174.606 208.352 174.596 207.67C174.596 207.203 174.583 206.927 174.583 206.927C174.583 206.927 173.524 207.316 172.571 207.588L172.148 207.704C171.93 207.76 171.736 207.803 171.561 207.829C171.41 207.878 171.256 207.878 171.105 207.829C170.779 207.566 171.456 200.922 171.456 200.922L173.138 192.396L173.608 190.021L173.814 189.913C173.915 189.862 174.051 189.801 174.214 189.736C175.82 189.119 180.111 188.333 180.839 197.201C181.74 208.153 181.869 210.614 181.869 210.614L183.065 222.486Z" fill="black"/>
<path d="M182.904 230.446C180.947 230.233 178.988 229.961 177.026 229.63L176.284 229.505L175.956 229.449C175.033 224.782 174.212 220.219 174.212 220.137C174.212 220.055 174.177 217.927 174.138 215.569C174.091 212.625 174.037 209.344 174.037 209.344L173.899 209.392L173.841 209.413H173.816H173.767L173.435 209.53L173.253 209.59C172.926 209.703 172.53 209.828 172.142 209.944L172.056 209.97L171.829 210.031L171.623 210.082C171.464 210.126 171.313 210.16 171.177 210.186L171.01 210.216C170.859 210.267 170.706 210.267 170.555 210.216C170.229 209.953 170.905 203.309 170.905 203.309L173.058 192.408L173.132 192.365C173.245 192.305 173.484 192.188 173.808 192.072C173.93 192.028 174.064 191.985 174.208 191.946C176.076 191.446 179.63 191.588 180.288 199.588C181.189 210.54 181.319 213.001 181.319 213.001L182.521 224.907C182.521 224.907 182.678 227.368 182.904 230.446Z" fill="#EFB7B9"/>
<path opacity="0.1" d="M174.138 215.57C174.091 212.626 174.037 209.34 174.037 209.34C174.037 209.34 171.975 210.096 171.014 210.243L171.208 208.87C171.208 208.87 174.738 206.828 174.812 207.98C174.866 208.788 174.412 213.079 174.138 215.57Z" fill="black"/>
<path opacity="0.1" d="M174.212 189.715V192.836C174.212 192.836 174.037 198.448 172.66 207.035C172.631 207.22 172.6 207.402 172.567 207.583C172.422 208.409 172.252 209.214 172.056 209.992C171.668 210.104 171.293 210.199 171.014 210.242C170.863 210.291 170.71 210.291 170.559 210.242C170.233 209.979 170.907 203.335 170.907 203.335L173.06 192.439L173.136 192.396L173.604 190.017C173.604 190.017 173.835 189.861 174.212 189.715Z" fill="black"/>
<path d="M173.812 189.222V192.836C173.812 192.836 173.637 198.448 172.26 207.039C172.225 207.263 172.186 207.471 172.146 207.7C172.107 207.928 172.056 208.2 172.004 208.442C171.891 209.016 171.763 209.573 171.629 210.108C170.551 214.387 168.907 217.447 167.864 219.131C167.712 219.377 167.569 219.593 167.452 219.774H167.441C167.235 220.068 167.087 220.28 166.992 220.405C166.897 220.53 166.889 220.539 166.889 220.539C165.912 219.282 163.135 219.071 163.135 219.071L156.652 221.536C155.236 222.047 153.806 222.387 152.37 222.555L151.634 222.628C151.209 222.663 150.768 222.684 150.317 222.688C149.952 222.688 149.581 222.688 149.203 222.658C147.985 222.594 146.77 222.356 145.567 221.946C144.905 221.718 144.249 221.414 143.604 221.035C143.143 220.768 142.69 220.451 142.245 220.085C137.709 216.355 138.891 207.51 139.656 203.68C139.697 203.477 139.736 203.292 139.773 203.119C139.942 202.338 140.068 201.88 140.068 201.88L140.369 200.356L140.862 197.857L140.971 197.308L141.002 197.149L141.367 195.297L146.521 193.898L150.309 192.87L151.461 192.56L152.242 192.348L153.733 191.942L154.294 191.791C154.64 191.679 154.989 191.621 155.339 191.618C155.528 191.6 155.717 191.659 155.896 191.791C156.308 192.184 159.45 191.109 159.45 191.109C159.45 191.109 161.902 189.538 164.054 190.06C165.119 190.214 166.187 190.228 167.252 190.103L167.516 190.077L167.858 190.047H167.932C170.72 189.775 173.812 189.222 173.812 189.222Z" fill="#444053"/>
<path opacity="0.1" d="M155.267 200.067C155.267 200.067 152.793 211.857 152.69 212.064C152.587 212.271 152.591 215.949 152.69 215.733C152.789 215.518 156.22 199.596 156.22 199.596L155.267 200.067Z" fill="black"/>
<path opacity="0.1" d="M167.254 190.095C167.254 190.095 166.002 191.787 165.627 193.151C165.252 194.515 161.823 208.084 160.974 210.074C160.268 211.854 159.632 213.75 159.071 215.742C158.972 216.101 158.972 218.354 159.572 216.204C160.172 214.054 160.023 213.692 161.199 211.024C162.374 208.356 163.673 202.325 164.176 201.12C164.679 199.916 165.378 196.298 166.254 194.148L167.932 190.043L167.254 190.095Z" fill="black"/>
<path opacity="0.1" d="M167.554 213.377C167.554 213.377 166.678 212.121 165.854 214.266C165.03 216.41 167.554 213.377 167.554 213.377Z" fill="black"/>
<path opacity="0.1" d="M168.631 214.024C168.631 214.024 167.905 216.675 167.555 216.886C167.204 217.098 168.631 214.024 168.631 214.024Z" fill="black"/>
<path opacity="0.1" d="M167.554 214.685C167.554 214.685 166.979 216.782 166.479 216.57L167.554 214.685Z" fill="black"/>
<path d="M163.504 158.04C163.504 158.04 168.808 157.57 169.334 157.203C169.86 156.836 174.513 155.579 174.513 155.579C174.513 155.579 188.302 157.621 184.374 160.086C180.447 162.551 175.115 161.498 175.115 161.498C175.115 161.498 169.909 164.33 169.109 165.815C168.309 167.3 162.403 167.335 162.403 167.335L163.504 158.04Z" fill="#EFB7B9"/>
<path opacity="0.05" d="M163.504 158.04C163.504 158.04 168.808 157.57 169.334 157.203C169.86 156.836 174.513 155.579 174.513 155.579C174.513 155.579 188.302 157.621 184.374 160.086C180.447 162.551 175.115 161.498 175.115 161.498C175.115 161.498 169.909 164.33 169.109 165.815C168.309 167.3 162.403 167.335 162.403 167.335L163.504 158.04Z" fill="black"/>
<path d="M144.633 132.733C144.633 132.733 139.777 136.187 142.13 144.994C144.482 153.801 147.511 157.945 147.511 157.945L155.318 169.264C155.318 169.264 158.597 173.193 160.098 171.57L162.549 171.138L162.961 157.669C162.961 157.669 160.9 161.023 158.656 156.374C156.413 151.724 153.651 148.564 153.426 146.052C153.201 143.539 147.459 130.583 144.633 132.733Z" fill="#A36468"/>
<path d="M159.972 161.239C159.972 161.239 162.5 163.126 162.401 163.229C162.302 163.333 159.972 165.168 159.972 165.168L160.147 172.347L163.576 171.954C163.576 171.954 164.827 158.882 163.751 157.57L159.972 157.203V161.239Z" fill="#67647E"/>
<path opacity="0.1" d="M159.972 161.239C159.972 161.239 162.5 163.126 162.401 163.229C162.302 163.333 159.972 165.168 159.972 165.168L160.147 172.347L163.576 171.954C163.576 171.954 164.827 158.882 163.751 157.57L159.972 157.203V161.239Z" fill="black"/>
<path opacity="0.1" d="M154.844 122.463C154.52 123.229 154.253 124.093 154.053 125.027C154.022 125.17 153.991 125.308 153.962 125.459C152.121 125.459 150.797 122.463 149.667 119.782C149.461 119.286 148.939 120.037 148.768 119.48C148.75 119.415 148.731 119.35 148.711 119.286L148.768 119.061C149.387 116.605 149.838 114.507 149.838 114.507C149.838 114.507 150.045 114.645 150.379 114.891C151.919 116.031 156.16 119.532 154.844 122.463Z" fill="black"/>
<path d="M160.205 112.037C160.204 115.462 159.558 118.748 158.407 121.18C157.256 123.613 155.692 124.995 154.057 125.027H153.997C153.116 125.028 152.245 124.636 151.442 123.877C150.64 123.118 149.923 122.009 149.341 120.624C149.133 120.129 148.943 119.602 148.772 119.048C148.251 117.348 147.927 115.417 147.824 113.408C147.722 111.4 147.844 109.369 148.182 107.477C148.52 105.584 149.063 103.883 149.77 102.507C150.476 101.132 151.326 100.12 152.252 99.5523C153.178 98.9846 154.154 98.8764 155.103 99.2365C156.053 99.5966 156.949 100.415 157.721 101.627C158.493 102.839 159.119 104.41 159.55 106.217C159.981 108.024 160.205 110.017 160.205 112.037Z" fill="#EFB7B9"/>
<path opacity="0.1" d="M153.892 192.624C153.892 192.624 153.42 193.833 152.898 194.96C152.504 195.823 152.084 196.613 151.814 196.816C151.195 197.291 148.36 201.794 148.36 201.794C148.36 201.794 146.109 204.993 145.533 205.934C144.958 206.875 142.88 206.301 142.88 206.301C142.88 206.301 140.88 205.386 139.641 203.711C139.761 203.095 139.899 202.496 140.053 201.915L141.354 195.31L146.509 193.915L153.892 192.624Z" fill="black"/>
<path d="M153.791 191.787C153.791 191.787 153.321 192.995 152.799 194.122C152.405 194.986 151.974 195.776 151.715 195.979C151.096 196.449 148.261 200.956 148.261 200.956C148.261 200.956 146.008 204.155 145.432 205.096C144.857 206.037 142.781 205.463 142.781 205.463C142.781 205.463 139.928 204.168 138.926 201.794C138.225 200.14 138.95 197.075 139.445 195.387C139.651 194.666 139.827 194.196 139.827 194.196L153.791 191.787Z" fill="#67647E"/>
<path d="M157.496 151.176C155.793 150.861 150.187 136.498 150.187 136.498L150.315 136.131L151.49 132.725H154.238L154.541 135.867C156.632 142.006 157.863 146.276 158.197 148.719C158.438 150.498 158.209 151.31 157.496 151.176Z" fill="#67647E"/>
<path opacity="0.1" d="M157.496 151.176C155.793 150.861 150.187 136.498 150.187 136.498L150.315 136.131C151.32 138.062 152.264 140.127 153.141 142.313C157.244 152.424 158.056 149.6 158.197 148.719C158.438 150.498 158.209 151.31 157.496 151.176Z" fill="black"/>
<path opacity="0.1" d="M153.791 191.787C153.791 191.787 153.321 192.995 152.799 194.122C152.524 194.345 152.234 194.476 151.939 194.511C151.288 194.459 149.787 196.609 149.787 196.609C149.787 196.609 147.135 196.294 146.634 196.868C146.133 197.442 144.206 197.55 144.206 197.55C140.678 199.657 139.703 196.458 139.445 195.391C139.651 194.67 139.827 194.2 139.827 194.2L153.791 191.787Z" fill="black"/>
<path d="M159.918 160.583C159.918 160.786 159.9 160.989 159.887 161.183C159.875 161.377 159.863 161.576 159.848 161.762C159.781 162.828 159.629 163.863 159.397 164.822C158.947 166.394 157.57 172.524 157.57 172.524L157.477 173.655L157.43 174.247L157.38 174.829L157.044 178.961L156.894 183.731C156.894 183.731 156.069 186.14 155.718 187.185C155.368 188.23 155.417 189.754 155.543 190.854C155.669 191.955 154.393 192.111 154.393 192.111C154.393 192.111 152.591 193.945 151.939 193.894C151.288 193.842 149.787 195.983 149.787 195.983C149.787 195.983 147.135 195.668 146.634 196.246C146.133 196.825 144.206 196.929 144.206 196.929C140.429 199.178 139.577 195.353 139.402 194.567C139.227 193.781 140.152 190.587 140.152 190.587C140.152 190.587 140.359 186.55 140.752 186.235C141.146 185.92 141.629 180.58 141.629 180.58C141.629 180.58 141.478 178.952 141.804 178.063C142.13 177.174 142.105 174.657 142.53 173.452C142.954 172.248 142.08 168.211 142.231 167.162C142.381 166.113 141.754 161.869 141.804 160.769C141.853 159.668 141.68 158.778 141.278 156.577C140.936 154.699 141.033 146.354 141.072 143.962C141.072 143.556 141.082 143.323 141.082 143.323C141.082 143.323 141.433 140.962 142.358 136.248C143.059 132.677 144.637 131.326 145.36 130.886C145.484 130.807 145.61 130.743 145.738 130.691C145.919 130.746 146.097 130.84 146.27 130.972C146.999 131.486 148.459 132.941 150.541 137.016C151.463 138.824 152.332 140.744 153.145 142.766C157.84 154.319 158.223 148.927 158.223 148.927C158.223 148.927 158.43 149.911 159.397 153.84C159.914 155.929 160.009 158.424 159.918 160.583Z" fill="#A36468"/>
<path opacity="0.1" d="M152.189 132.09L147.48 124.224C147.48 124.224 145.783 124.656 145.082 130.622L149.929 139.511L152.189 132.09Z" fill="black"/>
<path d="M152.189 132.09L151.364 134.503L150.527 136.977L149.896 138.915L146.026 132.09L145.36 130.881L144.987 130.217C145.364 126.992 146.035 125.381 146.568 124.604C146.811 124.216 147.093 123.951 147.393 123.832L152.189 132.09Z" fill="#67647E"/>
<path d="M184.572 163.229C180.643 165.69 175.313 164.645 175.313 164.645C175.313 164.645 170.107 167.473 169.307 168.962C168.792 169.908 166.159 170.257 164.359 170.4C163.359 170.478 162.611 170.482 162.611 170.482L163.71 161.187L164.345 161.127C165.769 160.989 169.128 160.635 169.54 160.345C170.066 159.978 174.719 158.722 174.719 158.722C174.719 158.722 188.5 160.764 184.572 163.229Z" fill="#EFB7B9"/>
<path opacity="0.1" d="M159.848 161.74C159.782 162.806 159.629 163.841 159.397 164.8C158.947 166.372 157.57 172.502 157.57 172.502L157.38 174.829C156.741 174.332 156.121 173.734 155.525 173.042L147.711 161.709C147.711 161.709 144.682 157.569 142.33 148.758C139.977 139.947 144.833 136.498 144.833 136.498C147.659 134.339 153.391 147.29 153.616 149.807C153.84 152.324 156.595 155.467 158.846 160.129C159.143 160.761 159.48 161.302 159.848 161.74Z" fill="black"/>
<path opacity="0.1" d="M159.918 160.583C159.9 160.993 159.877 161.386 159.848 161.761C159.782 162.828 159.629 163.863 159.397 164.822C158.947 166.394 157.57 172.524 157.57 172.524L157.477 173.655C156.801 173.144 156.146 172.521 155.519 171.79L147.711 160.453C147.711 160.453 144.682 156.313 142.33 147.502C139.977 138.691 144.833 135.237 144.833 135.237C147.659 133.079 153.391 146.03 153.616 148.547C153.84 151.064 156.595 154.206 158.846 158.873C159.161 159.552 159.522 160.128 159.918 160.583Z" fill="black"/>
<path d="M163.151 160.82L162.751 174.285L160.298 174.717C160.244 174.776 160.188 174.827 160.131 174.868C158.568 176.068 155.518 172.412 155.518 172.412L147.711 161.079C147.711 161.079 144.682 156.939 142.33 148.128C139.977 139.317 144.833 135.868 144.833 135.868C147.659 133.709 153.391 146.66 153.615 149.177C153.84 151.694 156.595 154.837 158.846 159.499C159.176 160.194 159.556 160.777 159.972 161.226C160.469 161.773 161.028 162.024 161.588 161.953C162.149 161.881 162.689 161.489 163.151 160.82Z" fill="#A36468"/>
<path opacity="0.1" d="M163.151 160.82L162.751 174.285L160.298 174.717C160.244 174.776 160.188 174.827 160.131 174.868L159.972 168.323C159.972 168.323 162.3 166.489 162.401 166.385C162.502 166.281 159.972 164.395 159.972 164.395V161.265C160.471 161.806 161.031 162.051 161.591 161.972C162.152 161.894 162.691 161.496 163.151 160.82Z" fill="black"/>
<path opacity="0.1" d="M164.349 170.378C163.349 170.456 162.601 170.46 162.601 170.46L163.71 161.187L164.345 161.127C164.753 162.599 164.578 166.925 164.349 170.378Z" fill="black"/>
<path d="M160.172 164.382C160.172 164.382 162.7 166.268 162.601 166.372C162.502 166.476 160.172 168.31 160.172 168.31L160.347 175.49L163.776 175.097C163.776 175.097 165.027 162.025 163.951 160.712L160.172 160.345V164.382Z" fill="#67647E"/>
<path opacity="0.1" d="M145.183 172.977C145.183 172.977 144.331 174.652 143.63 175.097L145.183 172.977Z" fill="black"/>
<path opacity="0.1" d="M143.156 177.955C143.156 177.955 145.232 177.795 145.482 176.906C145.731 176.016 143.156 177.955 143.156 177.955Z" fill="black"/>
<path opacity="0.1" d="M142.13 184.188C142.255 184.188 144.756 183.455 144.857 182.772L142.13 184.188Z" fill="black"/>
<path opacity="0.1" d="M141.354 188.173C142.255 188.117 143.781 186.075 143.781 186.075L141.354 188.173Z" fill="black"/>
<path opacity="0.1" d="M147.185 189.218C147.185 189.218 152.616 189.218 152.865 187.124C153.115 185.03 147.185 189.218 147.185 189.218Z" fill="black"/>
<path opacity="0.1" d="M151.263 159.926C151.364 159.926 155.543 159.926 155.943 158.722C156.343 157.518 151.263 159.926 151.263 159.926Z" fill="black"/>
<path opacity="0.1" d="M146.661 125.614C146.695 126.043 146.713 126.476 146.715 126.91C146.715 127.392 146.694 127.873 146.653 128.347C146.57 129.248 146.44 130.127 146.265 130.968L146.222 131.179C146.16 131.481 146.094 131.775 146.026 132.068C145.72 133.377 145.358 134.625 144.946 135.798C144.005 138.415 142.917 140.785 141.705 142.857C141.495 143.228 141.282 143.595 141.068 143.958C141.068 143.552 141.078 143.319 141.078 143.319C141.078 143.319 141.429 140.957 142.354 136.243C143.055 132.673 144.633 131.322 145.356 130.881L144.983 130.216C145.36 126.992 146.03 125.381 146.564 124.604C146.597 124.924 146.637 125.26 146.661 125.614Z" fill="black"/>
<path opacity="0.1" d="M159.298 105.289C159.234 105.322 159.173 105.373 159.116 105.44C158.725 105.894 158.611 106.969 158.292 107.647C157.922 108.445 157.345 108.566 156.819 108.704C156.294 108.842 155.706 109.114 155.428 110.06C155.222 110.763 155.24 111.648 155.166 112.46C155.158 112.606 155.13 112.744 155.086 112.857C155.015 112.978 154.925 113.039 154.834 113.03C153.803 113.181 153.053 112.438 152.088 111.916C151.634 111.674 151.106 111.705 150.76 112.348C150.447 112.939 150.36 113.906 150.368 114.791V114.869C150.413 115.729 150.425 116.595 150.405 117.459C150.358 118.128 150.235 118.763 150.048 119.313C149.861 119.863 149.614 120.312 149.327 120.624C149.086 120.894 148.821 121.053 148.548 121.09C148.443 121.113 148.336 121.08 148.239 120.995C148.422 120.339 148.597 119.7 148.758 119.048C148.311 117.6 148.005 115.98 147.86 114.282C147.715 112.584 147.732 110.843 147.911 109.16C148.091 107.476 148.428 105.885 148.904 104.477C149.38 103.069 149.985 101.874 150.684 100.961C151.383 100.048 152.161 99.4349 152.974 99.1581C153.787 98.8812 154.618 98.9459 155.419 99.3483C156.22 99.7508 156.975 100.483 157.639 101.502C158.304 102.521 158.865 103.807 159.289 105.285L159.298 105.289Z" fill="black"/>
<path d="M160.997 103.632C160.921 103.985 160.802 104.291 160.652 104.517C160.182 105.156 159.508 104.452 159.017 105.022C158.624 105.475 158.512 106.55 158.193 107.228C157.826 108.027 157.248 108.147 156.721 108.286C156.193 108.424 155.609 108.696 155.329 109.641C155.123 110.345 155.143 111.226 155.067 112.042C155.06 112.188 155.032 112.326 154.987 112.439C154.915 112.558 154.826 112.619 154.735 112.611C153.704 112.762 152.954 112.016 151.989 111.498C151.537 111.256 151.01 111.286 150.663 111.929C150.317 112.573 150.263 113.492 150.269 114.377C150.312 115.26 150.325 116.149 150.309 117.036C150.237 117.988 150.016 118.863 149.679 119.521C149.343 120.179 148.911 120.582 148.453 120.667C148.386 120.688 148.318 120.681 148.253 120.646C148.187 120.611 148.126 120.549 148.072 120.464C148.012 120.329 147.969 120.166 147.946 119.989C147.259 115.948 147.265 111.463 146.433 107.543C146.298 106.984 146.182 106.407 146.084 105.816C146.068 105.695 146.051 105.57 146.039 105.445C146.014 105.196 145.998 104.943 145.989 104.69C145.904 104.715 145.823 104.785 145.754 104.892C145.73 104.936 145.708 104.985 145.688 105.039C145.57 105.452 145.51 105.927 145.515 106.408C145.361 111.805 145.611 117.219 146.257 122.454C146.454 123.761 146.574 125.114 146.614 126.482C146.591 127.961 146.423 129.415 146.119 130.752C144.826 136.994 142.229 141.566 139.645 145.698C139.911 145.102 140.116 144.399 140.247 143.633C140.379 142.866 140.435 142.051 140.412 141.238C140.368 141.549 140.283 141.827 140.168 142.044C140.053 142.26 139.911 142.405 139.759 142.464C139.453 142.573 139.141 142.562 138.837 142.434C139.233 142.162 139.388 141.186 139.487 140.34C139.689 138.613 139.876 136.871 140.049 135.112C140.234 133.434 140.355 131.727 140.412 130.009C140.443 128.55 140.39 127.087 140.361 125.623C140.3 121.61 140.368 117.593 140.567 113.6C140.719 110.146 140.996 106.412 142.206 104.055C142.728 103.131 143.312 102.369 143.938 101.793C143.938 101.361 145.449 100.498 145.649 100.437C145.732 100.403 145.816 100.383 145.901 100.377C146.009 100.344 146.119 100.383 146.215 100.49C146.312 100.596 146.39 100.763 146.439 100.968C146.513 100.688 146.595 100.411 146.682 100.148C146.801 99.7855 146.932 99.4408 147.074 99.1161C147.859 97.303 148.878 96.0251 149.787 94.4882C150.121 93.8614 150.482 93.3033 150.867 92.8218C151.371 92.292 151.923 91.9974 152.486 91.9584C153.416 91.8483 154.348 92.1544 155.218 92.8564C156.471 93.8666 157.566 95.6797 158.863 96.4136C159.183 96.5588 159.499 96.7419 159.809 96.9619C160.106 97.2084 160.376 97.5825 160.6 98.0602C160.825 98.5379 160.999 99.1086 161.111 99.7356C161.224 100.363 161.273 101.032 161.254 101.701C161.236 102.37 161.151 103.023 161.005 103.619L160.997 103.632Z" fill="#444053"/>
<g opacity="0.1">
<path opacity="0.1" d="M140.117 142.3C140.268 141.489 140.332 140.62 140.305 139.752C140.26 140.063 140.175 140.342 140.059 140.558C139.944 140.774 139.802 140.92 139.649 140.978C139.571 141.018 139.491 141.043 139.41 141.052C139.307 141.743 139.144 142.407 138.829 142.623C139.132 142.753 139.445 142.765 139.75 142.658C139.883 142.59 140.008 142.469 140.117 142.3Z" fill="black"/>
<path opacity="0.1" d="M161.145 100.191C161.13 100.873 161.045 101.541 160.898 102.151C160.819 102.496 160.7 102.793 160.551 103.014C160.083 103.653 159.407 102.954 158.916 103.519C158.524 103.972 158.411 105.052 158.092 105.725C157.722 106.524 157.145 106.649 156.619 106.783C156.094 106.917 155.506 107.215 155.228 108.138C155.022 108.842 155.04 109.727 154.966 110.539C154.964 110.624 154.954 110.707 154.936 110.783C154.918 110.86 154.893 110.927 154.861 110.981C154.83 111.036 154.794 111.075 154.754 111.098C154.715 111.121 154.674 111.126 154.634 111.113C153.603 111.264 152.853 110.517 151.888 109.995C151.434 109.753 150.906 109.783 150.56 110.427C150.247 111.022 150.16 111.985 150.168 112.874C150.211 113.756 150.224 114.644 150.205 115.529C150.136 116.484 149.916 117.362 149.579 118.022C149.242 118.681 148.809 119.084 148.35 119.164C148.283 119.185 148.215 119.177 148.149 119.142C148.084 119.108 148.022 119.046 147.968 118.961C147.909 118.825 147.866 118.661 147.843 118.482C147.156 114.441 147.16 109.956 146.327 106.04C146.195 105.48 146.079 104.904 145.981 104.314C145.928 103.947 145.896 103.569 145.884 103.187C145.766 103.216 145.657 103.342 145.583 103.536C145.467 103.951 145.407 104.424 145.41 104.905C145.314 108.364 145.383 111.835 145.616 115.266C145.467 112.379 145.433 109.47 145.515 106.571C145.51 106.09 145.57 105.616 145.688 105.203C145.724 105.105 145.77 105.023 145.821 104.963C145.873 104.903 145.93 104.865 145.989 104.853C146 105.235 146.032 105.613 146.084 105.98C146.183 106.57 146.299 107.147 146.432 107.707C147.257 111.627 147.257 116.108 147.946 120.149C147.97 120.327 148.014 120.491 148.074 120.628C148.126 120.719 148.186 120.788 148.252 120.829C148.317 120.87 148.385 120.882 148.453 120.865C148.911 120.781 149.343 120.377 149.679 119.719C150.016 119.061 150.237 118.187 150.308 117.235C150.325 116.347 150.312 115.459 150.269 114.575C150.269 113.686 150.35 112.723 150.663 112.127C151.009 111.471 151.537 111.445 151.989 111.696C152.954 112.214 153.7 112.961 154.735 112.81C154.826 112.817 154.915 112.756 154.987 112.637C155.032 112.523 155.06 112.383 155.067 112.235C155.143 111.424 155.121 110.539 155.329 109.839C155.609 108.894 156.195 108.618 156.72 108.479C157.246 108.341 157.826 108.225 158.195 107.426C158.506 106.748 158.617 105.673 159.019 105.216C159.508 104.65 160.184 105.354 160.654 104.715C160.804 104.489 160.923 104.183 160.999 103.83C161.27 102.702 161.322 101.398 161.145 100.191Z" fill="black"/>
<path opacity="0.1" d="M146.515 125.01C146.492 126.489 146.324 127.942 146.022 129.279C144.865 134.861 142.664 139.109 140.365 142.895C140.267 144.025 140.019 145.073 139.647 145.917C142.229 141.79 144.83 137.218 146.121 130.976C146.424 129.639 146.593 128.186 146.616 126.706C146.611 126.075 146.576 125.445 146.511 124.828C146.513 124.872 146.515 124.941 146.515 125.01Z" fill="black"/>
</g>
<path opacity="0.1" d="M146.773 100.144C146.587 101.931 146.331 104.253 146.14 105.449C146.116 105.2 146.1 104.947 146.09 104.694C146.006 104.719 145.925 104.789 145.857 104.897C145.857 103.64 145.929 101.771 145.991 100.372C146.1 100.339 146.21 100.379 146.307 100.485C146.404 100.591 146.483 100.759 146.531 100.964C146.597 100.688 146.686 100.411 146.773 100.144Z" fill="black"/>
<path d="M146.674 100.144C146.488 101.931 146.232 104.253 146.041 105.449C146.016 105.2 146 104.948 145.991 104.694C145.906 104.719 145.825 104.789 145.756 104.897C145.756 103.64 145.828 101.771 145.892 100.372C146 100.34 146.11 100.379 146.207 100.485C146.304 100.591 146.382 100.759 146.43 100.964C146.505 100.688 146.597 100.411 146.674 100.144Z" fill="#67647E"/>
<g opacity="0.7">
<path opacity="0.7" d="M188.657 3.25488H222.813V72.8205H188.657V3.25488Z" fill="#2E001E"/>
<path opacity="0.7" d="M187.112 -0.0129395V76.0714H224.374V-0.0129395H187.112ZM188.665 3.24214H222.822V72.8207H188.657L188.665 3.24214Z" fill="#FF2BC2"/>
<path opacity="0.7" d="M214.173 31.9594C213.887 31.7141 213.58 31.6022 213.272 31.6313C211.317 31.6313 210.012 34.7871 210.012 40.0194C210.012 46.0029 211.348 48.4075 213.086 48.4075C213.451 48.4305 213.815 48.3089 214.158 48.0491V31.9594H214.173ZM207.212 40.2827C207.212 32.7062 209.54 26.7875 213.36 26.7875C213.629 26.7753 213.899 26.7984 214.166 26.8566V18.4037C214.166 18.3167 214.183 18.2332 214.212 18.1717C214.242 18.1102 214.282 18.0756 214.323 18.0756H216.822C216.946 18.0756 216.977 18.1749 216.977 18.3389V48.0491C216.967 49.1137 216.994 50.1783 217.055 51.2352C217.055 51.464 217.055 51.4985 216.962 51.5935C215.721 52.8325 214.363 53.4769 212.987 53.4801C209.618 53.4801 207.214 49.1241 207.214 40.2827H207.212ZM201.918 35.0159L206.27 52.6555C206.348 52.9145 206.301 53.1735 206.177 53.1735H203.476C203.407 53.1919 203.336 53.1589 203.277 53.0801C203.217 53.0014 203.173 52.8818 203.151 52.7418C202.157 48.4506 201.143 43.9968 200.108 39.3804H200.077C199.145 43.7364 198.12 48.4852 197.126 52.7634C197.101 52.8739 197.062 52.9668 197.012 53.0304C196.962 53.0941 196.904 53.1258 196.846 53.1217H194.269C194.114 53.1217 194.1 52.8584 194.176 52.6641L198.429 35.5339L194.316 18.5505C194.297 18.5083 194.284 18.455 194.28 18.3975C194.276 18.3401 194.279 18.2811 194.291 18.2284C194.303 18.1757 194.322 18.1317 194.346 18.1021C194.37 18.0726 194.398 18.0588 194.425 18.0626H197.095C197.25 18.0626 197.328 18.1274 197.374 18.421C198.353 22.7381 199.347 27.0033 200.279 31.3722H200.31C201.209 27.081 202.202 22.7381 203.151 18.4987C203.227 18.2353 203.274 18.067 203.429 18.067H205.93C206.054 18.067 206.099 18.2612 206.023 18.5548L201.924 35.0374L201.918 35.0159Z" fill="#FF2BC2"/>
</g>
<g opacity="0.7">
<path opacity="0.7" d="M47.0796 31.2688L58.7532 79.1065L39.1337 31.2688H47.0796Z" fill="#EA6C00"/>
<path opacity="0.7" d="M70.4287 31.2688L58.7552 79.1065L78.3747 31.2688H70.4287Z" fill="#EA6C00"/>
<path opacity="0.7" d="M47.0797 31.2688H70.4246L58.7532 79.1065L47.0797 31.2688Z" fill="#FDAD00"/>
<path opacity="0.7" d="M58.7532 4.75757L47.694 7.20536L47.0755 31.2688L58.7532 4.75757Z" fill="#FDD231"/>
<path opacity="0.7" d="M58.7531 4.75757L69.8102 7.20536L70.4287 31.2688L58.7531 4.75757Z" fill="#FDD231"/>
<path opacity="0.7" d="M78.3747 31.2688L69.8144 7.20532L70.4329 31.2688H78.3747Z" fill="#FDAD00"/>
<path opacity="0.7" d="M39.1337 31.2688L47.694 7.20532L47.0755 31.2688H39.1337Z" fill="#FDAD00"/>
<path opacity="0.7" d="M58.7532 4.75757L47.0797 31.2688H70.4246L58.7532 4.75757Z" fill="#FEEEB7"/>
</g>
</g>
<defs>
<linearGradient id="paint0_linear" x1="10482.3" y1="65077.3" x2="25654.2" y2="65077.3" gradientUnits="userSpaceOnUse">
<stop stop-color="#808080" stop-opacity="0.25"/>
<stop offset="0.54" stop-color="#808080" stop-opacity="0.12"/>
<stop offset="1" stop-color="#808080" stop-opacity="0.1"/>
</linearGradient>
<linearGradient id="paint1_linear" x1="-46891.4" y1="41401.5" x2="-46891.4" y2="22533.3" gradientUnits="userSpaceOnUse">
<stop stop-color="#808080" stop-opacity="0.25"/>
<stop offset="0.54" stop-color="#808080" stop-opacity="0.12"/>
<stop offset="1" stop-color="#808080" stop-opacity="0.1"/>
</linearGradient>
<clipPath id="clip0">
<rect width="240" height="240" fill="white"/>
</clipPath>
</defs>
</svg>
