<svg width="240" height="240" viewBox="0 0 240 240" fill="none" xmlns="http://www.w3.org/2000/svg">
<g clip-path="url(#clip0)">
<path d="M58.4209 62.3625H24.5557C23.1094 62.3625 21.937 63.7727 21.937 65.5121V144.863C21.937 146.603 23.1094 148.013 24.5557 148.013H58.4209C59.8672 148.013 61.0396 146.603 61.0396 144.863V65.5121C61.0396 63.7727 59.8672 62.3625 58.4209 62.3625Z" fill="url(#paint0_linear)"/>
<path d="M57.5201 63.771H25.4565C24.0103 63.771 22.8378 65.1811 22.8378 66.9206V142.873C22.8378 144.613 24.0103 146.023 25.4565 146.023H57.5201C58.9664 146.023 60.1388 144.613 60.1388 142.873V66.9206C60.1388 65.1811 58.9664 63.771 57.5201 63.771Z" fill="white"/>
<path d="M56.0946 121.927L56.0504 83.8708C56.0412 75.8961 49.5688 69.4421 41.5941 69.4555C33.6193 69.4689 27.162 75.9446 27.1712 83.9193L27.2154 121.975C27.2247 129.95 33.697 136.404 41.6718 136.391C49.6465 136.377 56.1038 129.902 56.0946 121.927Z" fill="#E6E6E6"/>
<path d="M41.6781 144.051C42.9493 144.049 43.9784 142.777 43.9766 141.21C43.9748 139.642 42.9427 138.374 41.6715 138.376C40.4002 138.378 39.3711 139.65 39.3729 141.217C39.3747 142.785 40.4068 144.053 41.6781 144.051Z" fill="#DBDBDB"/>
<path d="M37.2179 66.9064C37.4724 66.906 37.6785 66.6518 37.6781 66.3388C37.6778 66.0257 37.4711 65.7722 37.2166 65.7727C36.962 65.7731 36.756 66.0272 36.7563 66.3403C36.7567 66.6534 36.9633 66.9068 37.2179 66.9064Z" fill="#DBDBDB"/>
<path d="M46.1649 65.8981L39.55 65.9092C39.4054 65.9095 39.2883 66.0507 39.2885 66.2246L39.2887 66.4451C39.2889 66.6191 39.4063 66.7599 39.551 66.7596L46.1659 66.7485C46.3105 66.7483 46.4276 66.6071 46.4274 66.4331L46.4271 66.2126C46.4269 66.0387 46.3095 65.8979 46.1649 65.8981Z" fill="#DBDBDB"/>
<path d="M49.8079 120.744V116.446C49.8079 111.931 46.1476 108.271 41.6323 108.271C37.117 108.271 33.4567 111.931 33.4567 116.446V120.744C33.4567 125.259 37.117 128.92 41.6323 128.92C46.1476 128.92 49.8079 125.259 49.8079 120.744Z" fill="url(#paint1_linear)"/>
<path d="M49.0983 120.558V116.633C49.0983 112.511 45.7563 109.169 41.6337 109.169C37.511 109.169 34.169 112.511 34.169 116.633V120.558C34.169 124.68 37.511 128.022 41.6337 128.022C45.7563 128.022 49.0983 124.68 49.0983 120.558Z" fill="#6C63FF"/>
<path d="M41.5785 114.015H41.4374C40.4459 114.015 39.6421 114.819 39.6421 115.81C39.6421 116.802 40.4459 117.606 41.4374 117.606H41.5785C42.57 117.606 43.3738 116.802 43.3738 115.81C43.3738 114.819 42.57 114.015 41.5785 114.015Z" fill="#F55F44"/>
<path d="M41.8287 115.999H41.25C40.7944 115.999 40.4251 116.443 40.4251 116.991V118.358C40.4251 118.906 40.7944 119.35 41.25 119.35H41.8287C42.2843 119.35 42.6536 118.906 42.6536 118.358V116.991C42.6536 116.443 42.2843 115.999 41.8287 115.999Z" fill="#FDA57D"/>
<path d="M41.5354 119.249C41.3474 119.249 41.2295 119.452 41.3225 119.615C41.4154 119.778 41.6493 119.78 41.7456 119.62C41.8433 119.456 41.7257 119.249 41.5354 119.249Z" fill="#FDA57D"/>
<path opacity="0.1" d="M38.7937 121.89C38.7937 121.89 38.3511 127.187 38.6365 127.531L38.7937 121.89Z" fill="black"/>
<path opacity="0.1" d="M44.2668 121.89C44.2668 121.89 44.7093 127.187 44.4239 127.531L44.2668 121.89Z" fill="black"/>
<path opacity="0.05" d="M41.5407 117.629C41.6417 117.629 41.7419 117.619 41.8406 117.6C42.3975 117.491 42.6594 116.792 42.2637 116.386C42.0622 116.178 41.8058 116.064 41.5407 116.064C41.2756 116.064 41.0192 116.178 40.8177 116.386C40.422 116.792 40.6839 117.491 41.2408 117.6C41.3394 117.619 41.4397 117.629 41.5407 117.629Z" fill="black"/>
<path d="M41.5407 117.147C42.7541 117.147 43.7378 115.964 43.7378 114.504C43.7378 113.045 42.7541 111.862 41.5407 111.862C40.3273 111.862 39.3436 113.045 39.3436 114.504C39.3436 115.964 40.3273 117.147 41.5407 117.147Z" fill="#F55F44"/>
<path d="M41.5407 117.561C42.5661 117.561 43.3974 116.561 43.3974 115.328C43.3974 114.094 42.5661 113.094 41.5407 113.094C40.5153 113.094 39.684 114.094 39.684 115.328C39.684 116.561 40.5153 117.561 41.5407 117.561Z" fill="#FDA57D"/>
<path d="M39.6788 115.467C39.7511 115.467 39.8097 115.34 39.8097 115.184C39.8097 115.027 39.7511 114.9 39.6788 114.9C39.6064 114.9 39.5478 115.027 39.5478 115.184C39.5478 115.34 39.6064 115.467 39.6788 115.467Z" fill="#FDA57D"/>
<path d="M43.4052 115.467C43.4775 115.467 43.5361 115.34 43.5361 115.184C43.5361 115.027 43.4775 114.9 43.4052 114.9C43.3329 114.9 43.2743 115.027 43.2743 115.184C43.2743 115.34 43.3329 115.467 43.4052 115.467Z" fill="#FDA57D"/>
<path d="M53.5754 73.7822H29.6893C29.3258 73.7822 29.0311 74.0769 29.0311 74.4404C29.0311 74.804 29.3258 75.0987 29.6893 75.0987H53.5754C53.9389 75.0987 54.2336 74.804 54.2336 74.4404C54.2336 74.0769 53.9389 73.7822 53.5754 73.7822Z" fill="white"/>
<path d="M53.5753 76.4146H29.6894C29.3258 76.4146 29.0311 76.7093 29.0311 77.0729C29.0311 77.4365 29.3258 77.7312 29.6894 77.7312H53.5753C53.9389 77.7312 54.2336 77.4365 54.2336 77.0729C54.2336 76.7093 53.9389 76.4146 53.5753 76.4146Z" fill="white"/>
<path d="M42.6185 79.0515H29.6894C29.3258 79.0515 29.0311 79.3463 29.0311 79.7099C29.0311 80.0734 29.3258 80.3682 29.6894 80.3682H42.6185C42.9821 80.3682 43.2769 80.0734 43.2769 79.7099C43.2769 79.3463 42.9821 79.0515 42.6185 79.0515Z" fill="white"/>
<path d="M49.1916 81.6899H29.6894C29.3258 81.6899 29.0311 81.9847 29.0311 82.3482C29.0311 82.7118 29.3258 83.0065 29.6894 83.0065H49.1916C49.5551 83.0065 49.8499 82.7118 49.8499 82.3482C49.8499 81.9847 49.5551 81.6899 49.1916 81.6899Z" fill="white"/>
<path d="M45.9051 84.3247H29.6893C29.3258 84.3247 29.0311 84.6194 29.0311 84.983C29.0311 85.3465 29.3258 85.6412 29.6893 85.6412H45.9051C46.2687 85.6412 46.5634 85.3465 46.5634 84.983C46.5634 84.6194 46.2687 84.3247 45.9051 84.3247Z" fill="white"/>
<path d="M53.5753 86.9595H29.6893C29.3258 86.9595 29.0311 87.2542 29.0311 87.6177C29.0311 87.9813 29.3258 88.276 29.6893 88.276H53.5753C53.9389 88.276 54.2336 87.9813 54.2336 87.6177C54.2336 87.2542 53.9389 86.9595 53.5753 86.9595Z" fill="white"/>
<path d="M46.7735 90.9146H35.3992C32.4882 90.9146 30.1283 93.2744 30.1283 96.1854C30.1283 99.0964 32.4882 101.456 35.3992 101.456H46.7735C49.6845 101.456 52.0443 99.0964 52.0443 96.1854C52.0443 93.2744 49.6845 90.9146 46.7735 90.9146Z" fill="white"/>
<path d="M176.568 143.993C181.232 143.985 184.258 141.65 185.107 146.235C186.9 155.91 178.5 184.391 168.66 184.407L166.383 184.411L164.131 184.415C154.284 184.431 145.8 155.977 147.574 146.291C148.414 141.706 151.441 144.034 156.102 144.026L176.568 143.993Z" fill="#E0E0E0"/>
<path d="M207.12 184.336L125.6 184.473C123.832 184.476 122.401 185.911 122.403 187.679C122.405 189.446 123.84 190.876 125.607 190.873L207.127 190.736C208.895 190.734 210.326 189.298 210.324 187.531C210.322 185.763 208.887 184.333 207.12 184.336Z" fill="url(#paint2_linear)"/>
<path d="M207.469 184.336L125.309 184.474C123.945 184.476 122.841 185.584 122.842 186.948C122.844 188.311 123.951 189.415 125.315 189.413L207.474 189.275C208.838 189.273 209.942 188.165 209.941 186.801C209.939 185.438 208.832 184.334 207.469 184.336Z" fill="#F5F5F5"/>
<path d="M191.93 46.2263H140.922C119.081 46.2263 101.376 63.9318 101.376 85.7727C101.376 107.614 119.081 125.319 140.922 125.319H191.93C213.771 125.319 231.476 107.614 231.476 85.7727C231.476 63.9318 213.771 46.2263 191.93 46.2263Z" fill="#E6E6E6"/>
<path d="M220.276 69.0102V62.9556C220.276 56.5964 215.121 51.4412 208.761 51.4412C202.402 51.4412 197.247 56.5964 197.247 62.9556V69.0102C197.247 75.3694 202.402 80.5246 208.761 80.5246C215.121 80.5246 220.276 75.3694 220.276 69.0102Z" fill="url(#paint3_linear)"/>
<path d="M219.275 68.7474V63.2214C219.275 57.4146 214.568 52.7073 208.761 52.7073C202.955 52.7073 198.247 57.4146 198.247 63.2214V68.7474C198.247 74.5542 202.955 79.2616 208.761 79.2616C214.568 79.2616 219.275 74.5542 219.275 68.7474Z" fill="#6C63FF"/>
<path d="M208.379 61.8269H208.183C207.37 61.8269 206.711 62.6194 206.711 63.5969V64.778C206.711 65.7556 207.37 66.5481 208.183 66.5481H208.379C209.192 66.5481 209.851 65.7556 209.851 64.778V63.5969C209.851 62.6194 209.192 61.8269 208.379 61.8269Z" fill="#FDA57D"/>
<path opacity="0.05" d="M206.154 64.9399C205.855 65.0738 205.714 65.4178 205.832 65.7227L206.252 66.8039C206.441 67.2929 207.086 67.3982 207.422 66.995C207.601 66.7788 207.631 66.4752 207.498 66.228L206.946 65.2081C206.793 64.9251 206.447 64.8082 206.154 64.9399Z" fill="black"/>
<path d="M206.085 64.8119C205.841 64.9453 205.733 65.239 205.833 65.4987L206.284 66.6666C206.473 67.1566 207.119 67.2627 207.455 66.8588C207.635 66.6422 207.665 66.3378 207.53 66.0903L206.951 65.0234C206.81 64.7643 206.501 64.6476 206.224 64.7489C206.177 64.7665 206.13 64.7875 206.085 64.8119Z" fill="white"/>
<path opacity="0.05" d="M210.422 64.8208C210.714 64.9463 210.856 65.2786 210.746 65.5766L210.297 66.7871C210.115 67.2788 209.469 67.3897 209.133 66.9868C208.956 66.7741 208.925 66.4753 209.054 66.2306L209.659 65.0898C209.804 64.8152 210.136 64.6982 210.422 64.8208Z" fill="black"/>
<path d="M210.71 64.7943C210.824 64.8638 210.873 65.0044 210.826 65.1297L210.268 66.6406C210.086 67.1332 209.439 67.2441 209.103 66.8403C208.927 66.6276 208.896 66.3292 209.025 66.0847L209.79 64.6413C209.846 64.5356 209.971 64.4867 210.084 64.5266C210.297 64.5998 210.506 64.6892 210.71 64.7943Z" fill="white"/>
<path d="M208.272 66.4014C208.007 66.4014 207.841 66.6875 207.972 66.9175C208.103 67.1463 208.431 67.1501 208.567 66.9243C208.706 66.6943 208.54 66.4014 208.272 66.4014Z" fill="#FDA57D"/>
<path opacity="0.1" d="M204.409 70.1221C204.409 70.1221 203.786 77.5835 204.189 78.0685L204.409 70.1221Z" fill="black"/>
<path opacity="0.1" d="M212.119 70.1221C212.119 70.1221 212.742 77.5835 212.339 78.0685L212.119 70.1221Z" fill="black"/>
<path d="M208.28 63.4361C209.988 63.4361 211.372 61.7708 211.372 59.7165C211.372 57.6622 209.988 55.9968 208.28 55.9968C206.571 55.9968 205.187 57.6622 205.187 59.7165C205.187 61.7708 206.571 63.4361 208.28 63.4361Z" fill="black"/>
<path d="M208.28 64.0285C209.724 64.0285 210.896 62.6198 210.896 60.8821C210.896 59.1443 209.724 57.7356 208.28 57.7356C206.835 57.7356 205.663 59.1443 205.663 60.8821C205.663 62.6198 206.835 64.0285 208.28 64.0285Z" fill="#FDA57D"/>
<path opacity="0.05" d="M206.944 57.4174C206.541 57.5974 206.399 58.0977 206.647 58.4624C206.764 58.634 206.949 58.7459 207.156 58.7607C207.922 58.8155 209.799 58.8821 210.06 58.2478C210.292 57.6856 209.255 57.2369 208.618 57.0199C208.319 56.9177 207.994 56.948 207.705 57.0773L206.944 57.4174Z" fill="black"/>
<path d="M206.944 57.3295C206.541 57.5095 206.399 58.0098 206.647 58.3745C206.764 58.5461 206.949 58.658 207.156 58.6728C207.922 58.7276 209.799 58.7942 210.06 58.1599C210.292 57.5977 209.255 57.149 208.618 56.932C208.319 56.8298 207.994 56.8601 207.705 56.9894L206.944 57.3295Z" fill="black"/>
<path d="M205.658 61.0742C205.759 61.0742 205.841 60.8965 205.841 60.6774C205.841 60.4582 205.759 60.2805 205.658 60.2805C205.557 60.2805 205.475 60.4582 205.475 60.6774C205.475 60.8965 205.557 61.0742 205.658 61.0742Z" fill="#FDA57D"/>
<path d="M210.906 61.0742C211.007 61.0742 211.089 60.8965 211.089 60.6774C211.089 60.4582 211.007 60.2805 210.906 60.2805C210.805 60.2805 210.723 60.4582 210.723 60.6774C210.723 60.8965 210.805 61.0742 210.906 61.0742Z" fill="#FDA57D"/>
<path d="M220.409 103.899V97.8441C220.409 91.4848 215.254 86.3296 208.895 86.3296C202.536 86.3296 197.38 91.4848 197.38 97.8441V103.899C197.38 110.258 202.536 115.413 208.895 115.413C215.254 115.413 220.409 110.258 220.409 103.899Z" fill="url(#paint4_linear)"/>
<path d="M219.409 103.636V98.1096C219.409 92.3028 214.702 87.5955 208.895 87.5955C203.088 87.5955 198.381 92.3028 198.381 98.1096V103.636C198.381 109.442 203.088 114.15 208.895 114.15C214.702 114.15 219.409 109.442 219.409 103.636Z" fill="#6C63FF"/>
<path d="M208.489 99.7368H209.301C210.089 99.7368 210.87 99.9236 211.599 100.287C212.327 100.65 212.989 101.181 213.547 101.852C214.104 102.523 214.547 103.319 214.848 104.195C215.15 105.071 215.306 106.01 215.306 106.959V107.787C215.306 111.331 212.433 114.203 208.89 114.203C205.346 114.203 202.474 111.331 202.474 107.787V106.959C202.474 105.043 203.106 103.207 204.233 101.852C205.359 100.498 206.886 99.7368 208.479 99.7368H208.489Z" fill="white"/>
<path d="M208.861 97.2195H208.664C207.852 97.2195 207.193 98.012 207.193 98.9896V100.171C207.193 101.148 207.852 101.941 208.664 101.941H208.861C209.674 101.941 210.333 101.148 210.333 100.171V98.9896C210.333 98.012 209.674 97.2195 208.861 97.2195Z" fill="#FDB797"/>
<path d="M208.755 101.796C208.491 101.796 208.325 102.082 208.456 102.312C208.587 102.54 208.916 102.544 209.051 102.318C209.189 102.088 209.023 101.796 208.755 101.796Z" fill="#FDB797"/>
<path opacity="0.1" d="M204.893 105.513C204.893 105.513 204.27 112.974 204.674 113.459L204.893 105.513Z" fill="black"/>
<path opacity="0.1" d="M212.603 105.513C212.603 105.513 213.226 112.974 212.823 113.459L212.603 105.513Z" fill="black"/>
<path d="M208.764 98.8288C210.472 98.8288 211.857 97.1635 211.857 95.1091C211.857 93.0548 210.472 91.3894 208.764 91.3894C207.056 91.3894 205.671 93.0548 205.671 95.1091C205.671 97.1635 207.056 98.8288 208.764 98.8288Z" fill="#FDD835"/>
<path d="M208.764 99.4214C210.209 99.4214 211.38 98.0126 211.38 96.2749C211.38 94.5371 210.209 93.1284 208.764 93.1284C207.319 93.1284 206.148 94.5371 206.148 96.2749C206.148 98.0126 207.319 99.4214 208.764 99.4214Z" fill="#FDB797"/>
<path d="M206.14 96.4668C206.241 96.4668 206.323 96.2891 206.323 96.0699C206.323 95.8508 206.241 95.6731 206.14 95.6731C206.039 95.6731 205.957 95.8508 205.957 96.0699C205.957 96.2891 206.039 96.4668 206.14 96.4668Z" fill="#FDB797"/>
<path d="M211.391 96.4668C211.492 96.4668 211.574 96.2891 211.574 96.0699C211.574 95.8508 211.492 95.6731 211.391 95.6731C211.289 95.6731 211.207 95.8508 211.207 96.0699C211.207 96.2891 211.289 96.4668 211.391 96.4668Z" fill="#FDB797"/>
<path d="M208.895 92.6535C209.475 92.6535 209.945 92.088 209.945 91.3904C209.945 90.6929 209.475 90.1274 208.895 90.1274C208.315 90.1274 207.845 90.6929 207.845 91.3904C207.845 92.088 208.315 92.6535 208.895 92.6535Z" fill="#FDD835"/>
<path d="M209.197 92.6533C208.053 92.6533 207.463 93.8632 208.568 94.1647C208.922 94.2615 209.337 94.2979 209.82 94.2338C210.418 94.1544 210.602 93.4374 210.217 92.9736C210.048 92.7707 209.798 92.6533 209.534 92.6533H209.197Z" fill="#FDD835"/>
<path d="M168.177 56.1516H113.335C112.499 56.1516 111.822 56.8292 111.822 57.665C111.822 58.5008 112.499 59.1784 113.335 59.1784H168.177C169.013 59.1784 169.69 58.5008 169.69 57.665C169.69 56.8292 169.013 56.1516 168.177 56.1516Z" fill="white"/>
<path d="M168.177 62.2014H113.335C112.499 62.2014 111.822 62.879 111.822 63.7149C111.822 64.5507 112.499 65.2283 113.335 65.2283H168.177C169.013 65.2283 169.69 64.5507 169.69 63.7149C169.69 62.879 169.013 62.2014 168.177 62.2014Z" fill="white"/>
<path d="M143.016 68.2554H113.335C112.499 68.2554 111.822 68.9329 111.822 69.7687C111.822 70.6045 112.499 71.282 113.335 71.282H143.016C143.852 71.282 144.529 70.6045 144.529 69.7687C144.529 68.9329 143.852 68.2554 143.016 68.2554Z" fill="white"/>
<path d="M158.113 74.3054H113.335C112.499 74.3054 111.822 74.983 111.822 75.8189C111.822 76.6547 112.499 77.3323 113.335 77.3323H158.113C158.949 77.3323 159.626 76.6547 159.626 75.8189C159.626 74.983 158.949 74.3054 158.113 74.3054Z" fill="white"/>
<path d="M150.563 80.3594H113.335C112.499 80.3594 111.822 81.0369 111.822 81.8726C111.822 82.7084 112.499 83.3859 113.335 83.3859H150.563C151.399 83.3859 152.077 82.7084 152.077 81.8726C152.077 81.0369 151.399 80.3594 150.563 80.3594Z" fill="white"/>
<path d="M168.177 86.4089H113.335C112.499 86.4089 111.822 87.0865 111.822 87.9223C111.822 88.7581 112.499 89.4357 113.335 89.4357H168.177C169.013 89.4357 169.69 88.7581 169.69 87.9223C169.69 87.0865 169.013 86.4089 168.177 86.4089Z" fill="white"/>
<path d="M152.553 95.491H126.442C119.757 95.491 114.338 100.91 114.338 107.595C114.338 114.28 119.757 119.699 126.442 119.699H152.553C159.238 119.699 164.657 114.28 164.657 107.595C164.657 100.91 159.238 95.491 152.553 95.491Z" fill="white"/>
<path d="M36.3425 192.326V192.326C21.0569 192.326 8.66534 179.934 8.66534 164.648V92.531C8.66534 47.3702 45.2753 10.7603 90.4361 10.7603H157.076C165.432 10.7603 172.207 17.5345 172.207 25.891V25.891" stroke="#3AD29F" stroke-width="6" stroke-miterlimit="10" stroke-dasharray="12 12"/>
<g opacity="0.5">
<path opacity="0.5" d="M9.50594 22.8661C14.7559 22.8661 19.0119 17.7474 19.0119 11.4331C19.0119 5.11876 14.7559 0 9.50594 0C4.25595 0 0 5.11876 0 11.4331C0 17.7474 4.25595 22.8661 9.50594 22.8661Z" fill="url(#paint5_linear)"/>
</g>
<path d="M9.50592 22.1939C14.4464 22.1939 18.4515 17.3769 18.4515 11.4348C18.4515 5.49277 14.4464 0.675781 9.50592 0.675781C4.56544 0.675781 0.560394 5.49277 0.560394 11.4348C0.560394 17.3769 4.56544 22.1939 9.50592 22.1939Z" fill="#69F0AE"/>
<path d="M5.61796 11.0156C5.9343 10.8631 6.31326 10.9369 6.54921 11.197L7.32706 12.0544C8.39996 13.237 10.3157 13.0231 11.1013 11.6329L13.5296 7.33568C13.8947 6.68961 14.7754 6.56996 15.2996 7.09521C15.6708 7.46713 15.734 8.04691 15.4516 8.49003L11.8376 14.161C10.712 15.9274 8.16624 16.0195 6.91586 14.3391L5.32619 12.2028C5.02889 11.8033 5.16933 11.2318 5.61796 11.0156Z" fill="white"/>
<path d="M111.109 104.576L47.5218 104.683C45.0385 104.687 43.0283 107.112 43.0317 110.098L43.1763 234.602C43.1797 237.589 45.1956 240.007 47.6789 240.003L111.266 239.896C113.75 239.892 115.76 237.467 115.756 234.48L115.612 109.976C115.608 106.99 113.593 104.572 111.109 104.576Z" fill="url(#paint6_linear)"/>
<path d="M110.892 197.069L110.833 146.252C110.813 128.943 96.7655 114.936 79.4572 114.965C62.1489 114.994 48.1341 129.049 48.1541 146.357L48.2131 197.174C48.2332 214.482 62.2807 228.49 79.589 228.461C96.8972 228.432 110.912 214.377 110.892 197.069Z" fill="url(#paint7_linear)"/>
<path d="M110.08 106.622L48.5559 106.725C46.7221 106.728 45.2375 108.519 45.24 110.724L45.3806 231.823C45.3832 234.029 46.8719 235.815 48.7058 235.812L110.23 235.708C112.064 235.705 113.548 233.915 113.546 231.709L113.405 110.61C113.403 108.404 111.914 106.619 110.08 106.622Z" fill="white"/>
<path d="M108.976 195.328L108.918 145.923C108.9 129.668 95.7066 116.512 79.4512 116.539C63.1958 116.567 50.0335 129.766 50.0523 146.022L50.1097 195.427C50.1286 211.682 63.3215 224.838 79.5769 224.811C95.8323 224.783 108.995 211.583 108.976 195.328Z" fill="#E6E6E6"/>
<path d="M79.4492 233.372C80.7884 233.372 81.8741 232.034 81.8741 230.383C81.8741 228.732 80.7884 227.394 79.4492 227.394C78.1099 227.394 77.0243 228.732 77.0243 230.383C77.0243 232.034 78.1099 233.372 79.4492 233.372Z" fill="#DBDBDB"/>
<path d="M69.2614 112.867C69.7083 112.867 70.0701 112.42 70.0694 111.871C70.0688 111.321 69.706 110.876 69.2591 110.877C68.8122 110.878 68.4505 111.324 68.4511 111.873C68.4517 112.423 68.8145 112.868 69.2614 112.867Z" fill="#DBDBDB"/>
<path d="M83.6154 111.25L73.5019 111.267C73.392 111.267 73.303 111.374 73.3031 111.507L73.3037 112.023C73.3039 112.155 73.3931 112.262 73.503 112.262L83.6165 112.245C83.7264 112.245 83.8154 112.138 83.8153 112.005L83.8147 111.489C83.8145 111.357 83.7253 111.25 83.6154 111.25Z" fill="#DBDBDB"/>
<path d="M102.187 200.815V194.76C102.187 188.401 97.0323 183.246 90.673 183.246C84.3137 183.246 79.1585 188.401 79.1585 194.76V200.815C79.1585 207.174 84.3137 212.329 90.673 212.329C97.0323 212.329 102.187 207.174 102.187 200.815Z" fill="url(#paint8_linear)"/>
<path d="M101.187 200.552V195.026C101.187 189.219 96.4798 184.512 90.673 184.512C84.8662 184.512 80.1589 189.219 80.1589 195.026V200.552C80.1589 206.359 84.8662 211.066 90.673 211.066C96.4798 211.066 101.187 206.359 101.187 200.552Z" fill="#6C63FF"/>
<path d="M90.6416 193.629H90.4452C89.6324 193.629 88.9734 194.422 88.9734 195.399V196.58C88.9734 197.558 89.6324 198.35 90.4452 198.35H90.6416C91.4544 198.35 92.1133 197.558 92.1133 196.58V195.399C92.1133 194.422 91.4544 193.629 90.6416 193.629Z" fill="#BE7C5E"/>
<path d="M90.5341 198.206C90.2693 198.206 90.1032 198.492 90.2346 198.722C90.3653 198.951 90.6938 198.955 90.8297 198.729C90.9681 198.499 90.8025 198.206 90.5341 198.206Z" fill="#BE7C5E"/>
<path opacity="0.1" d="M86.6716 201.925C86.6716 201.925 86.0484 209.386 86.4516 209.871L86.6716 201.925Z" fill="black"/>
<path opacity="0.1" d="M94.3811 201.925C94.3811 201.925 95.0044 209.386 94.6011 209.871L94.3811 201.925Z" fill="black"/>
<path d="M90.5421 195.241C92.2501 195.241 93.6348 193.575 93.6348 191.521C93.6348 189.467 92.2501 187.801 90.5421 187.801C88.834 187.801 87.4494 189.467 87.4494 191.521C87.4494 193.575 88.834 195.241 90.5421 195.241Z" fill="#444444"/>
<path d="M90.5421 195.827C91.9869 195.827 93.1582 194.418 93.1582 192.681C93.1582 190.943 91.9869 189.534 90.5421 189.534C89.0972 189.534 87.926 190.943 87.926 192.681C87.926 194.418 89.0972 195.827 90.5421 195.827Z" fill="#BE7C5E"/>
<path opacity="0.05" d="M89.2065 189.22C88.8039 189.4 88.6619 189.9 88.91 190.265C89.0267 190.436 89.2116 190.548 89.4186 190.563C90.1849 190.618 92.0612 190.685 92.3228 190.05C92.5547 189.488 91.5179 189.039 90.881 188.822C90.5811 188.72 90.2564 188.751 89.9672 188.88L89.2065 189.22Z" fill="black"/>
<path d="M89.2065 189.13C88.8039 189.31 88.6619 189.81 88.91 190.175C89.0267 190.347 89.2116 190.459 89.4186 190.473C90.1848 190.528 92.0612 190.595 92.3228 189.96C92.5547 189.398 91.5179 188.95 90.881 188.733C90.5811 188.63 90.2564 188.661 89.9672 188.79L89.2065 189.13Z" fill="#444444"/>
<path d="M87.9207 192.877C88.022 192.877 88.104 192.699 88.104 192.48C88.104 192.26 88.022 192.083 87.9207 192.083C87.8195 192.083 87.7374 192.26 87.7374 192.48C87.7374 192.699 87.8195 192.877 87.9207 192.877Z" fill="#BE7C5E"/>
<path d="M93.1687 192.877C93.2699 192.877 93.352 192.699 93.352 192.48C93.352 192.26 93.2699 192.083 93.1687 192.083C93.0674 192.083 92.9854 192.26 92.9854 192.48C92.9854 192.699 93.0674 192.877 93.1687 192.877Z" fill="#BE7C5E"/>
<path d="M88.4968 188.061C88.7017 187.747 88.984 187.519 89.3034 187.409C89.8821 187.132 90.4844 186.849 91.1051 186.899C91.2273 186.897 91.32 187.005 91.3685 187.117C91.3716 187.124 91.3746 187.131 91.3774 187.138C91.566 187.475 92.0949 187.453 92.163 187.85C92.1814 187.979 92.1368 188.118 92.163 188.244C92.2311 188.559 92.6004 188.527 92.8177 188.707C92.9334 188.832 93.0037 189.008 93.0135 189.195C93.0233 189.382 92.9718 189.566 92.8701 189.708C92.4645 190.226 91.773 190.459 91.1168 190.498C90.8711 190.513 90.6236 190.492 90.3797 190.436C89.5862 190.187 87.7296 189.57 88.4968 188.061Z" fill="#444444"/>
<path d="M78.6191 200.499V194.444C78.6191 188.085 73.4638 182.93 67.1046 182.93C60.7453 182.93 55.5901 188.085 55.5901 194.444V200.499C55.5901 206.858 60.7453 212.013 67.1046 212.013C73.4638 212.013 78.6191 206.858 78.6191 200.499Z" fill="url(#paint9_linear)"/>
<path d="M77.6187 200.238V194.712C77.6187 188.905 72.9114 184.198 67.1046 184.198C61.2978 184.198 56.5904 188.905 56.5904 194.712V200.238C56.5904 206.045 61.2978 210.752 67.1046 210.752C72.9114 210.752 77.6187 206.045 77.6187 200.238Z" fill="#6C63FF"/>
<g opacity="0.5">
<path opacity="0.5" d="M68.8932 196.005L68.6493 195.899C68.6391 195.895 68.6272 195.899 68.6218 195.909L68.6184 195.915C68.6167 195.918 68.6134 195.92 68.6098 195.92C68.6043 195.92 68.5999 195.915 68.5999 195.91V195.063C68.5999 194.866 68.6708 194.672 68.8035 194.526C69.0438 194.262 69.2427 193.948 69.3908 193.599C69.4833 193.381 69.5831 193.166 69.6924 192.956C69.9543 192.454 70.1172 191.884 70.1668 191.29C70.2268 190.572 70.1182 189.847 69.8534 189.199C69.5885 188.551 69.178 188.005 68.6683 187.624C68.1586 187.242 67.5702 187.04 66.9697 187.04C66.3693 187.04 65.7809 187.242 65.2712 187.624C64.7615 188.005 64.351 188.551 64.0861 189.199C63.8212 189.847 63.7126 190.572 63.7727 191.29C63.8222 191.884 63.9852 192.454 64.247 192.956C64.3564 193.166 64.4562 193.381 64.5487 193.599C64.6968 193.948 64.8957 194.262 65.1359 194.526C65.2687 194.672 65.3395 194.866 65.3396 195.063C65.3396 195.627 64.971 196.116 64.4704 196.376C63.4252 196.919 62.508 197.778 61.812 198.878C60.9289 200.273 60.4506 201.978 60.4504 203.731V204.1C60.4504 207.777 63.4314 210.758 67.1085 210.758C70.7857 210.758 73.7666 207.777 73.7666 204.1V203.718C73.7657 201.969 73.2889 200.268 72.4089 198.875C71.5289 197.483 70.2942 196.474 68.8932 196.005Z" fill="url(#paint10_linear)"/>
</g>
<path d="M67.0731 193.313H66.8767C66.0639 193.313 65.405 194.106 65.405 195.083V196.264C65.405 197.242 66.0639 198.034 66.8767 198.034H67.0731C67.8859 198.034 68.5449 197.242 68.5449 196.264V195.083C68.5449 194.106 67.8859 193.313 67.0731 193.313Z" fill="#FDA57D"/>
<path opacity="0.1" d="M63.1032 201.611C63.1032 201.611 62.4799 209.072 62.8832 209.557L63.1032 201.611Z" fill="black"/>
<path opacity="0.1" d="M70.8127 201.611C70.8127 201.611 71.4359 209.072 71.0327 209.557L70.8127 201.611Z" fill="black"/>
<path d="M66.9736 194.925C68.6817 194.925 70.0663 193.259 70.0663 191.205C70.0663 189.151 68.6817 187.485 66.9736 187.485C65.2656 187.485 63.881 189.151 63.881 191.205C63.881 193.259 65.2656 194.925 66.9736 194.925Z" fill="#444444"/>
<path d="M66.9736 195.513C68.4185 195.513 69.5897 194.104 69.5897 192.367C69.5897 190.629 68.4185 189.22 66.9736 189.22C65.5288 189.22 64.3575 190.629 64.3575 192.367C64.3575 194.104 65.5288 195.513 66.9736 195.513Z" fill="#FDA57D"/>
<path opacity="0.05" d="M65.6381 188.904C65.2354 189.084 65.0934 189.584 65.3415 189.949C65.4582 190.12 65.6431 190.232 65.8501 190.247C66.6163 190.302 68.4927 190.369 68.7543 189.734C68.9862 189.172 67.9494 188.723 67.3125 188.506C67.0127 188.404 66.6879 188.435 66.3988 188.564L65.6381 188.904Z" fill="black"/>
<path d="M65.6381 188.814C65.2354 188.994 65.0934 189.494 65.3415 189.859C65.4582 190.031 65.6431 190.143 65.8501 190.157C66.6163 190.212 68.4927 190.279 68.7543 189.644C68.9862 189.082 67.9494 188.634 67.3125 188.417C67.0127 188.314 66.6879 188.345 66.3988 188.474L65.6381 188.814Z" fill="#444444"/>
<path d="M64.3523 192.563C64.4535 192.563 64.5356 192.385 64.5356 192.166C64.5356 191.946 64.4535 191.769 64.3523 191.769C64.2511 191.769 64.169 191.946 64.169 192.166C64.169 192.385 64.2511 192.563 64.3523 192.563Z" fill="#FDA57D"/>
<path d="M69.6002 192.563C69.7015 192.563 69.7835 192.385 69.7835 192.166C69.7835 191.946 69.7015 191.769 69.6002 191.769C69.499 191.769 69.4169 191.946 69.4169 192.166C69.4169 192.385 69.499 192.563 69.6002 192.563Z" fill="#FDA57D"/>
<path d="M98.1232 130.34H57.5882C56.9706 130.34 56.47 130.84 56.47 131.458C56.47 132.075 56.9706 132.576 57.5882 132.576H98.1232C98.7408 132.576 99.2414 132.075 99.2414 131.458C99.2414 130.84 98.7408 130.34 98.1232 130.34Z" fill="white"/>
<path d="M98.1235 134.812H57.588C56.9705 134.812 56.47 135.312 56.47 135.93C56.47 136.547 56.9705 137.048 57.588 137.048H98.1235C98.7409 137.048 99.2414 136.547 99.2414 135.93C99.2414 135.312 98.7409 134.812 98.1235 134.812Z" fill="white"/>
<path d="M79.5277 139.286H57.5882C56.9706 139.286 56.47 139.786 56.47 140.404C56.47 141.021 56.9706 141.522 57.5882 141.522H79.5277C80.1453 141.522 80.646 141.021 80.646 140.404C80.646 139.786 80.1453 139.286 79.5277 139.286Z" fill="white"/>
<path d="M90.6861 143.762H57.5882C56.9706 143.762 56.47 144.263 56.47 144.88C56.47 145.498 56.9706 145.998 57.5882 145.998H90.6861C91.3036 145.998 91.8043 145.498 91.8043 144.88C91.8043 144.263 91.3036 143.762 90.6861 143.762Z" fill="white"/>
<path d="M85.1057 148.232H57.5881C56.9706 148.232 56.47 148.732 56.47 149.35C56.47 149.967 56.9706 150.468 57.5881 150.468H85.1057C85.7232 150.468 86.2238 149.967 86.2238 149.35C86.2238 148.732 85.7232 148.232 85.1057 148.232Z" fill="white"/>
<path d="M98.1232 152.706H57.5882C56.9706 152.706 56.47 153.206 56.47 153.824C56.47 154.442 56.9706 154.942 57.5882 154.942H98.1232C98.7408 154.942 99.2414 154.442 99.2414 153.824C99.2414 153.206 98.7408 152.706 98.1232 152.706Z" fill="white"/>
<path d="M86.5764 159.419H67.2757C62.3348 159.419 58.3293 163.424 58.3293 168.365C58.3293 173.306 62.3347 177.312 67.2757 177.312H86.5764C91.5174 177.312 95.5229 173.306 95.5229 168.365C95.5229 163.424 91.5174 159.419 86.5764 159.419Z" fill="white"/>
<path d="M65.1562 191.181C65.2882 190.9 65.3978 190.605 65.4836 190.299C65.6226 189.937 65.8421 189.628 66.1179 189.407C66.3937 189.185 66.715 189.06 67.0464 189.044C67.3778 189.028 67.7063 189.123 67.9957 189.318C68.2851 189.513 68.5241 189.8 68.6863 190.148C68.8825 190.571 68.9584 191.065 69.1519 191.488C69.188 191.567 69.2399 191.646 69.3236 191.67C69.3648 191.682 69.4075 191.683 69.449 191.674C69.4906 191.665 69.5301 191.645 69.5652 191.617C69.6002 191.588 69.6299 191.551 69.6526 191.509C69.694 191.418 69.718 191.317 69.723 191.213C69.728 191.11 69.7138 191.006 69.6814 190.91C69.6264 190.715 69.5347 190.535 69.4745 190.343C69.4621 190.279 69.4485 190.214 69.4337 190.151C69.3215 189.665 69.1124 189.172 68.6889 188.91C68.1101 188.482 67.4398 188.038 66.7851 188.28C66.5642 188.371 66.3552 188.499 66.1644 188.661L65.3317 189.291C65.0639 189.472 64.8246 189.707 64.6246 189.987C64.4439 190.271 64.1009 191.118 64.2606 191.483C64.4492 191.899 64.9913 191.442 65.1562 191.181Z" fill="#444444"/>
<path d="M66.977 197.796C66.6121 197.796 66.3163 198.091 66.3163 198.456V209.547C66.3163 209.968 66.6573 210.309 67.0779 210.309C67.504 210.309 67.8471 209.96 67.8394 209.534L67.6375 198.444C67.6309 198.084 67.3371 197.796 66.977 197.796Z" fill="white"/>
<path d="M66.9617 197.626C66.5597 197.626 66.3077 198.06 66.507 198.409C66.7054 198.757 67.2043 198.763 67.4104 198.42C67.6203 198.071 67.3689 197.626 66.9617 197.626Z" fill="#FDA57D"/>
</g>
<defs>
<linearGradient id="paint0_linear" x1="41.4909" y1="148.562" x2="41.4909" y2="62.6379" gradientUnits="userSpaceOnUse">
<stop stop-color="#808080" stop-opacity="0.25"/>
<stop offset="0.54" stop-color="#808080" stop-opacity="0.12"/>
<stop offset="1" stop-color="#808080" stop-opacity="0.1"/>
</linearGradient>
<linearGradient id="paint1_linear" x1="2632.98" y1="8560.33" x2="2632.98" y2="7206.58" gradientUnits="userSpaceOnUse">
<stop stop-color="#808080" stop-opacity="0.25"/>
<stop offset="0.54" stop-color="#808080" stop-opacity="0.12"/>
<stop offset="1" stop-color="#808080" stop-opacity="0.1"/>
</linearGradient>
<linearGradient id="paint2_linear" x1="68419.9" y1="4390.8" x2="68419.7" y2="4260.68" gradientUnits="userSpaceOnUse">
<stop stop-color="#808080" stop-opacity="0.25"/>
<stop offset="0.54" stop-color="#808080" stop-opacity="0.12"/>
<stop offset="1" stop-color="#808080" stop-opacity="0.1"/>
</linearGradient>
<linearGradient id="paint3_linear" x1="18555.7" y1="7487.21" x2="18555.7" y2="4801.65" gradientUnits="userSpaceOnUse">
<stop stop-color="#808080" stop-opacity="0.25"/>
<stop offset="0.54" stop-color="#808080" stop-opacity="0.12"/>
<stop offset="1" stop-color="#808080" stop-opacity="0.1"/>
</linearGradient>
<linearGradient id="paint4_linear" x1="18567.6" y1="10743.7" x2="18567.6" y2="8058.11" gradientUnits="userSpaceOnUse">
<stop stop-color="#808080" stop-opacity="0.25"/>
<stop offset="0.54" stop-color="#808080" stop-opacity="0.12"/>
<stop offset="1" stop-color="#808080" stop-opacity="0.1"/>
</linearGradient>
<linearGradient id="paint5_linear" x1="690.131" y1="1659.85" x2="690.131" y2="0" gradientUnits="userSpaceOnUse">
<stop stop-color="#808080" stop-opacity="0.25"/>
<stop offset="0.54" stop-color="#808080" stop-opacity="0.12"/>
<stop offset="1" stop-color="#808080" stop-opacity="0.1"/>
</linearGradient>
<linearGradient id="paint6_linear" x1="32453.1" y1="114523" x2="32355.1" y2="56118.5" gradientUnits="userSpaceOnUse">
<stop stop-color="#808080" stop-opacity="0.25"/>
<stop offset="0.54" stop-color="#808080" stop-opacity="0.12"/>
<stop offset="1" stop-color="#808080" stop-opacity="0.1"/>
</linearGradient>
<linearGradient id="paint7_linear" x1="79.5942" y1="229.613" x2="79.4027" y2="115.595" gradientUnits="userSpaceOnUse">
<stop stop-opacity="0.09"/>
<stop offset="0.55" stop-opacity="0.07"/>
<stop offset="1" stop-opacity="0.02"/>
</linearGradient>
<linearGradient id="paint8_linear" x1="8052.94" y1="19789.6" x2="8052.94" y2="17104" gradientUnits="userSpaceOnUse">
<stop stop-color="#808080" stop-opacity="0.25"/>
<stop offset="0.54" stop-color="#808080" stop-opacity="0.12"/>
<stop offset="1" stop-color="#808080" stop-opacity="0.1"/>
</linearGradient>
<linearGradient id="paint9_linear" x1="5956.76" y1="19760.2" x2="5956.76" y2="17074.6" gradientUnits="userSpaceOnUse">
<stop stop-color="#808080" stop-opacity="0.25"/>
<stop offset="0.54" stop-color="#808080" stop-opacity="0.12"/>
<stop offset="1" stop-color="#808080" stop-opacity="0.1"/>
</linearGradient>
<linearGradient id="paint10_linear" x1="5021.93" y1="16801.3" x2="5699.05" y2="16801.3" gradientUnits="userSpaceOnUse">
<stop stop-color="#808080" stop-opacity="0.25"/>
<stop offset="0.54" stop-color="#808080" stop-opacity="0.12"/>
<stop offset="1" stop-color="#808080" stop-opacity="0.1"/>
</linearGradient>
<clipPath id="clip0">
<rect width="240" height="240" fill="white"/>
</clipPath>
</defs>
</svg>
