<svg width="240" height="240" viewBox="0 0 240 240" fill="none" xmlns="http://www.w3.org/2000/svg">
<path opacity="0.3" d="M163.423 15.1492H146.277V24.041H163.423V15.1492Z" fill="#6C63FF"/>
<path opacity="0.3" d="M191.921 0H174.775V8.89181H191.921V0Z" fill="#6C63FF"/>
<path opacity="0.3" d="M193.103 27.4988H175.957V36.3906H193.103V27.4988Z" fill="#6C63FF"/>
<path opacity="0.3" d="M138.236 37.708H121.089V46.5998H138.236V37.708Z" fill="#6C63FF"/>
<path opacity="0.3" d="M132.796 74.2632H115.65V83.155H132.796V74.2632Z" fill="#6C63FF"/>
<path opacity="0.3" d="M158.693 73.4397H141.547V82.3315H158.693V73.4397Z" fill="#6C63FF"/>
<path d="M174.775 4.38989L163.423 19.389L175.957 31.9448" stroke="#3F3D56" stroke-miterlimit="10"/>
<path d="M146.277 19.3889L129.662 37.7077" stroke="#3F3D56" stroke-miterlimit="10"/>
<path d="M124.223 74.2561L129.662 46.5996L150.12 73.4397" stroke="#3F3D56" stroke-miterlimit="10"/>
<path opacity="0.3" d="M47.7729 24.3093H30.6267V33.2011H47.7729V24.3093Z" fill="#6C63FF"/>
<path opacity="0.3" d="M76.2711 9.16016H59.1249V18.052H76.2711V9.16016Z" fill="#6C63FF"/>
<path opacity="0.3" d="M77.4536 36.6589H60.3074V45.5507H77.4536V36.6589Z" fill="#6C63FF"/>
<path opacity="0.3" d="M22.5857 46.8682H5.43948V55.76H22.5857V46.8682Z" fill="#6C63FF"/>
<path opacity="0.3" d="M17.1462 83.4233H0V92.3152H17.1462V83.4233Z" fill="#6C63FF"/>
<path opacity="0.3" d="M43.0429 82.5999H25.8967V91.4917H43.0429V82.5999Z" fill="#6C63FF"/>
<path d="M59.1249 13.55L47.7729 28.5492L60.3073 41.1049" stroke="#3F3D56" stroke-miterlimit="10"/>
<path d="M30.6267 28.5493L14.0126 46.8681" stroke="#3F3D56" stroke-miterlimit="10"/>
<path d="M8.57316 83.4163L14.0125 55.7598L34.4698 82.5998" stroke="#3F3D56" stroke-miterlimit="10"/>
<path d="M77.4536 41.1047H96.8984" stroke="#3F3D56" stroke-miterlimit="10"/>
<path d="M108.329 36.5542H88.1698V45.419H108.329V36.5542Z" fill="#6C63FF"/>
<path d="M108.355 40.9866H121.089" stroke="#3F3D56" stroke-miterlimit="10"/>
<path d="M88.0732 40.9864L76.2711 13.55" stroke="#3F3D56" stroke-miterlimit="10"/>
<path d="M146.631 240C198.197 240 240 227.035 240 211.042C240 195.049 198.197 182.084 146.631 182.084C95.0652 182.084 53.2626 195.049 53.2626 211.042C53.2626 227.035 95.0652 240 146.631 240Z" fill="#F2F2F2"/>
<path d="M189.917 115.718L180.812 179.24H178.841L178.625 178.771L177.997 177.41L185.881 118.07L187.078 117.372L189.917 115.718Z" fill="#47465A"/>
<path opacity="0.1" d="M187.078 117.372L178.625 178.771L177.997 177.41L185.881 118.07L187.078 117.372Z" fill="black"/>
<path d="M203.621 202.244L201.28 203.295L200.711 203.551L199.96 201.198L187.078 119.367L188.417 118.949L191.231 118.07L203.621 202.244Z" fill="#47465A"/>
<path opacity="0.1" d="M201.28 203.295L200.711 203.551L199.96 201.198L187.078 119.367L188.417 118.949L201.28 203.295Z" fill="black"/>
<path d="M92.0182 115.718L89.9533 198.061L87.5868 198.793L87.419 198.845L86.7618 197.146L88.076 116.502L89.3403 116.251L92.0182 115.718Z" fill="#47465A"/>
<path opacity="0.1" d="M89.3403 116.251L87.5868 198.793L87.419 198.845L86.7618 197.146L88.076 116.502L89.3403 116.251Z" fill="black"/>
<path d="M104.314 227.208L101.866 227.796L101.592 227.862L100.841 225.64L88.9207 118.07L89.2643 117.925L91.0797 117.155L104.314 227.208Z" fill="#47465A"/>
<path opacity="0.1" d="M101.866 227.796L101.592 227.862L100.841 225.64L88.9207 118.07L89.2643 117.925L101.866 227.796Z" fill="black"/>
<path d="M156.126 109.052L165.241 125.269C165.553 125.825 165.963 126.259 166.431 126.531C166.899 126.803 167.409 126.902 167.912 126.82L205.327 120.718C206.046 120.601 206.71 120.12 207.191 119.366C207.673 118.613 207.939 117.639 207.939 116.63V104.608L156.126 109.052Z" fill="#7A799C"/>
<path d="M186.82 111.666H189.354V116.759C189.354 117.107 189.255 117.44 189.078 117.686C188.902 117.932 188.662 118.07 188.412 118.07H187.761C187.512 118.07 187.272 117.932 187.095 117.686C186.919 117.44 186.82 117.107 186.82 116.759V111.666Z" fill="#47465A"/>
<path d="M88.9207 119.377L98.035 135.594C98.3474 136.15 98.7572 136.585 99.225 136.857C99.6928 137.128 100.203 137.228 100.706 137.146L138.121 131.044C138.841 130.926 139.504 130.445 139.986 129.692C140.467 128.938 140.733 127.965 140.733 126.956V114.933L88.9207 119.377Z" fill="#7A799C"/>
<path d="M119.614 121.991H122.148V127.084C122.148 127.432 122.049 127.766 121.872 128.012C121.696 128.258 121.456 128.396 121.206 128.396H120.556C120.306 128.396 120.066 128.258 119.89 128.012C119.713 127.766 119.614 127.432 119.614 127.084V121.991H119.614Z" fill="#47465A"/>
<path d="M99.392 127.591L210.683 109.539C211.033 109.482 211.36 109.27 211.616 108.934C211.872 108.598 212.044 108.156 212.105 107.673C212.167 107.19 212.115 106.693 211.957 106.255C211.799 105.816 211.544 105.461 211.23 105.24L191.322 91.2982C187.401 88.5522 182.998 87.4228 178.632 88.0427L79.7582 102.081C79.4047 102.133 79.0687 102.322 78.7888 102.627C78.5089 102.932 78.2963 103.341 78.1754 103.806C78.0545 104.272 78.0302 104.775 78.1053 105.259C78.1804 105.743 78.3518 106.187 78.5999 106.542L90.1137 122.991C91.3053 124.694 92.7612 125.993 94.3695 126.791C95.9778 127.588 97.6959 127.862 99.392 127.591Z" fill="#47465A"/>
<path d="M222.927 107.092L221.737 106.176C221.737 106.176 220.451 107.493 219.405 113.043C218.358 118.593 221.361 113.103 221.361 113.103L222.675 109.313L222.927 107.092Z" fill="#47465A"/>
<path d="M210.191 157.935C210.191 157.935 208.971 165.908 208.408 168.13C208.132 169.217 206.799 170.212 205.322 170.973C204.012 171.652 202.656 172.145 201.274 172.443C199.679 172.705 179.217 168.261 169.267 165.254C162.565 163.23 161.698 160.907 161.847 159.608C161.894 159.221 162.027 158.865 162.228 158.588C162.228 158.588 172.083 149.308 175.556 144.865C179.029 140.421 185.881 143.95 193.39 145.779C200.899 147.609 210.191 157.935 210.191 157.935Z" fill="#47465A"/>
<path d="M221.737 106.176C221.737 106.176 226.336 110.359 210.849 118.985C210.849 118.985 202.431 125.594 203.526 152.82C203.578 154.044 203.846 155.232 204.306 156.278C205.904 159.938 209.328 169.202 203.621 170.352V172.443C203.621 172.443 213.946 165.255 215.072 159.111C216.199 152.968 219.953 118.855 221.83 115.718C223.708 112.581 224.928 107.614 221.737 106.176Z" fill="#47465A"/>
<path opacity="0.1" d="M205.322 170.973C204.012 171.652 202.656 172.145 201.274 172.443C199.679 172.705 179.217 168.261 169.267 165.255C162.565 163.23 161.698 160.907 161.847 159.608C166.252 161.706 180.559 168.364 185.693 168.914C191.794 169.568 203.45 171.385 204.333 170.149C204.673 169.674 205.021 170.176 205.322 170.973Z" fill="black"/>
<path d="M151.715 225.378L160.632 168.653C160.632 168.653 162.228 162.64 165.888 162.902L169.267 165.255C169.267 165.255 163.636 163.425 162.415 169.437C161.195 175.449 153.404 225.378 153.404 225.378H151.715Z" fill="#47465A"/>
<path d="M173.116 199.499L176.682 164.862H178.278L174.618 199.499H173.116Z" fill="#47465A"/>
<path d="M207.282 233.351L203.903 179.24C203.903 179.24 203.903 174.665 205.592 172.443C207.282 170.221 212.736 163.883 212.736 163.883C212.736 163.883 214.134 163.425 215.26 167.869C216.386 172.312 224.177 216.752 224.177 216.752L222.675 217.667L213.007 166.431L206.343 175.188C206.343 175.188 205.029 178.456 205.686 181.462C206.343 184.468 208.784 233.351 208.784 233.351H207.282Z" fill="#47465A"/>
<path d="M196.863 171.136L205.311 174.534L207.188 172.051L202.307 171.136H196.863Z" fill="#47465A"/>
<path d="M121.764 75.7356L123.134 104.346L153.076 100.294L151.885 72.3263C151.869 71.9517 151.799 71.5854 151.68 71.2488C151.561 70.9123 151.394 70.6123 151.191 70.3667C150.987 70.121 150.75 69.9345 150.494 69.8183C150.238 69.7021 149.967 69.6584 149.699 69.6898L123.61 72.7455C123.082 72.8073 122.593 73.1553 122.248 73.7146C121.902 74.2739 121.729 74.9997 121.764 75.7356Z" fill="#7A799C"/>
<path d="M163.119 108.529L133.271 113.063L132.145 113.234L123.415 105.392V103.693L153.076 99.9729L163.119 108.529Z" fill="#7A799C"/>
<path opacity="0.1" d="M133.271 113.063L132.145 113.234L123.415 105.392V103.871L133.271 113.063Z" fill="black"/>
<path d="M123.791 75.4606L124.823 100.948L151.105 97.5498L150.166 72.7158L123.791 75.4606Z" fill="#9493B6"/>
<path opacity="0.1" d="M139.466 108.006L142.657 111.012L152.325 109.705L149.04 106.83L139.466 108.006Z" fill="black"/>
<path d="M126.419 104.346L130.455 108.529L156.267 105.131L151.668 100.948L126.419 104.346Z" fill="#9493B6"/>
<path d="M191.278 65.7231H172.224V92.2561H191.278V65.7231Z" fill="#FF6584"/>
<path opacity="0.1" d="M191.278 65.7231H172.224V92.2561H191.278V65.7231Z" fill="black"/>
<path d="M178.786 78.0019C178.786 78.0019 181.474 88.139 178.786 90.0105C176.098 91.882 188.418 90.0105 188.418 90.0105L191.89 86.1116C191.89 86.1116 184.05 82.9925 185.17 75.8186C186.29 68.6446 178.786 78.0019 178.786 78.0019Z" fill="#FBBEBE"/>
<path opacity="0.1" d="M178.786 78.0019C178.786 78.0019 181.474 88.139 178.786 90.0105C176.098 91.882 188.418 90.0105 188.418 90.0105L191.89 86.1116C191.89 86.1116 184.05 82.9925 185.17 75.8186C186.29 68.6446 178.786 78.0019 178.786 78.0019Z" fill="black"/>
<path d="M156.723 179.685C156.723 179.685 166.802 199.491 165.122 204.95C163.442 210.408 164.338 213.839 160.979 215.711C157.619 217.582 156.723 221.013 159.635 220.857C162.546 220.701 166.354 219.61 166.914 218.206C167.474 216.802 168.818 210.096 170.722 209.161C172.626 208.225 176.21 204.638 173.634 200.271C171.058 195.904 164.568 179.82 165.069 178.193C165.57 176.566 156.723 179.685 156.723 179.685Z" fill="#FBBEBE"/>
<path d="M177.778 140.54C177.778 140.54 156.947 142.412 151.571 149.43C146.195 156.448 156.275 182.648 157.395 182.96C158.515 183.272 167.25 182.025 166.914 178.593C166.578 175.162 160.643 161.126 160.643 161.126C160.643 161.126 168.37 157.228 172.626 156.292C176.882 155.356 181.586 150.989 181.586 150.989L177.778 140.54Z" fill="#9493B6"/>
<path d="M168.258 136.173C168.258 136.173 168.594 153.484 171.73 154.108C174.866 154.732 171.73 140.852 171.73 140.852L171.618 135.55L168.258 136.173Z" fill="#FBBEBE"/>
<path d="M177.778 90.7905C177.778 90.7905 171.954 88.4512 170.834 94.6894C169.714 100.928 169.378 122.45 169.378 122.45L167.362 139.605C167.362 139.605 171.058 138.045 171.842 138.825L176.546 130.559L177.778 90.7905Z" fill="#6C63FF"/>
<path opacity="0.1" d="M177.778 90.7905C177.778 90.7905 171.954 88.4512 170.834 94.6894C169.714 100.928 169.378 122.45 169.378 122.45L167.362 139.605C167.362 139.605 171.058 138.045 171.842 138.825L176.546 130.559L177.778 90.7905Z" fill="black"/>
<path d="M185.736 183.006C185.736 183.006 189.65 193.721 192.002 193.565C194.354 193.409 196.593 191.382 197.713 197.776C198.833 204.17 197.489 202.454 198.833 206.197C200.177 209.94 200.401 216.49 197.825 218.05C195.25 219.609 192.898 219.765 192.786 218.05C192.674 216.334 195.025 216.334 192.338 210.252C189.65 204.17 183.938 193.097 181.586 192.005C179.234 190.914 185.736 183.006 185.736 183.006Z" fill="#FBBEBE"/>
<path d="M195.922 134.146C195.922 134.146 203.985 152.861 198.721 158.319C193.458 163.778 177.778 174.227 177.778 174.227C177.778 174.227 186.178 182.181 186.626 184.832C187.074 187.483 182.594 194.657 181.026 194.813C179.458 194.969 174.866 187.639 169.938 185.768C165.01 183.896 161.987 170.484 167.362 165.493C172.738 160.503 177.778 152.237 177.778 152.237L176.211 140.23L195.922 134.146Z" fill="#9493B6"/>
<path d="M188.932 71.7354C188.932 78.3676 184.053 83.8502 179.29 83.8502C177.003 83.8502 174.809 82.585 173.192 80.333C171.575 78.0809 170.666 75.0265 170.666 71.8416C170.666 68.6567 171.575 65.6023 173.192 63.3502C174.809 61.0982 177.003 59.833 179.29 59.833C184.053 59.833 188.932 65.1033 188.932 71.7354Z" fill="#FBBEBE"/>
<path d="M181.474 89.0749C181.474 89.0749 189.202 84.3963 189.202 83.7724C189.202 83.1486 193.682 85.176 194.69 86.4237C195.697 87.6713 196.257 87.5154 196.929 90.0107C197.601 92.5059 193.57 115.743 193.57 115.743C193.57 115.743 195.809 133.678 197.041 135.394C198.273 137.109 187.074 139.605 187.074 139.605C187.074 139.605 179.682 141.476 178.45 142.256C177.218 143.036 174.978 144.127 175.426 142.256C175.874 140.384 177.778 138.981 174.53 136.641C174.53 136.641 175.65 129 174.53 125.569C173.41 122.138 168.258 109.661 172.402 100.616C176.546 91.5702 178.45 88.2951 178.45 88.2951C178.45 88.2951 179.906 90.0107 181.474 89.0749Z" fill="#6C63FF"/>
<path d="M183.938 131.651C183.938 131.651 175.202 137.046 172.57 137.545C169.938 138.045 161.987 140.852 166.354 143.347C170.722 145.843 177.33 142.1 177.33 142.1L186.626 136.641L183.938 131.651Z" fill="#FBBEBE"/>
<path opacity="0.1" d="M193.343 88.5963C193.343 88.5963 196.569 86.4235 197.465 94.0653C198.361 101.707 201.497 125.88 197.465 129.467C193.433 133.054 184.137 138.825 184.137 138.825C184.137 138.825 178.649 133.678 181.225 131.807C183.801 129.935 189.961 124.633 190.857 122.761C191.753 120.89 192.658 100 191.09 96.5693C189.522 93.1383 193.343 88.5963 193.343 88.5963Z" fill="black"/>
<path d="M193.122 86.7354C193.122 86.7354 197.601 86.4235 198.497 94.0653C199.393 101.707 202.529 125.88 198.497 129.467C194.466 133.054 185.17 138.825 185.17 138.825C185.17 138.825 179.682 133.678 182.258 131.807C184.834 129.935 190.994 124.633 191.89 122.761C192.786 120.89 191.218 101.395 189.65 97.9642C188.082 94.5332 193.122 86.7354 193.122 86.7354Z" fill="#6C63FF"/>
<path d="M177.166 51.6269C175.791 51.8875 174.316 52.5878 173.624 54.2628C173.286 55.0824 173.176 56.0439 172.915 56.9168C172.196 59.3259 170.448 60.7645 169.186 62.6932C167.542 65.2069 166.725 68.9948 167.695 72.1154C168.07 73.3239 168.68 74.3591 169.143 75.5075C170.433 78.7116 170.502 82.5596 170.539 86.2327L170.611 93.4549C170.622 94.5577 170.631 95.6828 170.392 96.7345C170.154 97.7863 169.621 98.7713 168.866 99.1034C169.699 99.5056 170.605 99.5086 171.44 99.1117C172.275 98.7148 172.99 97.9409 173.473 96.913C173.576 97.8226 173.517 98.7535 173.302 99.6241C173.086 100.495 172.721 101.278 172.237 101.907C174.29 101.233 176.012 99.1537 177.097 96.6345C178.182 94.1152 178.685 91.1849 178.91 88.2643C179.029 86.7196 179.071 85.1223 178.721 83.6474C178.474 82.6085 178.044 81.6772 177.635 80.7426C176.581 78.3332 175.632 75.7706 175.293 72.9896C174.953 70.2085 175.294 67.1571 176.591 64.9899C177.089 64.1525 177.716 63.4823 178.425 63.0292C179.135 62.576 179.909 62.3518 180.69 62.373C181.47 62.415 182.23 62.7352 182.896 63.3031C183.562 63.8709 184.112 64.6673 184.494 65.6161C184.794 66.4014 185.22 67.4657 185.827 67.1898C185.94 67.1234 186.049 67.0484 186.156 66.9651C186.833 66.536 187.602 67.3825 187.9 68.3312C188.842 71.3235 187.107 74.5901 186.928 77.8475C186.761 80.8777 187.974 83.7355 189.424 86.0066C191.929 89.9133 195.201 92.7126 198.836 94.0587C198.304 93.872 197.827 93.4593 197.471 92.8777C198.949 92.96 200.428 92.7873 201.876 92.3636C200.3 90.7099 198.713 89.0421 197.397 86.9942C196.081 84.9464 195.039 82.4685 194.756 79.7493C194.375 76.1 195.351 72.1482 194.235 68.8041C193.215 65.7467 190.685 64.0382 189.76 60.9221C188.822 57.7569 188.213 55.0071 185.728 53.6292C183.016 52.1254 180.096 51.0715 177.166 51.6269Z" fill="#FF6584"/>
</svg>
