<svg width="240" height="240" viewBox="0 0 240 240" fill="none" xmlns="http://www.w3.org/2000/svg">
<g clip-path="url(#clip0)">
<path d="M62.7238 146.266C87.9405 146.266 108.383 113.523 108.383 73.133C108.383 32.7428 87.9405 0 62.7238 0C37.5072 0 17.0651 32.7428 17.0651 73.133C17.0651 113.523 37.5072 146.266 62.7238 146.266Z" fill="#F2F2F2"/>
<path d="M0 17.5596C0 44.1683 10.4218 65.6997 23.3011 65.6997L0 17.5596Z" fill="#2F2E41"/>
<path d="M23.3011 65.6998C23.3011 38.7921 34.9313 17.0188 49.3039 17.0188L23.3011 65.6998Z" fill="#6C63FF"/>
<path d="M8.44245 19.9717C8.44245 45.2471 15.0882 65.6997 23.3012 65.6997L8.44245 19.9717Z" fill="#6C63FF"/>
<path d="M23.3011 65.6999C23.3011 31.3179 36.7438 3.49634 53.3562 3.49634L23.3011 65.6999Z" fill="#2F2E41"/>
<path d="M19.1623 70.5384C18.2267 68.1894 21.0327 66.6415 22.6996 64.7403C23.6955 63.6045 27.7827 62.2481 28.0298 64.0698C28.2768 65.8916 32.9958 73.1302 29.265 73.1784C25.5343 73.2266 20.5964 72.2476 19.6025 71.2778C19.4342 71.1136 19.2884 70.8549 19.1623 70.5384Z" fill="#A8A8A8"/>
<path opacity="0.2" d="M29.3316 72.5441C25.6009 72.5923 20.663 71.6133 19.6691 70.6435C18.923 69.9156 18.6192 67.3309 18.514 66.086C18.5114 66.0556 18.4589 66.0356 18.4285 66.0374C18.3978 66.0393 18.4004 66.0627 18.4021 66.0934C18.4305 66.5918 18.6745 70.3723 19.6025 71.2776C20.5964 72.2474 25.5343 73.2264 29.265 73.1782C29.5102 73.1751 29.7189 73.1408 29.8946 73.0791C30.1752 72.9805 29.629 72.5403 29.3316 72.5441Z" fill="black"/>
<path d="M42.574 154.486C64.7125 154.486 82.6594 150.575 82.6594 145.751C82.6594 140.927 64.7125 137.016 42.574 137.016C20.4354 137.016 2.48854 140.927 2.48854 145.751C2.48854 150.575 20.4354 154.486 42.574 154.486Z" fill="#3F3D56"/>
<path opacity="0.1" d="M42.574 153.084C61.1609 153.084 76.2286 149.801 76.2286 145.751C76.2286 141.701 61.1609 138.417 42.574 138.417C23.987 138.417 8.91936 141.701 8.91936 145.751C8.91936 149.801 23.987 153.084 42.574 153.084Z" fill="black"/>
<path d="M179.336 240C212.84 240 240 234.082 240 226.781C240 219.481 212.84 213.562 179.336 213.562C145.832 213.562 118.672 219.481 118.672 226.781C118.672 234.082 145.832 240 179.336 240Z" fill="#3F3D56"/>
<path d="M66.5823 229.572C86.7083 229.572 103.024 226.016 103.024 221.631C103.024 217.245 86.7083 213.69 66.5823 213.69C46.4564 213.69 30.141 217.245 30.141 221.631C30.141 226.016 46.4564 229.572 66.5823 229.572Z" fill="#3F3D56"/>
<path d="M99.1651 214.935C118.458 222.832 155.542 204.635 159.615 184.034" stroke="#2F2E41" stroke-width="2" stroke-miterlimit="10"/>
<path d="M66.368 88.927C66.368 88.927 94.2349 76.5664 95.9497 116.395C97.6646 156.223 73.0132 167.554 92.3056 175.451" stroke="#2F2E41" stroke-width="2" stroke-miterlimit="10"/>
<path d="M39.4448 184.475C39.4448 184.475 47.8203 180.76 48.3358 192.731C48.8512 204.701 41.442 208.107 47.2405 210.48" stroke="#2F2E41" stroke-width="2" stroke-miterlimit="10"/>
<path d="M178.584 192.89C171.896 193.175 166.428 198.456 165.776 205.119C165.432 208.636 163.458 211.744 161.484 214.675C160.382 216.31 160.092 217.843 162.767 217.938C168.415 218.139 194.315 217.951 196.058 217.939C196.123 217.938 196.18 217.938 196.245 217.934C196.766 217.899 199.171 217.561 196.735 214.283C194.691 211.532 192.853 208.527 192.535 205.115C191.87 197.991 185.733 192.586 178.584 192.89Z" fill="#2F2E41"/>
<path opacity="0.1" d="M161.359 214.866C160.258 216.596 163.024 215.916 164.528 214.522C165.402 213.71 165.3 213.224 165.416 212.036L165.755 208.569C166.418 201.792 172.121 196.626 178.932 196.637L179.405 196.637C186.184 196.647 191.853 201.79 192.522 208.536L192.844 211.776C192.965 212.999 193.903 214.441 194.776 215.308C196.35 216.874 198.23 216.453 196.976 214.62C196.599 214.069 196.074 213.426 195.363 212.677C193.937 211.175 192.925 209.301 192.733 207.239L192.53 205.063C191.865 197.939 185.733 192.586 178.584 192.89C171.896 193.175 166.439 198.341 165.788 205.003L165.548 207.457C165.347 209.509 164.323 211.374 162.927 212.891C162.352 213.514 161.781 214.203 161.359 214.866Z" fill="black"/>
<path d="M230.146 73.0261H127.861C125.725 73.0261 123.993 75.8001 123.993 79.2221V189.584C123.993 193.006 125.725 195.78 127.861 195.78H230.146C232.282 195.78 234.014 193.006 234.014 189.584V79.2221C234.014 75.8001 232.282 73.0261 230.146 73.0261Z" fill="#2F2E41"/>
<path d="M184.332 79.5798H173.676C148.281 79.5798 127.695 100.166 127.695 125.56C127.695 150.955 148.281 171.541 173.676 171.541H184.332C209.726 171.541 230.312 150.955 230.312 125.56C230.312 100.166 209.726 79.5798 184.332 79.5798Z" fill="#3F3D56"/>
<path d="M179.004 77.7073C179.362 77.7073 179.653 77.2415 179.653 76.667C179.653 76.0925 179.362 75.6267 179.004 75.6267C178.645 75.6267 178.354 76.0925 178.354 76.667C178.354 77.2415 178.645 77.7073 179.004 77.7073Z" fill="#F2F2F2"/>
<path d="M223.254 178.823C229.197 178.823 234.014 183.641 234.014 189.584C234.014 190.397 233.914 191.203 233.72 191.955C233.526 192.707 233.241 193.39 232.881 193.965C232.522 194.54 232.096 194.997 231.626 195.308C231.157 195.62 230.654 195.78 230.146 195.78H127.861C127.353 195.78 126.85 195.62 126.381 195.308C125.912 194.997 125.485 194.54 125.126 193.965C124.767 193.39 124.482 192.707 124.288 191.955C124.093 191.203 123.993 190.397 123.993 189.584C123.993 183.641 128.811 178.823 134.754 178.823H223.254Z" fill="#2F2E41"/>
<path d="M207.677 228.996C207.699 229.114 207.711 229.233 207.711 229.353C207.711 230.403 206.86 231.254 205.81 231.254H139.321C138.496 231.254 137.827 230.585 137.827 229.76C137.827 229.646 137.84 229.533 137.865 229.423L137.923 229.173C138.931 224.789 142.833 221.683 147.331 221.683H199.439C203.409 221.683 206.82 224.504 207.564 228.405L207.677 228.996Z" fill="#2F2E41"/>
<path d="M234.604 227.136C234.477 228.008 233.996 228.927 232.91 229.797C230.145 232.012 225.351 230.664 222.801 229.694C221.642 229.254 220.475 228.825 219.353 228.301C217.71 227.534 215.44 226.061 215.045 223.669C214.967 223.199 215.152 222.723 215.52 222.422C217.158 221.033 222.591 217.607 232.222 222.567C232.932 222.923 233.566 223.589 234.053 224.488C234.444 225.22 234.75 226.148 234.604 227.136Z" fill="#2F2E41"/>
<path opacity="0.1" d="M234.053 224.488C234.874 226.027 233.774 227.734 232.164 228.403C228.355 229.987 224.826 229.439 221.22 225.428C219.748 223.792 219.424 220.222 221.616 220.026C224.301 219.786 227.824 220.302 232.222 222.567C232.932 222.923 233.566 223.589 234.053 224.488Z" fill="black"/>
<path d="M228.624 225.428C229.556 225.428 230.312 225.055 230.312 224.596C230.312 224.136 229.556 223.763 228.624 223.763C227.691 223.763 226.935 224.136 226.935 224.596C226.935 225.055 227.691 225.428 228.624 225.428Z" fill="#F2F2F2"/>
<path d="M179.004 191.307C180.367 191.307 181.472 189.537 181.472 187.353C181.472 185.17 180.367 183.4 179.004 183.4C177.641 183.4 176.536 185.17 176.536 187.353C176.536 189.537 177.641 191.307 179.004 191.307Z" fill="#F2F2F2"/>
<path opacity="0.1" d="M206.67 229.173C207.245 229.173 207.711 229.639 207.711 230.213C207.711 230.788 207.245 231.254 206.67 231.254H139.321C138.496 231.254 137.827 230.585 137.827 229.76V229.643C137.827 229.607 137.831 229.571 137.839 229.537C137.888 229.324 138.078 229.173 138.297 229.173H206.67Z" fill="black"/>
<path d="M67.8685 115.389V76.8858C67.8685 64.5734 57.8874 54.5923 45.575 54.5923C33.2626 54.5923 23.2815 64.5734 23.2815 76.8858V115.389C23.2815 127.701 33.2626 137.682 45.575 137.682C57.8874 137.682 67.8685 127.701 67.8685 115.389Z" fill="#2F2E41"/>
<path d="M57.6061 46.3521H33.5439C25.39 46.3521 18.7799 52.9621 18.7799 61.116C18.7799 69.2699 25.39 75.8799 33.5439 75.8799H57.6061C65.76 75.8799 72.3701 69.2699 72.3701 61.116C72.3701 52.9621 65.76 46.3521 57.6061 46.3521Z" fill="#3F3D56"/>
<path d="M57.6061 81.3733H33.5439C25.39 81.3733 18.7799 87.9833 18.7799 96.1372C18.7799 104.291 25.39 110.901 33.5439 110.901H57.6061C65.76 110.901 72.3701 104.291 72.3701 96.1372C72.3701 87.9833 65.76 81.3733 57.6061 81.3733Z" fill="#3F3D56"/>
<path d="M57.6061 116.395H33.5439C25.39 116.395 18.7799 123.005 18.7799 131.159C18.7799 139.313 25.39 145.923 33.5439 145.923H57.6061C65.76 145.923 72.3701 139.313 72.3701 131.159C72.3701 123.005 65.76 116.395 57.6061 116.395Z" fill="#3F3D56"/>
<path opacity="0.4" d="M61.652 55.2809V53.2171C61.652 52.27 60.8843 51.5022 59.9372 51.5022C58.9901 51.5022 58.2223 52.27 58.2223 53.2171V55.2809C58.2223 56.228 58.9901 56.9958 59.9372 56.9958C60.8843 56.9958 61.652 56.228 61.652 55.2809Z" fill="#6C63FF"/>
<path opacity="0.8" d="M66.5823 55.2809V53.2171C66.5823 52.27 65.8145 51.5022 64.8674 51.5022C63.9203 51.5022 63.1526 52.27 63.1526 53.2171V55.2809C63.1526 56.228 63.9203 56.9958 64.8674 56.9958C65.8145 56.9958 66.5823 56.228 66.5823 55.2809Z" fill="#6C63FF"/>
<path d="M71.5126 55.2809V53.2171C71.5126 52.27 70.7448 51.5022 69.7977 51.5022C68.8506 51.5022 68.0829 52.27 68.0829 53.2171V55.2809C68.0829 56.228 68.8506 56.9958 69.7977 56.9958C70.7448 56.9958 71.5126 56.228 71.5126 55.2809Z" fill="#6C63FF"/>
<path opacity="0.4" d="M61.652 89.9588V87.8951C61.652 86.948 60.8843 86.1802 59.9372 86.1802C58.9901 86.1802 58.2223 86.948 58.2223 87.8951V89.9588C58.2223 90.9059 58.9901 91.6737 59.9372 91.6737C60.8843 91.6737 61.652 90.9059 61.652 89.9588Z" fill="#6C63FF"/>
<path opacity="0.8" d="M66.5823 89.9588V87.8951C66.5823 86.948 65.8145 86.1802 64.8674 86.1802C63.9203 86.1802 63.1526 86.948 63.1526 87.8951V89.9588C63.1526 90.9059 63.9203 91.6737 64.8674 91.6737C65.8145 91.6737 66.5823 90.9059 66.5823 89.9588Z" fill="#6C63FF"/>
<path d="M71.5126 89.9588V87.8951C71.5126 86.948 70.7448 86.1802 69.7977 86.1802C68.8506 86.1802 68.0829 86.948 68.0829 87.8951V89.9588C68.0829 90.9059 68.8506 91.6737 69.7977 91.6737C70.7448 91.6737 71.5126 90.9059 71.5126 89.9588Z" fill="#6C63FF"/>
<path opacity="0.4" d="M61.652 124.637V122.573C61.652 121.626 60.8843 120.858 59.9372 120.858C58.9901 120.858 58.2223 121.626 58.2223 122.573V124.637C58.2223 125.584 58.9901 126.352 59.9372 126.352C60.8843 126.352 61.652 125.584 61.652 124.637Z" fill="#6C63FF"/>
<path opacity="0.8" d="M66.5823 124.637V122.573C66.5823 121.626 65.8145 120.858 64.8674 120.858C63.9203 120.858 63.1526 121.626 63.1526 122.573V124.637C63.1526 125.584 63.9203 126.352 64.8674 126.352C65.8145 126.352 66.5823 125.584 66.5823 124.637Z" fill="#6C63FF"/>
<path d="M71.5126 124.637V122.573C71.5126 121.626 70.7448 120.858 69.7977 120.858C68.8506 120.858 68.0829 121.626 68.0829 122.573V124.637C68.0829 125.584 68.8506 126.352 69.7977 126.352C70.7448 126.352 71.5126 125.584 71.5126 124.637Z" fill="#6C63FF"/>
<path d="M67.8685 211.846C77.2211 211.846 84.803 199.702 84.803 184.721C84.803 169.741 77.2211 157.597 67.8685 157.597C58.5158 157.597 50.934 169.741 50.934 184.721C50.934 199.702 58.5158 211.846 67.8685 211.846Z" fill="#2F2E41"/>
<path d="M65.2962 218.2V208.581C65.2962 207.16 64.1445 206.009 62.7238 206.009C61.3032 206.009 60.1515 207.16 60.1515 208.581V218.2C60.1515 219.621 61.3032 220.772 62.7238 220.772C64.1445 220.772 65.2962 219.621 65.2962 218.2Z" fill="#2F2E41"/>
<path d="M75.5855 218.2V208.581C75.5855 207.16 74.4338 206.009 73.0131 206.009C71.5925 206.009 70.4408 207.16 70.4408 208.581V218.2C70.4408 219.621 71.5925 220.772 73.0131 220.772C74.4338 220.772 75.5855 219.621 75.5855 218.2Z" fill="#2F2E41"/>
<path d="M64.4387 223.519C66.8065 223.519 68.7259 222.366 68.7259 220.944C68.7259 219.522 66.8065 218.369 64.4387 218.369C62.071 218.369 60.1515 219.522 60.1515 220.944C60.1515 222.366 62.071 223.519 64.4387 223.519Z" fill="#2F2E41"/>
<path d="M74.728 223.176C77.0958 223.176 79.0152 222.023 79.0152 220.601C79.0152 219.179 77.0958 218.026 74.728 218.026C72.3603 218.026 70.4408 219.179 70.4408 220.601C70.4408 222.023 72.3603 223.176 74.728 223.176Z" fill="#2F2E41"/>
<path d="M68.2972 187.124C71.4937 187.124 74.0849 182.974 74.0849 177.854C74.0849 172.734 71.4937 168.584 68.2972 168.584C65.1007 168.584 62.5095 172.734 62.5095 177.854C62.5095 182.974 65.1007 187.124 68.2972 187.124Z" fill="white"/>
<path d="M68.2972 180.944C69.3627 180.944 70.2264 179.561 70.2264 177.854C70.2264 176.147 69.3627 174.764 68.2972 174.764C67.2317 174.764 66.368 176.147 66.368 177.854C66.368 179.561 67.2317 180.944 68.2972 180.944Z" fill="#3F3D56"/>
<path d="M51.4415 159.496C50.0741 149.687 54.4451 139.776 61.2043 137.359C67.9636 134.941 74.5515 140.933 75.9189 150.742C77.2863 160.55 72.8067 164.168 66.0474 166.585C59.2882 169.003 52.8089 169.305 51.4415 159.496Z" fill="#6C63FF"/>
<path d="M83.7514 179.311C88.0505 176.364 91.0673 172.222 90.4897 170.061C89.912 167.899 85.9587 168.536 81.6596 171.483C77.3605 174.43 74.3436 178.572 74.9213 180.733C75.4989 182.895 79.4523 182.258 83.7514 179.311Z" fill="#2F2E41"/>
<path d="M52.026 197.508C56.3251 194.561 59.342 190.42 58.7643 188.258C58.1867 186.096 54.2333 186.733 49.9342 189.68C45.6351 192.627 42.6183 196.769 43.1959 198.931C43.7735 201.092 47.7269 200.456 52.026 197.508Z" fill="#2F2E41"/>
<path d="M77.7291 192.618C77.7291 195.273 73.4615 200.515 68.7259 200.515C63.9904 200.515 59.5085 195.616 59.5085 192.961C59.5085 190.307 63.9904 190.901 68.7259 190.901C73.4615 190.901 77.7291 189.963 77.7291 192.618Z" fill="white"/>
</g>
<defs>
<clipPath id="clip0">
<rect width="240" height="240" fill="white"/>
</clipPath>
</defs>
</svg>
