<svg width="240" height="240" viewBox="0 0 240 240" fill="none" xmlns="http://www.w3.org/2000/svg">
<g clip-path="url(#clip0)">
<g opacity="0.5">
<path opacity="0.5" d="M105.466 0H0V142.61H105.466V0Z" fill="url(#paint0_linear)"/>
</g>
<path d="M104.033 2.69775H1.2291V140.251H104.033V2.69775Z" fill="#F2F2F2"/>
<path d="M104.033 2.69775H1.2291V33.3781H104.033V2.69775Z" fill="#6C63FF"/>
<path opacity="0.1" d="M104.033 2.69775H1.2291V33.3781H104.033V2.69775Z" fill="black"/>
<path d="M95.842 44.5002H9.42102V62.3689H95.842V44.5002Z" fill="#E0E0E0"/>
<path d="M72.4952 75.854H9.42102V81.9231H72.4952V75.854Z" fill="#E0E0E0"/>
<path d="M50.3779 86.3066H9.42102V92.3758H50.3779V86.3066Z" fill="#E0E0E0"/>
<path d="M63.4856 96.759H9.42102V102.828H63.4856V96.759Z" fill="#E0E0E0"/>
<path d="M72.4952 107.208H9.42102V113.277H72.4952V107.208Z" fill="#E0E0E0"/>
<path d="M30.5143 117.66H9.42102V123.729H30.5143V117.66Z" fill="#E0E0E0"/>
<g opacity="0.5">
<path opacity="0.5" d="M240 0H134.534V142.61H240V0Z" fill="url(#paint1_linear)"/>
</g>
<path d="M135.969 140.247L238.773 140.247V2.69382L135.969 2.69382V140.247Z" fill="#F2F2F2"/>
<path d="M135.969 33.3743L238.773 33.3743V2.69397L135.969 2.69397V33.3743Z" fill="#6C63FF"/>
<path opacity="0.1" d="M135.969 33.3743L238.773 33.3743V2.69397L135.969 2.69397V33.3743Z" fill="black"/>
<path d="M144.16 62.3728L230.581 62.3728V44.5042L144.16 44.5042V62.3728Z" fill="#E0E0E0"/>
<path d="M167.505 81.927L230.579 81.927V75.8579L167.505 75.8579V81.927Z" fill="#E0E0E0"/>
<path d="M189.622 92.3757L230.579 92.3757V86.3066L189.622 86.3066V92.3757Z" fill="#E0E0E0"/>
<path d="M176.517 102.824L230.581 102.824V96.7554L176.517 96.7554V102.824Z" fill="#E0E0E0"/>
<path d="M167.505 113.277L230.579 113.277V107.208L167.505 107.208V113.277Z" fill="#E0E0E0"/>
<path d="M209.488 123.729H230.581V117.66H209.488V123.729Z" fill="#E0E0E0"/>
<g opacity="0.5">
<path opacity="0.5" d="M185.867 62.2209H54.3885V240.004H185.867V62.2209Z" fill="url(#paint2_linear)"/>
</g>
<path d="M184.082 65.5806H55.9209V237.057H184.082V65.5806Z" fill="white"/>
<path d="M184.082 65.5806H55.9209V103.825H184.082V65.5806Z" fill="#6C63FF"/>
<path d="M173.868 117.695H66.1317V139.971H173.868V117.695Z" fill="#F5F5F5"/>
<path d="M144.763 156.784H66.1317V164.348H144.763V156.784Z" fill="#E0E0E0"/>
<path d="M117.191 169.814H66.1317V177.378H117.191V169.814Z" fill="#E0E0E0"/>
<path d="M133.531 182.84H66.1317V190.404H133.531V182.84Z" fill="#E0E0E0"/>
<path d="M144.763 195.87H66.1317V203.434H144.763V195.87Z" fill="#E0E0E0"/>
<path d="M92.4274 208.899H66.1317V216.463H92.4274V208.899Z" fill="#E0E0E0"/>
<path d="M102.383 125.263H71.7479V131.986H102.383V125.263Z" fill="#69F0AE"/>
</g>
<defs>
<linearGradient id="paint0_linear" x1="52.7332" y1="142.61" x2="52.7332" y2="0" gradientUnits="userSpaceOnUse">
<stop stop-color="#808080" stop-opacity="0.25"/>
<stop offset="0.54" stop-color="#808080" stop-opacity="0.12"/>
<stop offset="1" stop-color="#808080" stop-opacity="0.1"/>
</linearGradient>
<linearGradient id="paint1_linear" x1="-33094.7" y1="68656.1" x2="-33094.7" y2="16415.1" gradientUnits="userSpaceOnUse">
<stop stop-color="#808080" stop-opacity="0.25"/>
<stop offset="0.54" stop-color="#808080" stop-opacity="0.12"/>
<stop offset="1" stop-color="#808080" stop-opacity="0.1"/>
</linearGradient>
<linearGradient id="paint2_linear" x1="66845.4" y1="109665" x2="66845.4" y2="28477.3" gradientUnits="userSpaceOnUse">
<stop stop-color="#808080" stop-opacity="0.25"/>
<stop offset="0.54" stop-color="#808080" stop-opacity="0.12"/>
<stop offset="1" stop-color="#808080" stop-opacity="0.1"/>
</linearGradient>
<clipPath id="clip0">
<rect width="240" height="240" fill="white"/>
</clipPath>
</defs>
</svg>
