<svg width="64" height="64" viewBox="0 0 64 64" fill="none" xmlns="http://www.w3.org/2000/svg">
<g clip-path="url(#clip0)">
<path d="M63.9838 11.9308C63.9881 11.9053 63.9955 11.8797 63.9977 11.8541C64.0051 11.7753 63.9966 11.6953 63.987 11.6154C63.9849 11.5952 63.9881 11.576 63.9849 11.5558C63.9657 11.4503 63.9305 11.3469 63.8783 11.2478C63.8698 11.2308 63.8581 11.2148 63.8485 11.1977C63.8463 11.1956 63.8463 11.1924 63.8453 11.1892C63.8442 11.1871 63.841 11.186 63.8399 11.1828C63.8325 11.1711 63.8261 11.1583 63.8186 11.1476C63.7526 11.0507 63.6727 10.9708 63.5831 10.9026C63.5629 10.8876 63.5395 10.8791 63.5181 10.8653C63.4393 10.8131 63.3562 10.7704 63.2667 10.7417C63.2272 10.7289 63.1878 10.7225 63.1473 10.715C63.0695 10.699 62.9918 10.6916 62.9108 10.6937C62.8682 10.6948 62.8277 10.6969 62.785 10.7033C62.7573 10.7076 62.7307 10.7033 62.703 10.7097L0.851175 23.4922C0.411097 23.5839 0.074378 23.9408 0.0115096 24.3862C-0.0513587 24.8316 0.171344 25.2685 0.5688 25.4784L18.2913 34.8266L21.3995 52.075C21.3974 52.0877 21.4006 52.1016 21.3995 52.1144C21.3889 52.1996 21.3878 52.2827 21.3985 52.3669C21.4038 52.4095 21.4091 52.45 21.4198 52.4916C21.4443 52.5928 21.4837 52.6877 21.537 52.7772C21.5477 52.7942 21.5477 52.8145 21.5594 52.8315C21.5626 52.8368 21.5679 52.8411 21.5722 52.8454C21.586 52.8656 21.6052 52.8816 21.6212 52.9018C21.6713 52.9636 21.7235 53.0201 21.7831 53.0681C21.7927 53.0755 21.7991 53.0872 21.8098 53.0947C21.8258 53.1064 21.8439 53.1096 21.8599 53.1203C21.9249 53.1629 21.992 53.1981 22.0634 53.2258C22.0922 53.2364 22.1188 53.2492 22.1486 53.2577C22.2445 53.2854 22.3436 53.3046 22.4438 53.3046C22.4449 53.3046 22.4459 53.3046 22.447 53.3046C22.4513 53.3046 22.4555 53.3025 22.4598 53.3025C22.4779 53.3035 22.496 53.3046 22.5141 53.3046C22.8093 53.3046 23.0757 53.1725 23.2728 52.969L35.0782 45.0987L47.4388 53.1331C47.6135 53.246 47.816 53.3046 48.0195 53.3046C48.1314 53.3046 48.2454 53.2865 48.3552 53.2503C48.662 53.148 48.9071 52.9114 49.019 52.6067L63.9327 12.1269C63.9465 12.0907 63.9582 12.0534 63.9678 12.015C63.9721 11.999 63.9731 11.9831 63.9763 11.9681C63.9795 11.9564 63.9817 11.9436 63.9838 11.9308ZM51.6424 18.7323L26.0763 37.53C26.0347 37.5609 26.0017 37.5992 25.9655 37.6355C25.9516 37.6483 25.9378 37.6589 25.9261 37.6728C25.9037 37.6973 25.8834 37.7218 25.8632 37.7484C25.844 37.774 25.8291 37.8006 25.812 37.8273C25.7726 37.8912 25.7396 37.9573 25.714 38.0276C25.7087 38.0415 25.7002 38.0521 25.6959 38.066C25.6948 38.0702 25.6906 38.0724 25.6895 38.0766L22.7592 47.5996L20.4373 34.7158L51.6424 18.7323ZM24.4108 49.6497L27.3156 40.0554L31.8378 42.9953L33.1314 43.836L28.737 46.7652L24.4108 49.6497ZM55.4571 14.3838L19.2567 32.9257L4.18959 24.9787L55.4571 14.3838ZM47.4814 50.6194L31.0663 39.9509L28.5804 38.3345L60.7114 14.7088L47.4814 50.6194Z" fill="#0837DE"/>
</g>
<defs>
<clipPath id="clip0">
<rect width="64" height="64" fill="white"/>
</clipPath>
</defs>
</svg>
