<svg width="78" height="78" viewBox="0 0 78 78" fill="none" xmlns="http://www.w3.org/2000/svg">
<path d="M71.5 0H6.50005C2.85995 0 0 2.85995 0 6.50005V71.5001C0 75.1401 2.85995 78 6.50005 78H36.4001H52.0001H71.5001C75.1401 78 78 75.1401 78 71.5V6.50005C78 2.85995 75.1401 0 71.5 0ZM39 75.3999V49.4001H28.5999V39H39V29.9001C39 22.4901 44.7201 16.2501 52 15.6H63.6999V26.0001H53.2999C51.0898 26.0001 49.3999 27.69 49.3999 29.9001V39H62.4V49.4001H49.4001V75.4001H39V75.3999ZM75.3999 71.5C75.3999 73.71 73.71 75.3999 71.5 75.3999H52V52H64.9999V36.3999H52V29.8999C52 29.1199 52.5199 28.5999 53.2999 28.5999H66.3V12.9999H51.87C43.1601 13.7799 36.3999 21.19 36.3999 29.8999V36.3999H25.9999V52H36.3999V75.3999H6.50005C4.29 75.3999 2.60005 73.71 2.60005 71.5V6.50005C2.60005 4.29 4.29 2.60005 6.50005 2.60005H71.5001C73.7102 2.60005 75.4001 4.29 75.4001 6.50005V71.5H75.3999Z" fill="#0837DE"/>
</svg>
