<svg width="78" height="78" viewBox="0 0 78 78" fill="none" xmlns="http://www.w3.org/2000/svg">
<path d="M55.77 0H22.23C10.0101 0 0 10.0101 0 22.23V55.77C0 67.9899 10.0101 78 22.23 78H55.77C67.9899 78 78 67.9899 78 55.77V22.23C78 10.0101 67.9899 0 55.77 0ZM75.3999 55.77C75.3999 66.5601 66.5599 75.3999 55.77 75.3999H22.23C11.4399 75.3999 2.60005 66.5599 2.60005 55.77V22.23C2.60005 11.4399 11.4401 2.60005 22.23 2.60005H55.77C66.5601 2.60005 75.3999 11.4401 75.3999 22.23V55.77Z" fill="#0837DE"/>
<path d="M55.77 7.7998H22.23C14.3001 7.7998 7.8 14.2999 7.8 22.2298V55.7698C7.8 63.6997 14.3001 70.1998 22.23 70.1998H55.77C63.6999 70.1998 70.2 63.6997 70.2 55.7698V22.2298C70.2 14.2999 63.6999 7.7998 55.77 7.7998ZM67.5999 55.7698C67.5999 62.2699 62.2699 67.5998 55.77 67.5998H22.23C15.73 67.5998 10.4001 62.2697 10.4001 55.7698V22.2298C10.4001 15.7298 15.7301 10.3999 22.23 10.3999H55.77C62.27 10.3999 67.5999 15.7299 67.5999 22.2298V55.7698Z" fill="#0837DE"/>
<path d="M39 18.2002C27.56 18.2002 18.2001 27.5602 18.2001 39.0001C18.2001 50.4401 27.56 59.8001 39 59.8001C50.4399 59.8001 59.7999 50.4401 59.7999 39.0001C59.7999 27.5602 50.4399 18.2002 39 18.2002ZM39 57.2002C28.9899 57.2002 20.7999 49.0102 20.7999 39.0001C20.7999 28.9901 28.9899 20.8001 39 20.8001C49.01 20.8001 57.2 28.9901 57.2 39.0001C57.2 49.0102 49.01 57.2002 39 57.2002Z" fill="#0837DE"/>
<path d="M39 24.7002C31.0701 24.7002 24.7 31.0701 24.7 39.0002C24.7 46.9302 31.0699 53.3003 39 53.3003C46.9301 53.3003 53.3001 46.9303 53.3001 39.0002C53.3001 31.0701 46.93 24.7002 39 24.7002ZM39 50.7002C32.5 50.7002 27.3 45.5003 27.3 39.0002C27.3 32.5002 32.5 27.3002 39 27.3002C45.5001 27.3002 50.7 32.5002 50.7 39.0002C50.7 45.5003 45.5001 50.7002 39 50.7002Z" fill="#0837DE"/>
<path d="M59.7999 14.2998C57.5899 14.2998 55.8999 15.9898 55.8999 18.1998C55.8999 20.4099 57.5899 22.0998 59.7999 22.0998C62.01 22.0998 63.6999 20.4099 63.6999 18.1998C63.6999 15.9898 62.01 14.2998 59.7999 14.2998Z" fill="#0837DE"/>
</svg>
