<svg width="78" height="77" viewBox="0 0 78 77" fill="none" xmlns="http://www.w3.org/2000/svg">
<path d="M10.53 0C7.67005 0 5.07 1.04005 3.12 2.99005C1.04005 5.07 0 7.6699 0 10.3999C0 13.2598 1.17 15.8599 3.12 17.8099C5.07 19.7599 7.8 20.9299 10.4001 20.7999C10.4001 20.7999 10.53 20.7999 10.6601 20.7999C13.2602 20.7999 15.7301 19.7599 17.6801 17.8099C19.6301 15.8599 20.8001 13.2598 20.8001 10.3999C20.93 7.6699 19.76 5.06985 17.8101 3.11985C15.8601 1.0399 13.26 0 10.53 0ZM15.8601 15.99C14.43 17.4201 12.48 18.33 10.4001 18.2001C8.45005 18.2001 6.3701 17.4201 4.94005 15.99C3.38005 14.5599 2.60005 12.48 2.60005 10.4001C2.60005 8.3201 3.38005 6.3701 4.94005 4.8101C6.3701 3.38005 8.3201 2.60005 10.53 2.60005C12.48 2.60005 14.43 3.38005 15.8601 4.8101C17.4201 6.3701 18.2001 8.3201 18.2001 10.4001C18.2001 12.48 17.4201 14.5599 15.8601 15.99Z" fill="#0837DE"/>
<path d="M15.6 23.3999H5.06999C2.99004 23.3999 1.29994 25.0898 1.29994 27.2999V72.7999C1.29994 74.8799 3.11999 76.6999 5.19994 76.6999H15.6C17.6799 76.6999 19.5 74.8799 19.5 72.9299V27.2999C19.5 25.2198 17.6799 23.3999 15.6 23.3999ZM16.8999 72.9299C16.8999 73.5799 16.2499 74.0999 15.6 74.0999H5.19994C4.54989 74.0999 3.89999 73.4498 3.89999 72.7999V27.2999C3.89999 26.6498 4.41994 26 5.06999 26H15.6C16.2501 26 16.8999 26.65 16.8999 27.2999V72.9299Z" fill="#0837DE"/>
<path d="M59.8 22.1001H57.07C52 22.1001 47.19 24.3101 44.07 27.8201V26.0001C44.07 24.7001 42.7701 23.4 41.47 23.4H28.47C27.3 23.4 25.87 24.4401 25.87 25.87V74.3599C25.87 75.79 27.3 76.6999 28.47 76.6999H42.7701C43.9401 76.6999 45.3701 75.79 45.3701 74.3599V46.2799C45.3701 41.9899 48.4901 38.6099 52.5201 38.6099C54.6 38.6099 56.55 39.3899 57.9801 40.8199C59.28 41.9899 59.8001 43.81 59.8001 46.15V74.1C59.8001 75.4 61.1001 76.7001 62.4002 76.7001H75.4001C76.7001 76.7001 78.0002 75.4001 78.0002 74.1V40.56C78 30.1602 70.0701 22.1001 59.8 22.1001ZM75.4 73.9701L75.27 74.1H62.53L62.4 46.1501C62.4 43.0301 61.62 40.6901 59.9301 39.0002C57.9801 37.0502 55.38 36.0101 52.65 36.0101C47.19 36.1401 42.9 40.5602 42.9 46.2801V74.1H28.6V26.0001H41.47L41.5999 26.13V34.32L45.1099 30.81L45.2399 30.6801C47.8399 27.0401 52.3898 24.7001 57.1999 24.7001H59.9299C68.6399 24.7001 75.4 31.7201 75.4 40.5602V73.9701Z" fill="#0837DE"/>
</svg>
