<svg width="64" height="64" viewBox="0 0 64 64" fill="none" xmlns="http://www.w3.org/2000/svg">
<path d="M32.1059 0C14.6226 0 0.423809 14.1987 0.423809 31.5762C0.423809 37.0862 1.90727 42.3841 4.66225 47.2583L1.52588e-05 64L17.0596 59.4437C22.0397 62.0927 27.2317 63.5761 32.1059 63.5761C49.3774 63.5761 64 48.9535 64 31.5761C64 14.1987 49.6953 0 32.1059 0ZM32.1059 61.457C27.4437 61.457 22.4636 59.9735 17.6953 57.3246L17.2715 57.1126L2.96695 61.0331L6.88738 46.9404L6.67542 46.5167C4.02637 41.9603 2.54303 36.7683 2.54303 31.5762C2.54303 15.3642 15.7881 2.11922 32.1059 2.11922C48.5297 2.11922 61.8808 15.3642 61.8808 31.5762C61.8808 47.7882 48.212 61.457 32.1059 61.457Z" fill="#0837DE"/>
<path d="M32.1059 5.29785C17.5894 5.29785 5.72179 17.0594 5.72179 31.5759C5.72179 36.768 7.20526 41.6422 9.85419 45.9866L10.278 46.5164L7.41722 56.5826L17.8014 53.9336L18.3312 54.2515C22.6755 56.9005 27.4438 58.278 32.1061 58.278C46.7286 58.278 58.702 46.3044 58.702 31.5759C58.702 17.0594 46.7285 5.29785 32.1059 5.29785ZM32 56.2648C27.7616 56.2648 23.4172 54.8874 19.3907 52.4503L18.1192 51.6025L10.3842 53.5098L12.5034 46.0926L11.6557 44.7152C9.11265 40.7946 7.84114 36.2383 7.84114 31.5761C7.84114 18.331 18.755 7.4172 32.1061 7.4172C45.563 7.4172 56.5829 18.331 56.5829 31.5761C56.5828 45.139 45.5629 56.1587 32 56.2648Z" fill="#0837DE"/>
<path d="M48 37.4039L41.3245 34.3311C40.3709 33.9073 39.4172 34.2251 38.7815 34.9668L36.2385 38.2516C34.3312 37.5099 29.0332 35.1788 25.9604 29.4569L28.2915 26.7019C28.8214 26.0661 28.9273 25.2184 28.6094 24.4768L25.7485 17.6953C25.4307 16.9536 24.7949 16.4238 23.9472 16.4238L21.9339 16.3179C21.0862 16.3179 20.1325 16.5298 19.4968 17.1656C18.5432 18.0133 16.7418 19.8146 16.212 22.2517C15.4703 25.7484 16.6358 29.8809 19.6027 33.9074C21.404 36.4504 26.914 43.9737 37.51 46.9405C38.5695 47.2583 39.6292 47.3643 40.5828 47.3643C42.3842 47.3643 44.0795 46.8344 45.5629 45.9868C47.2584 44.9273 48.4238 43.1259 48.8477 41.2186L49.1656 39.7351C49.3774 38.7813 48.8477 37.8277 48 37.4039ZM46.6225 40.6886C46.3046 42.066 45.4569 43.3376 44.2913 44.0793C42.4899 45.2449 40.3707 45.4567 38.0397 44.821C28.1854 42.066 22.9933 34.9667 21.298 32.6355C18.755 29.1389 17.6953 25.5362 18.3311 22.6753C18.7549 20.768 20.1324 19.3905 20.9801 18.6488C21.1921 18.4368 21.51 18.3309 21.8278 18.3309L23.9471 18.5429L26.808 25.2184L24.2649 28.0793C23.8411 28.6091 23.7351 29.4567 24.053 30.0926C27.5496 36.8741 33.9073 39.5231 35.8145 40.1589C36.5562 40.3708 37.298 40.1589 37.8278 39.5231L40.3709 36.1324L47.0464 39.2053L46.6225 40.6886Z" fill="#0837DE"/>
</svg>
