<svg width="78" height="78" viewBox="0 0 78 78" fill="none" xmlns="http://www.w3.org/2000/svg">
<g clip-path="url(#clip0)">
<path d="M77.5539 14.3776C77.1568 13.9804 76.4949 13.848 75.9652 13.9804L73.3173 14.9073C74.9061 13.0538 75.9652 11.0679 76.6271 9.21444C76.892 8.55248 76.7596 8.02294 76.3623 7.62567C75.9652 7.22856 75.3032 7.09614 74.7735 7.36083C71.0666 8.9496 67.8892 10.2735 65.2414 11.0678C65.2414 11.2002 65.1089 11.0678 64.9765 11.0678C62.8582 9.87625 57.6949 7.22841 53.988 7.22841C44.5881 7.36083 37.0418 15.3044 37.0418 24.969V25.4985C23.2731 22.8506 15.7268 18.8789 7.5184 10.2734L6.19478 8.94945L5.40039 10.5382C0.899082 19.1437 4.07647 26.9548 9.23974 32.2505C6.85674 31.8534 5.26797 31.059 3.81162 29.8675C3.28208 29.4704 2.62012 29.338 1.95816 29.7351C1.42862 30 1.16377 30.7942 1.2962 31.4562C3.14966 37.6785 7.78339 42.7095 12.8142 45.7545C10.4312 45.7545 8.44536 45.4896 6.45947 44.1657C5.92993 43.9009 5.13555 43.9009 4.60601 44.2981C4.07647 44.6954 3.81162 45.3572 4.07647 46.0192C6.45947 52.7712 11.0932 56.3457 18.5072 57.2725C14.6679 59.5233 9.63701 61.3767 1.82589 61.5091C1.0315 61.5091 0.369543 62.0387 0.104849 62.7006C-0.159997 63.495 0.104849 64.157 0.634388 64.6865C5.40054 68.5259 15.9918 70.7766 29.0986 70.7766C52.3995 70.7766 71.464 49.9911 71.464 24.4394V24.0423C74.3767 22.586 76.7597 19.8057 77.9512 15.9663C78.0835 15.4366 77.9511 14.7747 77.5539 14.3776ZM69.6104 21.9238L68.816 22.1887V24.4394C68.816 48.5347 50.943 68.1288 29.0984 68.1288C17.0507 68.1288 8.9749 66.1429 4.60601 64.0246C13.7411 63.3626 19.0367 60.4499 23.1409 57.2725L26.4508 54.8895H22.479C14.9327 54.8895 10.299 52.7712 7.65112 47.7404C10.0341 48.5347 12.5496 48.5347 15.3298 48.4023C16.3889 48.2699 17.4481 48.2699 18.5072 48.2699L18.9043 45.6221C13.8735 44.1657 7.91582 39.6644 5.00312 33.5745C7.65097 34.766 10.5635 35.0308 13.2114 35.0308H17.3156L14.0059 32.6477C11.2256 30.6618 3.01739 23.645 6.98916 13.5832C15.4622 21.9238 23.5382 25.7632 38.1012 28.411L39.69 28.6759V24.969C39.69 16.7607 46.0448 10.0087 53.9883 9.87625C57.0333 9.74383 62.0643 12.5241 63.5205 13.3185C64.3148 13.7156 65.1092 13.848 65.9035 13.5833C67.8894 12.9214 70.2724 11.9946 72.9202 10.9355C71.7287 12.9214 70.1399 14.7748 68.0218 16.496C67.4922 16.8931 67.3598 17.6875 67.6247 18.3495C67.8895 19.0115 68.6837 19.2763 69.3457 19.0115L74.509 17.2904C73.5822 19.0113 72.1258 20.9972 69.6104 21.9238Z" fill="#0837DE"/>
</g>
<defs>
<clipPath id="clip0">
<rect width="78" height="78" fill="white"/>
</clipPath>
</defs>
</svg>
