<svg width="401" height="280" viewBox="0 0 401 280" fill="none" xmlns="http://www.w3.org/2000/svg">
<g clip-path="url(#clip0)">
<path d="M322.153 260.423C319.557 270.284 310.459 276.446 310.459 276.446C310.459 276.446 305.571 266.621 308.167 256.76C310.763 246.899 319.861 240.736 319.861 240.736C319.861 240.736 324.749 250.562 322.153 260.423Z" fill="#3F3D56"/>
<path d="M318.215 258.337C310.943 265.502 310.129 276.441 310.129 276.441C310.129 276.441 321.106 275.762 328.378 268.596C335.65 261.431 336.463 250.492 336.463 250.492C336.463 250.492 325.487 251.171 318.215 258.337Z" fill="#6C63FF"/>
<path d="M54.7295 223.12H68.4244L102.172 209.949C102.172 209.949 126.139 200.192 124.182 218.729C122.226 237.267 118.802 262.145 118.802 262.145C118.802 262.145 108.042 257.267 102.172 258.731C96.3032 260.194 100.216 228.974 100.216 228.974C100.216 228.974 52.284 251.901 47.8821 248.974C43.4801 246.047 42.5019 225.559 42.5019 225.559L54.7295 223.12Z" fill="#2F2E41"/>
<path opacity="0.1" d="M54.7295 223.12H68.4244L102.172 209.949C102.172 209.949 126.139 200.192 124.182 218.729C122.226 237.267 118.802 262.145 118.802 262.145C118.802 262.145 108.042 257.267 102.172 258.731C96.3032 260.194 100.216 228.974 100.216 228.974C100.216 228.974 52.284 251.901 47.8821 248.974C43.4801 246.047 42.5019 225.559 42.5019 225.559L54.7295 223.12Z" fill="black"/>
<path d="M76.3059 180.345L92.8796 204.095L131.519 236.291C131.519 236.291 167.223 244.584 162.332 250.438C157.441 256.291 127.606 244.584 127.606 244.584C127.606 244.584 83.0975 212.388 81.6302 209.949C80.1629 207.51 64.0225 184.582 64.0225 184.582L76.3059 180.345Z" fill="#A0616A"/>
<path opacity="0.1" d="M76.3059 180.345L92.8796 204.095L131.519 236.291C131.519 236.291 167.223 244.584 162.332 250.438C157.441 256.291 127.606 244.584 127.606 244.584C127.606 244.584 83.0975 212.388 81.6302 209.949C80.1629 207.51 64.0225 184.582 64.0225 184.582L76.3059 180.345Z" fill="black"/>
<path d="M66.468 161.167L77.2282 182.143C77.2282 182.143 74.7827 192.387 70.8699 193.363C66.9571 194.339 50.3276 180.68 50.3276 180.68L66.468 161.167Z" fill="#D0CDE1"/>
<path opacity="0.1" d="M66.468 161.167L77.2282 182.143C77.2282 182.143 74.7827 192.387 70.8699 193.363C66.9571 194.339 50.3276 180.68 50.3276 180.68L66.468 161.167Z" fill="black"/>
<path d="M197.739 212.259L200.917 225.336C200.952 225.482 200.947 225.635 200.901 225.777L186.483 270.716C186.426 270.894 186.309 271.047 186.153 271.15C185.996 271.253 185.809 271.299 185.622 271.28C185.436 271.262 185.262 271.18 185.128 271.049C184.995 270.918 184.91 270.745 184.889 270.56L182.895 253.053C182.881 252.937 182.893 252.819 182.93 252.708L196.164 212.199C196.219 212.03 196.328 211.883 196.474 211.781C196.621 211.68 196.796 211.629 196.974 211.635C197.152 211.642 197.323 211.707 197.461 211.819C197.599 211.932 197.697 212.086 197.739 212.259Z" fill="#2F2E41"/>
<path d="M196.569 213.363L199.504 224.583L186.787 265.56L183.853 252.877L196.569 213.363Z" fill="#F2F2F2"/>
<path d="M132.497 274.341C132.986 275.804 183.364 273.853 183.853 273.365C184.279 272.754 184.64 272.1 184.929 271.414C185.388 270.438 185.809 269.463 185.809 269.463L183.853 253.667L133.964 251.901C133.964 251.901 132.717 265.287 132.463 271.414C132.399 272.96 132.399 274.048 132.497 274.341Z" fill="#2F2E41"/>
<path opacity="0.1" d="M177.494 255.804L178.472 269.463H156.463V255.804H177.494Z" fill="black"/>
<path opacity="0.1" d="M149.127 260.194L149.258 260.168L148.637 266.048H136.41V260.194H149.127Z" fill="black"/>
<path opacity="0.1" d="M132.497 274.341C132.986 275.804 183.364 273.853 183.853 273.365C184.279 272.754 184.64 272.1 184.929 271.414H132.463C132.399 272.96 132.399 274.048 132.497 274.341Z" fill="black"/>
<path d="M73.8045 154.338C85.9601 154.338 95.8142 144.509 95.8142 132.386C95.8142 120.262 85.9601 110.434 73.8045 110.434C61.6489 110.434 51.7949 120.262 51.7949 132.386C51.7949 144.509 61.6489 154.338 73.8045 154.338Z" fill="#A0616A"/>
<path d="M72.3372 151.898C72.3372 151.898 65.0007 164.582 63.5334 171.411C62.0661 178.241 41.5238 157.752 41.5238 157.752L38.8337 150.679C38.8337 150.679 58.1532 141.654 56.6859 134.337C55.2186 127.02 72.3372 151.898 72.3372 151.898Z" fill="#A0616A"/>
<path d="M76.25 189.948L96.3033 216.29L144.235 251.901C144.235 251.901 178.962 259.218 171.136 264.584C163.31 269.95 140.812 259.706 140.812 259.706C140.812 259.706 92.3904 233.852 82.1193 223.12C71.8481 212.388 52.7731 194.339 52.7731 194.339L76.25 189.948Z" fill="#A0616A"/>
<path d="M49.3494 230.925L55.2186 240.193L90.2468 229.202C97.9325 226.791 106.36 227.678 113.177 231.962C119.291 235.803 123.204 241.901 114.4 250.925C96.7923 268.975 85.0539 259.218 85.0539 259.218C85.0539 259.218 25.8725 287.024 16.0904 273.365C6.30835 259.706 5.81927 252.877 5.81927 252.877C5.81927 252.877 43.4802 229.461 49.3494 230.925Z" fill="#2F2E41"/>
<path d="M122.715 263.121C122.715 263.121 138.366 273.365 119.78 278.243C101.194 283.121 87.4994 276.292 87.4994 276.292C87.4994 276.292 71.359 276.292 71.359 267.999C71.359 259.706 76.7391 258.731 76.7391 258.731L93.3686 261.17C93.3686 261.17 113.422 255.804 122.715 263.121Z" fill="#D0CDE1"/>
<path d="M91.8601 126.864C93.3581 127.53 94.8436 128.318 96.4723 128.511C98.1009 128.705 99.9555 128.138 100.726 126.694C101.142 125.914 101.19 124.996 101.209 124.113C101.268 121.434 101.074 118.538 99.3721 116.465C98.289 115.146 96.7078 114.314 95.5866 113.027C94.7833 112.105 94.2487 110.987 93.673 109.908C91.4925 105.824 88.2639 101.898 83.7769 100.721C81.9033 100.229 79.9378 100.253 78.0005 100.28L66.7011 100.439C64.8726 100.465 63.0158 100.495 61.2654 101.023C57.6284 102.119 54.9803 105.17 52.555 108.087C50.7406 110.269 48.9213 112.474 47.5596 114.963C45.6072 118.595 44.62 122.665 44.692 126.785C44.6769 127.842 44.8137 128.895 45.0982 129.913C45.4311 130.847 45.8435 131.75 46.3309 132.614C48.45 136.765 49.7082 141.95 47.3218 145.954C51.4672 144.265 55.5688 142.051 58.3034 138.514C59.5267 136.932 60.4861 135.08 62.1164 133.919C63.7467 132.758 66.4031 132.657 67.4491 134.361C67.8087 135.051 67.9938 135.817 67.9884 136.594C68.0648 137.873 68.0627 139.201 68.6065 140.362C69.1502 141.523 70.4453 142.46 71.6819 142.112C73.8114 141.514 73.6074 138.254 75.2477 136.774C76.4933 135.649 78.415 135.864 80.0153 135.354C81.8798 134.759 83.2788 133.148 84.076 131.364C84.6819 130.009 84.6731 126.462 85.8197 125.728C87.2575 124.808 90.5273 126.271 91.8601 126.864Z" fill="#2F2E41"/>
<path d="M37.0865 148.365C38.0767 148.101 39.1191 148.104 40.1079 148.373C43.2476 149.213 50.2858 151.439 51.7949 154.825C53.7513 159.216 60.5987 166.045 60.5987 166.045C60.5987 166.045 69.8917 175.314 67.9353 181.655C65.9789 187.997 58.6423 195.314 58.6423 195.314C58.6423 195.314 60.5987 225.559 50.8167 233.364C41.0346 241.169 37.1218 235.803 37.1218 243.12C37.1218 250.438 6.79746 273.365 0.928223 259.218C0.928223 259.218 3.86284 232.876 2.88464 223.608C1.92054 214.473 3.33192 157.479 37.0865 148.365Z" fill="#D0CDE1"/>
<path d="M52.7731 160.679C52.7731 160.679 82.6084 182.631 77.2282 191.899C77.2282 191.899 59.1314 200.68 55.2186 200.192C51.3058 199.705 36.1436 182.631 32.2308 181.167C28.318 179.704 26.3616 153.362 52.7731 160.679Z" fill="#D0CDE1"/>
<path d="M186.071 112.136C199.415 112.136 210.233 101.347 210.233 88.0373C210.233 74.7279 199.415 63.9386 186.071 63.9386C172.727 63.9386 161.909 74.7279 161.909 88.0373C161.909 101.347 172.727 112.136 186.071 112.136Z" fill="#F2F2F2"/>
<path d="M385.638 56.7397H250.237V28.4814H385.638V56.7397ZM250.834 56.1448H385.041V29.0763H250.834V56.1448Z" fill="#3F3D56"/>
<path d="M375.796 34.133H240.992V61.7964H375.796V34.133Z" fill="#6C63FF"/>
<path d="M155.776 7.73386C156.929 7.73386 157.864 6.80162 157.864 5.65164C157.864 4.50167 156.929 3.56943 155.776 3.56943C154.623 3.56943 153.688 4.50167 153.688 5.65164C153.688 6.80162 154.623 7.73386 155.776 7.73386Z" fill="#6C63FF"/>
<path d="M162.934 7.73386C164.087 7.73386 165.021 6.80162 165.021 5.65164C165.021 4.50167 164.087 3.56943 162.934 3.56943C161.781 3.56943 160.846 4.50167 160.846 5.65164C160.846 6.80162 161.781 7.73386 162.934 7.73386Z" fill="#6C63FF"/>
<path d="M170.091 7.73386C171.244 7.73386 172.179 6.80162 172.179 5.65164C172.179 4.50167 171.244 3.56943 170.091 3.56943C168.938 3.56943 168.004 4.50167 168.004 5.65164C168.004 6.80162 168.938 7.73386 170.091 7.73386Z" fill="#6C63FF"/>
<path d="M400.928 163.006H149.811V0H400.928V163.006ZM150.408 162.411H400.332V0.594912H150.408V162.411Z" fill="#3F3D56"/>
<path d="M400.63 9.02328H150.109V9.61819H400.63V9.02328Z" fill="#3F3D56"/>
<path d="M156.372 7.13893C155.901 7.13893 155.439 6.99937 155.047 6.73789C154.655 6.47641 154.349 6.10476 154.168 5.66994C153.988 5.23511 153.94 4.75665 154.032 4.29504C154.124 3.83343 154.352 3.40942 154.685 3.07662C155.019 2.74382 155.444 2.51718 155.907 2.42536C156.37 2.33354 156.85 2.38067 157.285 2.56078C157.721 2.74089 158.094 3.0459 158.356 3.43723C158.618 3.82856 158.758 4.28864 158.758 4.75929C158.758 5.39018 158.506 5.99503 158.059 6.44114C157.611 6.88726 157.005 7.1382 156.372 7.13893ZM156.372 2.97455C156.019 2.97455 155.673 3.07922 155.378 3.27533C155.084 3.47144 154.855 3.75018 154.719 4.0763C154.584 4.40242 154.548 4.76127 154.617 5.10747C154.686 5.45368 154.857 5.77168 155.107 6.02128C155.357 6.27088 155.676 6.44086 156.023 6.50973C156.37 6.57859 156.73 6.54325 157.057 6.40816C157.384 6.27308 157.664 6.04433 157.86 5.75083C158.057 5.45733 158.162 5.11227 158.162 4.75929C158.161 4.28611 157.973 3.83248 157.637 3.4979C157.302 3.16331 156.847 2.9751 156.372 2.97455Z" fill="#3F3D56"/>
<path d="M163.53 7.13893C163.058 7.13893 162.597 6.99937 162.205 6.73789C161.812 6.47641 161.506 6.10476 161.326 5.66994C161.145 5.23511 161.098 4.75665 161.19 4.29504C161.282 3.83343 161.509 3.40942 161.843 3.07662C162.177 2.74382 162.602 2.51718 163.065 2.42536C163.528 2.33354 164.007 2.38067 164.443 2.56078C164.879 2.74089 165.252 3.0459 165.514 3.43723C165.776 3.82856 165.916 4.28864 165.916 4.75929C165.915 5.39018 165.664 5.99503 165.216 6.44114C164.769 6.88726 164.163 7.1382 163.53 7.13893ZM163.53 2.97455C163.176 2.97455 162.83 3.07922 162.536 3.27533C162.242 3.47144 162.012 3.75018 161.877 4.0763C161.741 4.40242 161.706 4.76127 161.775 5.10747C161.844 5.45368 162.015 5.77168 162.265 6.02128C162.515 6.27088 162.834 6.44086 163.181 6.50973C163.528 6.57859 163.888 6.54325 164.215 6.40816C164.542 6.27308 164.821 6.04433 165.018 5.75083C165.215 5.45733 165.32 5.11227 165.32 4.75929C165.319 4.28611 165.13 3.83248 164.795 3.4979C164.459 3.16331 164.005 2.9751 163.53 2.97455Z" fill="#3F3D56"/>
<path d="M170.688 7.13893C170.216 7.13893 169.755 6.99937 169.362 6.73789C168.97 6.47641 168.664 6.10476 168.484 5.66994C168.303 5.23512 168.256 4.75665 168.348 4.29504C168.44 3.83343 168.667 3.40942 169.001 3.07662C169.334 2.74382 169.76 2.51718 170.222 2.42536C170.685 2.33354 171.165 2.38067 171.601 2.56078C172.037 2.74089 172.41 3.04589 172.672 3.43722C172.934 3.82855 173.074 4.28863 173.074 4.75928C173.073 5.39018 172.821 5.99503 172.374 6.44114C171.927 6.88725 171.32 7.1382 170.688 7.13893ZM170.688 2.97455C170.334 2.97455 169.988 3.07922 169.694 3.27533C169.399 3.47144 169.17 3.75018 169.035 4.07629C168.899 4.40241 168.864 4.76126 168.933 5.10747C169.002 5.45367 169.172 5.77168 169.423 6.02128C169.673 6.27088 169.992 6.44086 170.339 6.50973C170.686 6.57859 171.046 6.54325 171.373 6.40816C171.7 6.27308 171.979 6.04433 172.176 5.75083C172.372 5.45733 172.477 5.11227 172.477 4.75928C172.477 4.28611 172.288 3.83248 171.953 3.4979C171.617 3.16331 171.162 2.9751 170.688 2.97455Z" fill="#3F3D56"/>
<path d="M229.061 9.32077H228.465V162.939H229.061V9.32077Z" fill="#3F3D56"/>
<path d="M300.789 84.8492H256.948V90.7983H300.789V84.8492Z" fill="#F2F2F2"/>
<path d="M369.682 84.8492H325.841V90.7983H369.682V84.8492Z" fill="#F2F2F2"/>
<path d="M303.473 88.1212H259.035V81.5772H303.473V88.1212ZM259.632 87.5263H302.876V82.1721H259.632V87.5263Z" fill="#3F3D56"/>
<path d="M300.789 130.955H256.948V136.904H300.789V130.955Z" fill="#F2F2F2"/>
<path d="M303.473 134.227H259.035V127.683H303.473V134.227ZM259.632 133.632H302.876V128.278H259.632V133.632Z" fill="#3F3D56"/>
<path d="M369.831 107.307H257.097V113.256H369.831V107.307Z" fill="#F2F2F2"/>
<path d="M372.515 111.174H259.184V104.63H372.515V111.174ZM259.781 110.579H371.919V105.225H259.781V110.579Z" fill="#3F3D56"/>
<path d="M372.366 88.1212H327.928V81.5772H372.366V88.1212ZM328.525 87.5263H371.77V82.1721H328.525V87.5263Z" fill="#3F3D56"/>
<path d="M190.16 105.833C185.308 105.833 180.564 104.398 176.53 101.709C172.495 99.0207 169.351 95.1991 167.494 90.7279C165.637 86.2567 165.151 81.3367 166.098 76.5901C167.044 71.8435 169.381 67.4834 172.812 64.0613C176.243 60.6392 180.615 58.3087 185.374 57.3646C190.133 56.4204 195.066 56.905 199.549 58.757C204.032 60.609 207.863 63.7454 210.559 67.7693C213.255 71.7933 214.694 76.5242 214.694 81.3638C214.686 87.8513 212.099 94.0709 207.5 98.6582C202.901 103.246 196.665 105.826 190.16 105.833ZM190.16 57.6359C185.455 57.6359 180.855 59.0275 176.943 61.6348C173.03 64.242 169.981 67.9478 168.181 72.2835C166.38 76.6193 165.909 81.3901 166.827 85.9929C167.745 90.5957 170.01 94.8236 173.338 98.142C176.665 101.46 180.904 103.72 185.519 104.636C190.134 105.551 194.917 105.081 199.264 103.286C203.611 101.49 207.327 98.4484 209.941 94.5464C212.555 90.6443 213.95 86.0568 213.95 81.3638C213.943 75.073 211.434 69.0418 206.974 64.5935C202.514 60.1452 196.467 57.643 190.16 57.6359Z" fill="#3F3D56"/>
<path d="M384.201 276.007H279.002V276.749H384.201V276.007Z" fill="#3F3D56"/>
</g>
<defs>
<clipPath id="clip0">
<rect width="400" height="280" fill="white" transform="translate(0.928223)"/>
</clipPath>
</defs>
</svg>
